<?xml version="1.0" encoding="UTF-8" standalone="no"?>
<!DOCTYPE svg PUBLIC "-//W3C//DTD SVG 1.1//EN" "http://www.w3.org/Graphics/SVG/1.1/DTD/svg11.dtd">
<svg version="1.1" xmlns="http://www.w3.org/2000/svg" xmlns:xlink="http://www.w3.org/1999/xlink" preserveAspectRatio="xMidYMid meet" viewBox="0 0 640 640" width="640" height="640"><defs><path d="M1031.64 252.87C1029.76 254.56 1027.22 255.24 1027.22 255.24C1027.22 255.24 1025.09 286.85 1019.35 291.62C1013.61 296.4 995.25 292.83 995.25 292.83C995.25 292.83 994.57 318.5 997.12 324.8C999.67 331.09 986.74 328.02 986.74 328.02C982.71 328.02 950.48 328.02 946.45 328.02C949.34 317.65 938.63 266.13 938.63 266.13C938.63 266.13 955.8 224.47 955.97 223.95C956.13 223.45 1003.58 192.67 1003.58 192.67C1003.58 192.67 1014.42 193.84 1018.09 207.72C1018.15 207.86 1018.17 208 1018.21 208.14C1021.77 222.42 1023.65 239.1 1027.22 242.83C1030.79 246.57 1033.51 251.17 1031.64 252.87" id="atIWqaixd"></path><path d="M1018.09 207.72C999.54 221.02 992.01 269.62 990.15 287.21C988.24 305.14 974.38 319.54 950.18 328.02C949.8 328.02 946.82 328.02 946.45 328.02C949.34 317.65 938.63 266.13 938.63 266.13C938.63 266.13 955.8 224.47 955.97 223.95C956.13 223.45 1003.58 192.67 1003.58 192.67C1003.58 192.67 1014.42 193.84 1018.09 207.72" id="bJevZTHIo"></path><path d="M994.4 216.31C997.8 221.06 987.59 248.1 987.94 256.1C988.27 264.09 984.37 260.19 983.85 250.49C984.02 241.99 970.93 234.84 966.17 247.25C961.4 259.67 969.57 264.94 973.82 267.32C978.07 269.7 982.16 295.19 973.49 305.74C964.81 316.29 923.83 324.63 913.12 287.05C911.12 280.03 908.47 273.94 905.57 268.47C892.95 244.59 875.69 232.13 887.27 203.89C894.25 186.89 907.67 182.64 930.29 180.77C952.91 178.89 973.14 128.9 1001.03 150.34C1009.29 156.68 1014.31 163.66 1016.64 170.73C1022.2 187.56 1012.46 205.05 994.4 216.31" id="fjAL47AF7"></path><path d="M973.2 250.3C973.62 250.1 974.03 250.01 974.41 250.01C975.26 250.01 976.06 250.45 976.68 251.23C977.3 252 977.7 253.09 977.7 254.26C977.7 255.07 977.51 255.93 977.08 256.76C976.72 257.46 976.36 257.89 976.05 258.12C975.74 258.35 975.49 258.41 975.24 258.42C974.81 258.43 974.32 258.16 973.94 257.84C973.75 257.69 973.59 257.53 973.49 257.41C973.48 257.4 973.44 257.35 973.36 257.27L973.34 257.23C973.33 257.23 973.33 257.23 973.33 257.23C973.11 256.93 972.69 256.88 972.4 257.09C972.11 257.32 972.05 257.73 972.27 258.03C972.29 258.05 972.59 258.45 973.09 258.87C973.6 259.28 974.32 259.74 975.24 259.75C975.77 259.75 976.34 259.57 976.86 259.18C977.37 258.79 977.84 258.2 978.27 257.37C978.79 256.34 979.03 255.28 979.03 254.26C979.03 252.79 978.54 251.42 977.73 250.4C976.92 249.37 975.74 248.68 974.41 248.68C973.82 248.68 973.22 248.81 972.63 249.09C972.3 249.25 972.16 249.64 972.31 249.98C972.47 250.31 972.86 250.45 973.2 250.3" id="bYJofywoA"></path><path d="M1011.16 267.56C1017.12 268.27 1020.43 268.66 1021.09 268.74C1021.09 268.74 1021.9 274.97 1018.21 274.63C1014.52 274.29 1011.16 267.56 1011.16 267.56" id="a1I8G0Ig1z"></path><path d="M1013.72 236.86C1013.87 239.61 1012.85 241.9 1011.43 241.98C1010.02 242.05 1008.75 239.89 1008.6 237.14C1008.45 234.39 1009.48 232.09 1010.89 232.02C1012.3 231.94 1013.57 234.11 1013.72 236.86" id="al7MJp9qT"></path><path d="M1004.34 225.92C1004.34 225.92 1004.34 225.92 1004.34 225.92C1004.4 225.82 1004.89 225.07 1005.82 224.38C1006.77 223.68 1008.13 223.03 1010.11 223.02C1010.77 223.02 1011.5 223.1 1012.3 223.27C1013.02 223.43 1013.73 222.98 1013.89 222.26C1014.05 221.54 1013.6 220.83 1012.88 220.67C1011.89 220.45 1010.97 220.36 1010.11 220.36C1007.33 220.35 1005.28 221.39 1003.98 222.43C1002.68 223.48 1002.08 224.5 1002.02 224.6C1001.66 225.24 1001.88 226.05 1002.52 226.42C1003.16 226.78 1003.97 226.56 1004.34 225.92" id="b2ayUQJphx"></path><path d="M994.4 216.31C997.8 221.06 987.59 248.1 987.94 256.1C988.27 264.09 984.37 260.19 983.85 250.49C984.02 241.99 970.93 234.84 966.17 247.25C961.4 259.67 969.57 264.94 973.82 267.32C978.07 269.7 982.16 295.19 973.49 305.74C964.81 316.29 923.83 324.63 913.12 287.05C911.12 280.03 908.47 273.94 905.57 268.47C925.2 276.37 943.06 273.36 950.83 266.47C961.58 256.95 954.77 236.54 970.42 234.16C986.06 231.79 977.91 206.61 1006.13 184.51C1011.45 180.35 1014.76 175.64 1016.64 170.73C1022.2 187.56 1012.46 205.05 994.4 216.31" id="f2kYRS487G"></path><path d="M935.05 342.36C937.09 323.26 967.36 304.15 997.97 317.62C1028.58 331.09 999.33 362.37 999.33 362.37C998.1 362.91 991.98 365.56 980.96 370.33" id="bmRIuZl2i"></path><path d="M882.82 377.79C900.22 335.17 911.18 326.82 942.77 334.4C955.71 337.5 969.86 332.59 983.9 327.68C1004.12 320.62 1024.11 313.55 1039.98 330.41C1066.86 358.98 1120.82 554.53 1120.82 554.53C1119.7 557.43 1114.13 571.96 1104.1 598.12C1052.62 628.48 1024.02 645.35 1018.3 648.73C1018.3 648.73 920.97 651.34 911.96 643.23C902.94 635.12 868.93 586.62 868.93 586.62C865.3 584.48 847.18 573.78 814.56 554.53L802.95 536.47L822 412.93L882.82 377.79" id="c1q4LWDMpX"></path><path d="M887.89 539.26C876.1 487.41 896.96 385.26 895.6 381.7C894.24 378.13 858.42 534.08 858.42 534.08C859.23 535.29 863.32 541.31 870.66 552.14" id="aMuqNeOLw"></path><path d="M1051.81 565.15C1012.59 470.86 1012.02 365.99 1007.89 381.7C1003.75 397.4 1007.69 531.05 1011.16 561.15C1014.63 591.25 997.62 627.98 997.62 627.98C1001.69 628.33 1022.03 630.07 1058.65 633.21" id="frohEuT47"></path><path d="M290.8 14.46C291.21 20.53 291.43 23.9 291.48 24.58C290.94 21.18 290.72 17.82 290.8 14.46" id="agyc4o4j"></path><path d="M534.35 497.12C532.85 507.74 532.01 513.64 531.85 514.82C531.85 514.82 501.42 543.26 471.91 568.99C471.35 568.97 470.8 568.96 470.22 568.92C405.8 565.47 386.62 566.88 352.2 584.36C317.79 601.85 283.37 581.2 285.34 510.89C287.3 440.58 336.47 344.69 328.61 314.21C328.5 313.72 328.36 313.26 328.21 312.78C326.97 308.45 322.74 295.31 315.82 288.4C310.99 283.57 307.04 276.48 304.9 269.99C303.31 265.29 302.67 260.9 303.29 257.91C303.9 254.89 305.69 254.6 307.64 254.45C310.3 254.25 313.19 254.33 313.61 248.07C314.34 237.25 313.11 220.28 301.55 220.05C290 219.8 286.07 231.84 286.07 239.46C286.07 247.09 271.07 235.79 263.94 227.18C256.82 218.57 258.28 211.44 247.23 208.73C236.17 206.03 220.44 207.75 211.08 185.14C210.13 205.32 217.72 235.81 218.84 246.22C200.64 230.51 186.47 209.52 180.38 187.89C194.59 185.93 205.34 178.4 211 178.43C219.44 178.49 265.17 222.54 354.17 204.93C379.55 199.93 397.11 194.63 409.28 189.7C407.88 202.08 405.93 214.39 404.66 225.98C402.56 245.3 402.37 262.71 409.73 275.36C432.36 314.21 495.29 298.88 489.38 352.51C483.49 406.15 524.62 394.71 531.85 454.75C533.6 469.29 534.66 483.7 534.35 497.12" id="g3EcIPfXPS"></path><path d="M328.61 314.21C328.61 314.21 308.45 328.23 308.93 322.31C309.43 316.42 302.3 293.79 295.66 293.79C294.85 293.79 294.02 294.14 293.18 294.76C287.01 299.05 279.23 316.31 263.69 308.31C245.99 299.2 229.53 270.45 229.53 270.45C229.53 270.45 220.19 272.16 218.95 269.47C217.72 266.75 219.44 256.43 218.95 247.57C218.94 247.17 218.9 246.72 218.84 246.22C218.18 240.12 215.3 227.1 213.22 213.31C211.75 203.59 210.69 193.48 211.08 185.14C220.44 207.75 236.17 206.03 247.23 208.73C258.28 211.44 256.82 218.57 263.94 227.18C271.07 235.79 286.07 247.09 286.07 239.46C286.07 231.84 290 219.8 301.55 220.05C313.11 220.28 314.34 237.25 313.61 248.07C313.38 251.6 312.36 253.1 311.03 253.79C308.29 255.22 304.27 253.1 303.29 257.91C302.54 261.55 303.63 267.27 306.04 273.11C308.31 278.66 311.74 284.32 315.82 288.4C322.74 295.31 326.97 308.45 328.21 312.78C328.36 313.26 328.5 313.72 328.61 314.21" id="bhpIOGpQ0"></path><path d="M242.7 238.92C244 242.59 242.91 246.33 240.27 247.26C237.62 248.2 234.42 245.99 233.12 242.32C231.82 238.66 232.91 234.92 235.55 233.98C238.19 233.04 241.39 235.25 242.7 238.92" id="aKG0b6vEy"></path><path d="M228.03 228.19L227.74 227.91L228.03 228.19L228.03 228.19L227.74 227.91C227.92 228.08 228.01 228.18 228.03 228.19C228.07 228.15 229.04 227.2 230.59 226.29C232.14 225.38 234.25 224.54 236.61 224.54C238.04 224.54 239.56 224.84 241.23 225.63C242.19 226.09 243.34 225.69 243.8 224.73C244.26 223.77 243.86 222.62 242.9 222.16C240.72 221.11 238.58 220.69 236.61 220.69C233.22 220.7 230.41 221.91 228.46 223.08C226.5 224.26 225.36 225.42 225.28 225.5C224.54 226.26 224.55 227.48 225.31 228.22C226.07 228.97 227.29 228.95 228.03 228.19" id="mrL9ZfRQ6"></path><path d="M257.32 291.56C258.29 291.79 259.25 291.91 260.19 291.91C263.8 291.91 267.08 290.23 269.42 287.51C271.77 284.79 273.26 281.05 273.57 276.76C273.65 275.7 272.85 274.78 271.79 274.7C270.73 274.62 269.81 275.42 269.73 276.48C269.47 280.05 268.23 282.99 266.51 284.99C264.76 286.99 262.6 288.05 260.19 288.06C259.56 288.06 258.9 287.98 258.22 287.82C257.19 287.57 256.15 288.21 255.9 289.24C255.65 290.27 256.29 291.31 257.32 291.56" id="i1aCbyMiZf"></path><path d="M313.61 248.07C313.38 251.6 312.36 253.1 311.03 253.79C311.59 248.63 311.8 239.62 307.62 233.4C301.48 224.23 291.56 240.29 289.44 244.38C287.3 248.48 276.98 242.58 264.02 230.3C253.14 219.96 232.4 209.61 213.22 213.31C211.75 203.59 210.69 193.48 211.08 185.14C220.44 207.75 236.17 206.03 247.23 208.73C258.28 211.44 256.82 218.57 263.94 227.18C271.07 235.79 286.07 247.09 286.07 239.46C286.07 231.84 290 219.8 301.55 220.05C313.11 220.28 314.34 237.25 313.61 248.07" id="a1udjr6WjJ"></path><path d="M328.61 314.21C328.61 314.21 308.45 328.23 308.93 322.31C309.43 316.42 302.3 293.79 295.66 293.79C294.85 293.79 294.02 294.14 293.18 294.76C293.18 294.75 293.18 294.74 293.18 294.74C299.38 285.05 303.42 278.1 306.04 273.11C308.31 278.66 311.74 284.32 315.82 288.4C322.74 295.31 326.97 308.45 328.21 312.78C328.36 313.26 328.5 313.72 328.61 314.21" id="a1oAuN80Z"></path><path d="M283.78 640C289.67 588.5 263.44 555.15 262.13 522.35C252.54 560.72 226.81 652.65 204.05 673.48C192.59 683.97 190.14 674.89 178.73 673.48C159.63 671.12 183.17 568.45 196.41 501.8C206.81 449.44 204.98 433.64 210.75 409.27C210.75 409.26 210.75 409.25 210.75 409.25C214.93 391.64 219.01 376.08 222.81 365.66C238.54 322.41 303.44 324.37 349.99 305.85C351.15 306.25 356.96 308.29 367.42 311.95L410.31 326.99L464.71 361.08L482 549.68L490.04 637.25L490.29 640L283.78 640" id="ie9v6EUjz"></path><path d="M367.67 311.95C363.11 320.98 360.59 325.99 360.08 326.99C360.08 326.99 312.55 331.58 276.81 341.75C241.08 351.89 236.5 374.2 226.66 396.48C216.82 418.78 210.92 427.62 211 409.27C211 409.26 211 409.25 211 409.25C215.18 391.64 219.26 376.08 223.06 365.66C238.79 322.41 303.69 324.37 350.24 305.85C351.4 306.25 357.21 308.29 367.67 311.95" id="a3P7PtH8PY"></path><path d="M534.35 497.12C533.41 538.62 519.37 570.75 471.91 568.99C471.35 568.97 470.8 568.96 470.22 568.92C405.8 565.47 386.62 566.88 352.2 584.36C317.79 601.85 283.37 581.2 285.34 510.89C287.3 440.58 336.47 344.69 328.61 314.21C328.5 313.72 328.36 313.26 328.21 312.78C326.97 308.45 322.74 295.31 315.82 288.4C310.99 283.57 307.04 276.48 304.9 269.99C303.31 265.29 302.67 260.9 303.29 257.91C303.9 254.89 305.69 254.6 307.64 254.45C310.3 254.25 313.19 254.33 313.61 248.07C314.34 237.25 313.11 220.28 301.55 220.05C290 219.8 286.07 231.84 286.07 239.46C286.07 247.09 271.07 235.79 263.94 227.18C256.82 218.57 258.28 211.44 247.23 208.73C236.17 206.03 220.44 207.75 211.08 185.14C210.13 205.32 217.72 235.81 218.84 246.22C200.64 230.51 186.47 209.52 180.38 187.89C173.2 162.24 177.4 135.64 199.77 115.75C242.06 78.19 288.77 112.11 288.77 112.11C288.77 112.11 348.27 60.5 392.03 106.72C412.96 128.82 412.75 159.48 409.28 189.7C407.88 202.08 405.93 214.39 404.66 225.98C402.56 245.3 402.37 262.71 409.73 275.36C432.36 314.21 495.29 298.88 489.38 352.51C483.49 406.15 524.62 394.71 531.85 454.75C533.6 469.29 534.66 483.7 534.35 497.12" id="e2HVgJJJp8"></path><path d="M490.29 637.25L486.86 640C365.16 640 297.55 640 284.03 640C289.92 588.5 263.69 555.15 262.38 522.35C275.5 483.68 274.84 415.51 282.06 413.52C289.27 411.56 291.81 442.6 295.35 507.95C298.88 573.27 476.77 544.21 476.77 544.21C477.13 544.57 478.96 546.4 482.25 549.68L490.29 637.25" id="bfyasxWcz"></path><path d="M298.15 229.16C298.09 229.16 298.06 229.16 298.05 229.16C297.35 229.15 296.68 229.45 296.21 229.89C295.49 230.56 295.07 231.49 294.79 232.55C294.51 233.61 294.38 234.81 294.38 236.07C294.38 238.33 294.79 240.76 295.64 242.72C296.07 243.7 296.61 244.57 297.33 245.23C298.03 245.89 298.96 246.35 300 246.34C300.03 246.34 300.3 246.33 300.33 246.33C302.35 246.17 303.76 245.12 304.48 243.84C305.21 242.57 305.36 241.15 305.37 239.98C305.37 238.61 305.13 237.58 305.12 237.53C305 237.02 304.48 236.69 303.97 236.81C303.45 236.93 303.12 237.45 303.24 237.97C303.24 237.97 303.25 237.99 303.25 237.99C303.28 238.15 303.44 238.98 303.44 239.98C303.45 240.95 303.28 242.07 302.81 242.88C302.32 243.68 301.65 244.26 300.16 244.41C300.15 244.41 300.01 244.41 300 244.42C299.5 244.41 299.09 244.23 298.64 243.82C297.96 243.21 297.34 242.04 296.93 240.63C296.52 239.22 296.31 237.59 296.31 236.07C296.3 234.57 296.52 233.18 296.9 232.27C297.09 231.82 297.31 231.49 297.51 231.32C297.71 231.14 297.84 231.09 298.05 231.08C298.05 231.09 298.08 231.09 298.08 231.09C298.61 231.11 299.06 230.69 299.08 230.16C299.1 229.63 298.68 229.18 298.15 229.16" id="b2a0H36j0J"></path><path d="M1005.95 652.47C989.77 652.47 980.77 652.47 978.97 652.47C979.16 650.46 979.36 648.41 979.57 646.35C982.2 646.35 1003.23 646.35 1005.86 646.35C1005.88 648.39 1005.91 650.43 1005.95 652.47" id="b2zkykSP6g"></path><path d="M1127.72 533.68C1122.84 562.56 1094.29 550.31 1084 544.83C1075.24 540.16 1066.71 538.08 1055.08 542.86C1053.71 541.25 1052.61 539.68 1051.81 538.2C1046.15 527.65 1054.09 527.32 1067.7 513.37C1072.05 513.37 1106.86 513.37 1111.21 513.37C1111.21 513.37 1120.46 524.63 1127.72 533.68" id="biv1MrCds"></path><path d="M1101.94 565.07C1081.72 563.89 1063.42 552.68 1055.08 542.86C1053.71 541.25 1052.61 539.68 1051.81 538.2C1046.15 527.65 1054.09 527.32 1067.7 513.37C1072.05 513.37 1106.86 513.37 1111.21 513.37C1111.21 513.37 1120.46 524.63 1127.72 533.68C1130.78 537.51 1133.5 540.94 1135.02 542.96C1140.12 549.76 1125.49 566.43 1101.94 565.07" id="c6IAnx3lLW"></path></defs><g><g><g><use xlink:href="#atIWqaixd" opacity="1" fill="#e56e61" fill-opacity="1"></use><g><use xlink:href="#atIWqaixd" opacity="1" fill-opacity="0" stroke="#000000" stroke-width="1" stroke-opacity="0"></use></g></g><g><use xlink:href="#bJevZTHIo" opacity="1" fill="#d65950" fill-opacity="1"></use><g><use xlink:href="#bJevZTHIo" opacity="1" fill-opacity="0" stroke="#000000" stroke-width="1" stroke-opacity="0"></use></g></g><g><use xlink:href="#fjAL47AF7" opacity="1" fill="#3f3b51" fill-opacity="1"></use><g><use xlink:href="#fjAL47AF7" opacity="1" fill-opacity="0" stroke="#000000" stroke-width="1" stroke-opacity="0"></use></g></g><g><use xlink:href="#bYJofywoA" opacity="1" fill="#ba2a45" fill-opacity="1"></use><g><use xlink:href="#bYJofywoA" opacity="1" fill-opacity="0" stroke="#000000" stroke-width="1" stroke-opacity="0"></use></g></g><g><use xlink:href="#a1I8G0Ig1z" opacity="1" fill="#ffffff" fill-opacity="1"></use><g><use xlink:href="#a1I8G0Ig1z" opacity="1" fill-opacity="0" stroke="#000000" stroke-width="1" stroke-opacity="0"></use></g></g><g><use xlink:href="#al7MJp9qT" opacity="1" fill="#3f3b51" fill-opacity="1"></use><g><use xlink:href="#al7MJp9qT" opacity="1" fill-opacity="0" stroke="#000000" stroke-width="1" stroke-opacity="0"></use></g></g><g><use xlink:href="#b2ayUQJphx" opacity="1" fill="#3f3b51" fill-opacity="1"></use><g><use xlink:href="#b2ayUQJphx" opacity="1" fill-opacity="0" stroke="#000000" stroke-width="1" stroke-opacity="0"></use></g></g><g><use xlink:href="#f2kYRS487G" opacity="1" fill="#312f3d" fill-opacity="1"></use><g><use xlink:href="#f2kYRS487G" opacity="1" fill-opacity="0" stroke="#000000" stroke-width="1" stroke-opacity="0"></use></g></g><g><use xlink:href="#bmRIuZl2i" opacity="1" fill="#312f3d" fill-opacity="1"></use><g><use xlink:href="#bmRIuZl2i" opacity="1" fill-opacity="0" stroke="#000000" stroke-width="1" stroke-opacity="0"></use></g></g><g><use xlink:href="#c1q4LWDMpX" opacity="1" fill="#6d5250" fill-opacity="1"></use><g><use xlink:href="#c1q4LWDMpX" opacity="1" fill-opacity="0" stroke="#000000" stroke-width="1" stroke-opacity="0"></use></g></g><g><use xlink:href="#aMuqNeOLw" opacity="1" fill="#5b4343" fill-opacity="1"></use><g><use xlink:href="#aMuqNeOLw" opacity="1" fill-opacity="0" stroke="#000000" stroke-width="1" stroke-opacity="0"></use></g></g><g><use xlink:href="#frohEuT47" opacity="1" fill="#5b4343" fill-opacity="1"></use><g><use xlink:href="#frohEuT47" opacity="1" fill-opacity="0" stroke="#000000" stroke-width="1" stroke-opacity="0"></use></g></g><g><use xlink:href="#agyc4o4j" opacity="1" fill="#7f4646" fill-opacity="1"></use><g><use xlink:href="#agyc4o4j" opacity="1" fill-opacity="0" stroke="#000000" stroke-width="1" stroke-opacity="0"></use></g></g><g><use xlink:href="#g3EcIPfXPS" opacity="1" fill="#343147" fill-opacity="1"></use><g><use xlink:href="#g3EcIPfXPS" opacity="1" fill-opacity="0" stroke="#000000" stroke-width="1" stroke-opacity="0"></use></g></g><g><use xlink:href="#bhpIOGpQ0" opacity="1" fill="#e56e61" fill-opacity="1"></use><g><use xlink:href="#bhpIOGpQ0" opacity="1" fill-opacity="0" stroke="#000000" stroke-width="1" stroke-opacity="0"></use></g></g><g><use xlink:href="#aKG0b6vEy" opacity="1" fill="#3f3b51" fill-opacity="1"></use><g><use xlink:href="#aKG0b6vEy" opacity="1" fill-opacity="0" stroke="#000000" stroke-width="1" stroke-opacity="0"></use></g></g><g><use xlink:href="#mrL9ZfRQ6" opacity="1" fill="#3f3b51" fill-opacity="1"></use><g><use xlink:href="#mrL9ZfRQ6" opacity="1" fill-opacity="0" stroke="#000000" stroke-width="1" stroke-opacity="0"></use></g></g><g><use xlink:href="#i1aCbyMiZf" opacity="1" fill="#ba2a45" fill-opacity="1"></use><g><use xlink:href="#i1aCbyMiZf" opacity="1" fill-opacity="0" stroke="#000000" stroke-width="1" stroke-opacity="0"></use></g></g><g><use xlink:href="#a1udjr6WjJ" opacity="1" fill="#d65950" fill-opacity="1"></use><g><use xlink:href="#a1udjr6WjJ" opacity="1" fill-opacity="0" stroke="#000000" stroke-width="1" stroke-opacity="0"></use></g></g><g><use xlink:href="#a1oAuN80Z" opacity="1" fill="#d65950" fill-opacity="1"></use><g><use xlink:href="#a1oAuN80Z" opacity="1" fill-opacity="0" stroke="#000000" stroke-width="1" stroke-opacity="0"></use></g></g><g><use xlink:href="#ie9v6EUjz" opacity="1" fill="#6879af" fill-opacity="1"></use><g><use xlink:href="#ie9v6EUjz" opacity="1" fill-opacity="0" stroke="#000000" stroke-width="1" stroke-opacity="0"></use></g></g><g><use xlink:href="#a3P7PtH8PY" opacity="1" fill="#596c9b" fill-opacity="1"></use><g><use xlink:href="#a3P7PtH8PY" opacity="1" fill-opacity="0" stroke="#000000" stroke-width="1" stroke-opacity="0"></use></g></g><g><use xlink:href="#e2HVgJJJp8" opacity="1" fill="#3f3b51" fill-opacity="1"></use><g><use xlink:href="#e2HVgJJJp8" opacity="1" fill-opacity="0" stroke="#000000" stroke-width="1" stroke-opacity="0"></use></g></g><g><use xlink:href="#bfyasxWcz" opacity="1" fill="#596c9b" fill-opacity="1"></use><g><use xlink:href="#bfyasxWcz" opacity="1" fill-opacity="0" stroke="#000000" stroke-width="1" stroke-opacity="0"></use></g></g><g><use xlink:href="#b2a0H36j0J" opacity="1" fill="#ba2a45" fill-opacity="1"></use><g><use xlink:href="#b2a0H36j0J" opacity="1" fill-opacity="0" stroke="#000000" stroke-width="1" stroke-opacity="0"></use></g></g><g><use xlink:href="#b2zkykSP6g" opacity="1" fill="#7b4444" fill-opacity="1"></use><g><use xlink:href="#b2zkykSP6g" opacity="1" fill-opacity="0" stroke="#000000" stroke-width="1" stroke-opacity="0"></use></g></g><g><use xlink:href="#biv1MrCds" opacity="1" fill="#604242" fill-opacity="1"></use><g><use xlink:href="#biv1MrCds" opacity="1" fill-opacity="0" stroke="#000000" stroke-width="1" stroke-opacity="0"></use></g></g><g><use xlink:href="#c6IAnx3lLW" opacity="1" fill="#6d5250" fill-opacity="1"></use><g><use xlink:href="#c6IAnx3lLW" opacity="1" fill-opacity="0" stroke="#000000" stroke-width="1" stroke-opacity="0"></use></g></g></g></g></svg>