<?xml version="1.0" encoding="UTF-8" standalone="no"?>
<!DOCTYPE svg PUBLIC "-//W3C//DTD SVG 1.1//EN" "http://www.w3.org/Graphics/SVG/1.1/DTD/svg11.dtd">
<svg version="1.1" xmlns="http://www.w3.org/2000/svg" xmlns:xlink="http://www.w3.org/1999/xlink" preserveAspectRatio="xMidYMid meet" viewBox="0 0 640 640" width="640" height="640"><defs><path d="M418.3 211.81C415.48 214.34 411.67 215.36 411.67 215.36C411.67 215.36 408.48 262.71 399.88 269.86C391.28 277.02 363.78 271.67 363.78 271.67C363.78 271.67 362.76 310.13 366.57 319.57C370.4 328.99 351.02 324.4 351.02 324.4C344.99 324.4 296.7 324.4 290.66 324.4C294.99 308.85 278.94 231.66 278.94 231.66C278.94 231.66 304.67 169.26 304.93 168.48C305.17 167.72 376.25 121.61 376.25 121.61C376.25 121.61 392.49 123.36 398 144.16C398.08 144.38 398.12 144.58 398.18 144.8C403.51 166.19 406.32 191.17 411.67 196.76C417.02 202.37 421.09 209.25 418.3 211.81" id="bDtwioMoh"></path><path d="M398 144.16C370.2 164.09 358.93 236.89 356.13 263.25C353.28 290.11 332.51 311.68 296.25 324.4C295.69 324.4 291.22 324.4 290.66 324.4C294.99 308.85 278.94 231.66 278.94 231.66C278.94 231.66 304.67 169.26 304.93 168.48C305.17 167.72 376.25 121.61 376.25 121.61C376.25 121.61 392.49 123.36 398 144.16" id="b1x8UW4eo2"></path><path d="M362.5 157.03C367.59 164.15 352.3 204.66 352.82 216.64C353.32 228.61 347.47 222.76 346.69 208.23C346.95 195.5 327.34 184.79 320.21 203.39C313.07 221.98 325.3 229.89 331.67 233.46C338.03 237.01 344.16 275.21 331.17 291.01C318.18 306.82 256.77 319.31 240.73 263.01C237.74 252.5 233.77 243.38 229.41 235.17C210.52 199.39 184.65 180.74 202 138.43C212.45 112.95 232.57 106.58 266.45 103.79C300.34 100.97 330.65 26.08 372.44 58.19C384.81 67.69 392.33 78.14 395.83 88.74C404.15 113.96 389.56 140.17 362.5 157.03" id="c6sU2WhXED"></path><path d="M330.74 207.95C331.38 207.65 331.98 207.52 332.55 207.52C333.83 207.52 335.03 208.18 335.96 209.34C336.88 210.49 337.48 212.13 337.47 213.89C337.47 215.11 337.2 216.38 336.56 217.63C336.01 218.69 335.47 219.32 335.01 219.67C334.55 220.01 334.17 220.11 333.8 220.12C333.16 220.13 332.42 219.73 331.85 219.25C331.56 219.02 331.33 218.78 331.17 218.6C331.16 218.59 331.1 218.52 330.99 218.39L330.95 218.34C330.94 218.34 330.94 218.33 330.94 218.33C330.61 217.89 329.98 217.8 329.54 218.13C329.1 218.46 329.01 219.09 329.34 219.53C329.37 219.57 329.82 220.17 330.58 220.79C331.33 221.41 332.42 222.1 333.8 222.11C334.59 222.12 335.45 221.85 336.22 221.26C336.99 220.67 337.69 219.78 338.33 218.54C339.12 217.01 339.47 215.41 339.47 213.89C339.47 211.69 338.74 209.63 337.52 208.1C336.31 206.56 334.55 205.52 332.55 205.52C331.67 205.52 330.77 205.72 329.89 206.14C329.39 206.37 329.18 206.97 329.41 207.47C329.64 207.97 330.24 208.18 330.74 207.95" id="c47EcJf9Kv"></path><path d="M387.62 233.81C396.54 234.87 401.5 235.46 402.49 235.58C402.49 235.58 403.7 244.92 398.17 244.41C392.64 243.9 387.62 233.81 387.62 233.81" id="a2OwaFZW3Z"></path><path d="M391.45 187.81C391.67 191.93 390.14 195.37 388.02 195.48C385.91 195.6 384.01 192.35 383.78 188.23C383.56 184.11 385.09 180.68 387.21 180.56C389.32 180.44 391.22 183.69 391.45 187.81" id="a1fPlZqifU"></path><path d="M377.39 171.43C377.39 171.43 377.39 171.43 377.39 171.43C377.48 171.28 378.21 170.16 379.62 169.12C381.03 168.08 383.07 167.09 386.04 167.08C387.02 167.08 388.11 167.2 389.33 167.46C390.4 167.7 391.47 167.02 391.7 165.94C391.94 164.87 391.26 163.8 390.18 163.56C388.71 163.24 387.33 163.09 386.04 163.09C381.88 163.09 378.8 164.64 376.86 166.2C374.9 167.76 374.01 169.3 373.92 169.45C373.38 170.4 373.71 171.62 374.67 172.17C375.62 172.72 376.84 172.39 377.39 171.43" id="cXLHQTF9y"></path><path d="M362.5 157.03C367.59 164.15 352.3 204.66 352.82 216.64C353.32 228.61 347.47 222.76 346.69 208.23C346.95 195.5 327.34 184.79 320.21 203.39C313.07 221.98 325.3 229.89 331.67 233.46C338.03 237.01 344.16 275.21 331.17 291.01C318.18 306.82 256.77 319.31 240.73 263.01C237.74 252.5 233.77 243.38 229.41 235.17C258.83 247.01 285.59 242.5 297.22 232.18C313.33 217.91 303.13 187.34 326.58 183.77C350.01 180.22 337.79 142.5 380.08 109.39C388.04 103.15 393.01 96.1 395.83 88.74C404.15 113.96 389.56 140.17 362.5 157.03" id="aw5kKyq3P"></path><path d="M273.59 345.87C276.64 317.27 321.99 288.63 367.85 308.81C413.7 328.98 369.88 375.86 369.88 375.86C368.05 376.66 358.88 380.63 342.37 387.78" id="d2c1cO5fw"></path><path d="M195.34 398.96C221.4 335.1 237.82 322.6 285.15 333.95C304.54 338.6 325.73 331.24 346.77 323.89C377.06 313.3 407.02 302.71 430.79 327.97C471.06 370.77 551.89 663.74 551.89 663.74C550.22 668.09 541.88 689.86 526.86 729.05C449.73 774.54 406.88 799.81 398.31 804.87C398.31 804.87 252.5 808.78 238.99 796.64C225.47 784.49 174.52 711.82 174.52 711.82C169.09 708.62 141.94 692.59 93.07 663.74L75.68 636.69L104.21 451.61L195.34 398.96" id="arjQzPIVr"></path><path d="M202.94 640.86C185.27 563.19 216.52 410.15 214.48 404.81C212.44 399.47 158.78 633.11 158.78 633.11C160 634.91 166.11 643.93 177.12 660.17" id="cnElGs8tt"></path><path d="M448.52 679.65C389.75 538.39 388.9 381.28 382.71 404.81C376.51 428.34 382.42 628.56 387.62 673.66C392.81 718.76 367.33 773.78 367.33 773.78C373.42 774.3 403.9 776.92 458.77 781.62" id="a1WkfKBJI"></path><path d="M1208.1 -642.84C1208.51 -636.77 1208.73 -633.4 1208.78 -632.72C1208.24 -636.12 1208.02 -639.48 1208.1 -642.84" id="b4QNSfuZDx"></path><path d="M1451.65 -160.18C1450.15 -149.56 1449.31 -143.66 1449.15 -142.48C1449.15 -142.48 1418.72 -114.03 1389.21 -88.3C1388.66 -88.32 1388.1 -88.34 1387.52 -88.38C1323.1 -91.83 1303.92 -90.42 1269.5 -72.94C1235.09 -55.45 1200.67 -76.09 1202.64 -146.41C1204.6 -216.72 1253.77 -312.61 1245.91 -343.09C1245.8 -343.57 1245.66 -344.04 1245.51 -344.52C1244.28 -348.85 1240.04 -361.98 1233.12 -368.9C1228.29 -373.73 1224.34 -380.82 1222.21 -387.31C1220.61 -392.01 1219.97 -396.4 1220.59 -399.38C1221.2 -402.41 1222.99 -402.7 1224.94 -402.85C1227.6 -403.04 1230.49 -402.97 1230.91 -409.23C1231.64 -420.05 1230.41 -437.02 1218.85 -437.25C1207.3 -437.5 1203.37 -425.46 1203.37 -417.83C1203.37 -410.21 1188.37 -421.51 1181.24 -430.12C1174.12 -438.73 1175.58 -445.85 1164.53 -448.57C1153.47 -451.27 1137.74 -449.55 1128.38 -472.16C1127.43 -451.98 1135.02 -421.49 1136.14 -411.07C1117.94 -426.79 1103.77 -447.78 1097.68 -469.41C1111.89 -471.37 1122.64 -478.9 1128.3 -478.86C1136.74 -478.81 1182.48 -434.76 1271.47 -452.36C1296.85 -457.37 1314.41 -462.67 1326.59 -467.6C1325.18 -455.21 1323.23 -442.91 1321.96 -431.31C1319.86 -412 1319.67 -394.59 1327.03 -381.94C1349.66 -343.09 1412.59 -358.42 1406.68 -304.79C1400.79 -251.15 1441.92 -262.59 1449.15 -202.54C1450.9 -188 1451.96 -173.6 1451.65 -160.18" id="adRnBriJM"></path><path d="M1245.91 -343.09C1245.91 -343.09 1225.75 -329.07 1226.23 -334.98C1226.73 -340.88 1219.61 -363.51 1212.96 -363.51C1212.15 -363.51 1211.32 -363.16 1210.48 -362.54C1204.31 -358.25 1196.53 -340.99 1180.99 -348.98C1163.29 -358.09 1146.83 -386.85 1146.83 -386.85C1146.83 -386.85 1137.49 -385.13 1136.26 -387.83C1135.02 -390.54 1136.74 -400.87 1136.26 -409.73C1136.24 -410.13 1136.2 -410.57 1136.14 -411.07C1135.48 -417.18 1132.6 -430.2 1130.52 -443.99C1129.05 -453.71 1127.99 -463.82 1128.38 -472.16C1137.74 -449.55 1153.47 -451.27 1164.53 -448.57C1175.58 -445.85 1174.12 -438.73 1181.24 -430.12C1188.37 -421.51 1203.37 -410.21 1203.37 -417.83C1203.37 -425.46 1207.3 -437.5 1218.85 -437.25C1230.41 -437.02 1231.64 -420.05 1230.91 -409.23C1230.68 -405.7 1229.66 -404.2 1228.33 -403.51C1225.59 -402.08 1221.57 -404.2 1220.59 -399.38C1219.84 -395.74 1220.93 -390.02 1223.34 -384.19C1225.61 -378.64 1229.04 -372.98 1233.12 -368.9C1240.04 -361.98 1244.28 -348.85 1245.51 -344.52C1245.66 -344.04 1245.8 -343.57 1245.91 -343.09" id="a3f4HduduH"></path><path d="M1160 -418.38C1161.3 -414.71 1160.21 -410.97 1157.57 -410.03C1154.92 -409.09 1151.72 -411.31 1150.42 -414.98C1149.12 -418.64 1150.21 -422.38 1152.85 -423.32C1155.49 -424.25 1158.69 -422.04 1160 -418.38" id="canTOvbJS"></path><path d="M1145.34 -429.11L1145.04 -429.39L1145.33 -429.1L1145.34 -429.11L1145.04 -429.39C1145.22 -429.22 1145.31 -429.12 1145.33 -429.1C1145.37 -429.15 1146.34 -430.1 1147.89 -431C1149.45 -431.91 1151.55 -432.76 1153.91 -432.76C1155.34 -432.75 1156.87 -432.46 1158.53 -431.67C1159.49 -431.2 1160.64 -431.61 1161.1 -432.57C1161.56 -433.53 1161.16 -434.68 1160.2 -435.14C1158.02 -436.18 1155.88 -436.61 1153.91 -436.61C1150.53 -436.6 1147.72 -435.39 1145.76 -434.22C1143.8 -433.04 1142.66 -431.88 1142.58 -431.8C1141.84 -431.04 1141.85 -429.82 1142.61 -429.07C1143.37 -428.33 1144.59 -428.34 1145.34 -429.11" id="bZBe8lHLQ"></path><path d="M1174.62 -365.74C1175.59 -365.5 1176.55 -365.39 1177.49 -365.39C1181.1 -365.38 1184.38 -367.07 1186.72 -369.79C1189.07 -372.51 1190.56 -376.25 1190.87 -380.54C1190.95 -381.6 1190.15 -382.52 1189.09 -382.6C1188.03 -382.67 1187.11 -381.88 1187.03 -380.82C1186.77 -377.25 1185.54 -374.3 1183.81 -372.31C1182.06 -370.31 1179.9 -369.25 1177.49 -369.24C1176.86 -369.24 1176.2 -369.32 1175.52 -369.48C1174.49 -369.73 1173.45 -369.09 1173.2 -368.06C1172.95 -367.02 1173.59 -365.98 1174.62 -365.74" id="ezEhtv7pa"></path><path d="M1230.91 -409.23C1230.68 -405.7 1229.66 -404.2 1228.33 -403.51C1228.89 -408.67 1229.1 -417.68 1224.92 -423.9C1218.78 -433.07 1208.86 -417.01 1206.74 -412.92C1204.6 -408.82 1194.28 -414.71 1181.32 -427C1170.44 -437.34 1149.7 -447.68 1130.52 -443.99C1129.05 -453.71 1127.99 -463.82 1128.38 -472.16C1137.74 -449.55 1153.47 -451.27 1164.53 -448.57C1175.58 -445.85 1174.12 -438.73 1181.24 -430.12C1188.37 -421.51 1203.37 -410.21 1203.37 -417.83C1203.37 -425.46 1207.3 -437.5 1218.85 -437.25C1230.41 -437.02 1231.64 -420.05 1230.91 -409.23" id="elOBBX5vo"></path><path d="M1245.91 -343.09C1245.91 -343.09 1225.75 -329.07 1226.23 -334.98C1226.73 -340.88 1219.61 -363.51 1212.96 -363.51C1212.15 -363.51 1211.32 -363.16 1210.48 -362.54C1210.48 -362.54 1210.48 -362.56 1210.48 -362.56C1216.68 -372.25 1220.72 -379.2 1223.34 -384.19C1225.61 -378.64 1229.04 -372.98 1233.12 -368.9C1240.04 -361.98 1244.28 -348.85 1245.51 -344.52C1245.66 -344.04 1245.8 -343.57 1245.91 -343.09" id="b3Cl60U0NY"></path><path d="M1201.08 -17.3C1206.97 -68.79 1180.74 -102.15 1179.43 -134.95C1169.84 -96.58 1144.11 -4.65 1121.35 16.18C1109.89 26.67 1107.45 17.59 1096.03 16.18C1076.93 13.82 1100.48 -88.85 1113.71 -155.49C1124.11 -207.86 1122.28 -223.65 1128.05 -248.03C1128.05 -248.03 1128.05 -248.05 1128.05 -248.05C1132.23 -265.65 1136.31 -281.21 1140.11 -291.63C1155.84 -334.89 1220.74 -332.92 1267.29 -351.45C1268.45 -351.04 1274.26 -349.01 1284.72 -345.35L1327.61 -330.3L1382.01 -296.22L1399.31 -107.62L1407.34 -20.05L1407.59 -17.3L1201.08 -17.3" id="i1y8UH9wU"></path><path d="M1284.97 -345.35C1280.42 -336.32 1277.89 -331.31 1277.38 -330.3C1277.38 -330.3 1229.85 -325.72 1194.11 -315.55C1158.38 -305.4 1153.8 -283.1 1143.96 -260.82C1134.12 -238.52 1128.22 -229.68 1128.3 -248.03C1128.3 -248.03 1128.3 -248.05 1128.3 -248.05C1132.48 -265.65 1136.56 -281.21 1140.36 -291.63C1156.09 -334.89 1220.99 -332.92 1267.54 -351.45C1268.7 -351.04 1274.51 -349.01 1284.97 -345.35" id="a4ID0qWBk"></path><path d="M1451.65 -160.18C1450.71 -118.67 1436.67 -86.55 1389.21 -88.3C1388.66 -88.32 1388.1 -88.34 1387.52 -88.38C1323.1 -91.83 1303.92 -90.42 1269.5 -72.94C1235.09 -55.45 1200.67 -76.09 1202.64 -146.41C1204.6 -216.72 1253.77 -312.61 1245.91 -343.09C1245.8 -343.57 1245.66 -344.04 1245.51 -344.52C1244.28 -348.85 1240.04 -361.98 1233.12 -368.9C1228.29 -373.73 1224.34 -380.82 1222.21 -387.31C1220.61 -392.01 1219.97 -396.4 1220.59 -399.38C1221.2 -402.41 1222.99 -402.7 1224.94 -402.85C1227.6 -403.04 1230.49 -402.97 1230.91 -409.23C1231.64 -420.05 1230.41 -437.02 1218.85 -437.25C1207.3 -437.5 1203.37 -425.46 1203.37 -417.83C1203.37 -410.21 1188.37 -421.51 1181.24 -430.12C1174.12 -438.73 1175.58 -445.85 1164.53 -448.57C1153.47 -451.27 1137.74 -449.55 1128.38 -472.16C1127.43 -451.98 1135.02 -421.49 1136.14 -411.07C1117.94 -426.79 1103.77 -447.78 1097.68 -469.41C1090.5 -495.06 1094.7 -521.66 1117.07 -541.55C1159.37 -579.1 1206.07 -545.19 1206.07 -545.19C1206.07 -545.19 1265.58 -596.8 1309.33 -550.58C1330.26 -528.47 1330.05 -497.81 1326.59 -467.6C1325.18 -455.21 1323.23 -442.91 1321.96 -431.31C1319.86 -412 1319.67 -394.59 1327.03 -381.94C1349.66 -343.09 1412.59 -358.42 1406.68 -304.79C1400.79 -251.15 1441.92 -262.59 1449.15 -202.54C1450.9 -188 1451.96 -173.6 1451.65 -160.18" id="a326vaF935"></path><path d="M1407.59 -20.05L1404.16 -17.3C1282.46 -17.3 1214.85 -17.3 1201.33 -17.3C1207.22 -68.79 1180.99 -102.15 1179.68 -134.95C1192.8 -173.62 1192.14 -241.79 1199.36 -243.78C1206.57 -245.74 1209.11 -214.7 1212.65 -149.35C1216.18 -84.03 1394.07 -113.09 1394.07 -113.09C1394.43 -112.72 1396.26 -110.9 1399.56 -107.62L1407.59 -20.05" id="c16h30DIbs"></path><path d="M1215.45 -428.14C1215.39 -428.14 1215.36 -428.14 1215.35 -428.14C1214.65 -428.14 1213.99 -427.85 1213.51 -427.41C1212.79 -426.73 1212.37 -425.81 1212.09 -424.75C1211.81 -423.69 1211.68 -422.48 1211.68 -421.23C1211.68 -418.96 1212.09 -416.54 1212.94 -414.58C1213.37 -413.6 1213.91 -412.73 1214.63 -412.07C1215.33 -411.4 1216.26 -410.95 1217.3 -410.96C1217.33 -410.96 1217.6 -410.97 1217.63 -410.97C1219.65 -411.13 1221.06 -412.18 1221.78 -413.46C1222.51 -414.73 1222.67 -416.15 1222.67 -417.31C1222.67 -418.68 1222.43 -419.72 1222.42 -419.76C1222.3 -420.28 1221.79 -420.6 1221.27 -420.49C1220.75 -420.37 1220.42 -419.85 1220.54 -419.33C1220.54 -419.33 1220.55 -419.31 1220.55 -419.3C1220.58 -419.14 1220.75 -418.31 1220.74 -417.31C1220.75 -416.34 1220.58 -415.23 1220.11 -414.42C1219.62 -413.62 1218.95 -413.04 1217.46 -412.89C1217.45 -412.89 1217.31 -412.88 1217.3 -412.88C1216.81 -412.89 1216.39 -413.07 1215.94 -413.48C1215.26 -414.09 1214.64 -415.26 1214.23 -416.67C1213.82 -418.08 1213.61 -419.71 1213.61 -421.23C1213.6 -422.72 1213.82 -424.12 1214.2 -425.03C1214.39 -425.48 1214.61 -425.81 1214.81 -425.98C1215.01 -426.16 1215.14 -426.21 1215.35 -426.21C1215.35 -426.21 1215.38 -426.21 1215.38 -426.21C1215.91 -426.19 1216.36 -426.61 1216.38 -427.14C1216.4 -427.67 1215.98 -428.12 1215.46 -428.14" id="b1xXv7iJGH"></path><path d="M379.81 810.48C355.56 810.48 342.09 810.48 339.39 810.48C339.67 807.46 339.97 804.39 340.29 801.3C344.23 801.3 375.73 801.3 379.67 801.3C379.69 804.36 379.74 807.41 379.81 810.48" id="eTtMxr3hZ"></path><path d="M562.24 632.51C554.93 675.78 512.15 657.42 496.74 649.21C483.61 642.21 470.84 639.1 453.42 646.26C451.36 643.85 449.71 641.49 448.51 639.28C440.03 623.47 451.92 622.97 472.32 602.08C478.83 602.08 530.99 602.08 537.51 602.08C537.51 602.08 551.36 618.94 562.24 632.51" id="ecskdsOlA"></path><path d="M523.62 679.53C493.33 677.77 465.91 660.97 453.42 646.26C451.36 643.85 449.71 641.49 448.51 639.28C440.03 623.47 451.92 622.97 472.32 602.08C478.83 602.08 530.99 602.08 537.51 602.08C537.51 602.08 551.36 618.94 562.24 632.51C566.83 638.24 570.9 643.39 573.17 646.4C580.81 656.6 558.9 681.56 523.62 679.53" id="b3TRvXN7np"></path></defs><g><g><g><use xlink:href="#bDtwioMoh" opacity="1" fill="#e56e61" fill-opacity="1"></use><g><use xlink:href="#bDtwioMoh" opacity="1" fill-opacity="0" stroke="#000000" stroke-width="1" stroke-opacity="0"></use></g></g><g><use xlink:href="#b1x8UW4eo2" opacity="1" fill="#d65950" fill-opacity="1"></use><g><use xlink:href="#b1x8UW4eo2" opacity="1" fill-opacity="0" stroke="#000000" stroke-width="1" stroke-opacity="0"></use></g></g><g><use xlink:href="#c6sU2WhXED" opacity="1" fill="#3f3b51" fill-opacity="1"></use><g><use xlink:href="#c6sU2WhXED" opacity="1" fill-opacity="0" stroke="#000000" stroke-width="1" stroke-opacity="0"></use></g></g><g><use xlink:href="#c47EcJf9Kv" opacity="1" fill="#ba2a45" fill-opacity="1"></use><g><use xlink:href="#c47EcJf9Kv" opacity="1" fill-opacity="0" stroke="#000000" stroke-width="1" stroke-opacity="0"></use></g></g><g><use xlink:href="#a2OwaFZW3Z" opacity="1" fill="#ffffff" fill-opacity="1"></use><g><use xlink:href="#a2OwaFZW3Z" opacity="1" fill-opacity="0" stroke="#000000" stroke-width="1" stroke-opacity="0"></use></g></g><g><use xlink:href="#a1fPlZqifU" opacity="1" fill="#3f3b51" fill-opacity="1"></use><g><use xlink:href="#a1fPlZqifU" opacity="1" fill-opacity="0" stroke="#000000" stroke-width="1" stroke-opacity="0"></use></g></g><g><use xlink:href="#cXLHQTF9y" opacity="1" fill="#3f3b51" fill-opacity="1"></use><g><use xlink:href="#cXLHQTF9y" opacity="1" fill-opacity="0" stroke="#000000" stroke-width="1" stroke-opacity="0"></use></g></g><g><use xlink:href="#aw5kKyq3P" opacity="1" fill="#312f3d" fill-opacity="1"></use><g><use xlink:href="#aw5kKyq3P" opacity="1" fill-opacity="0" stroke="#000000" stroke-width="1" stroke-opacity="0"></use></g></g><g><use xlink:href="#d2c1cO5fw" opacity="1" fill="#312f3d" fill-opacity="1"></use><g><use xlink:href="#d2c1cO5fw" opacity="1" fill-opacity="0" stroke="#000000" stroke-width="1" stroke-opacity="0"></use></g></g><g><use xlink:href="#arjQzPIVr" opacity="1" fill="#6d5250" fill-opacity="1"></use><g><use xlink:href="#arjQzPIVr" opacity="1" fill-opacity="0" stroke="#000000" stroke-width="1" stroke-opacity="0"></use></g></g><g><use xlink:href="#cnElGs8tt" opacity="1" fill="#5b4343" fill-opacity="1"></use><g><use xlink:href="#cnElGs8tt" opacity="1" fill-opacity="0" stroke="#000000" stroke-width="1" stroke-opacity="0"></use></g></g><g><use xlink:href="#a1WkfKBJI" opacity="1" fill="#5b4343" fill-opacity="1"></use><g><use xlink:href="#a1WkfKBJI" opacity="1" fill-opacity="0" stroke="#000000" stroke-width="1" stroke-opacity="0"></use></g></g><g><use xlink:href="#b4QNSfuZDx" opacity="1" fill="#7f4646" fill-opacity="1"></use><g><use xlink:href="#b4QNSfuZDx" opacity="1" fill-opacity="0" stroke="#000000" stroke-width="1" stroke-opacity="0"></use></g></g><g><use xlink:href="#adRnBriJM" opacity="1" fill="#343147" fill-opacity="1"></use><g><use xlink:href="#adRnBriJM" opacity="1" fill-opacity="0" stroke="#000000" stroke-width="1" stroke-opacity="0"></use></g></g><g><use xlink:href="#a3f4HduduH" opacity="1" fill="#e56e61" fill-opacity="1"></use><g><use xlink:href="#a3f4HduduH" opacity="1" fill-opacity="0" stroke="#000000" stroke-width="1" stroke-opacity="0"></use></g></g><g><use xlink:href="#canTOvbJS" opacity="1" fill="#3f3b51" fill-opacity="1"></use><g><use xlink:href="#canTOvbJS" opacity="1" fill-opacity="0" stroke="#000000" stroke-width="1" stroke-opacity="0"></use></g></g><g><use xlink:href="#bZBe8lHLQ" opacity="1" fill="#3f3b51" fill-opacity="1"></use><g><use xlink:href="#bZBe8lHLQ" opacity="1" fill-opacity="0" stroke="#000000" stroke-width="1" stroke-opacity="0"></use></g></g><g><use xlink:href="#ezEhtv7pa" opacity="1" fill="#ba2a45" fill-opacity="1"></use><g><use xlink:href="#ezEhtv7pa" opacity="1" fill-opacity="0" stroke="#000000" stroke-width="1" stroke-opacity="0"></use></g></g><g><use xlink:href="#elOBBX5vo" opacity="1" fill="#d65950" fill-opacity="1"></use><g><use xlink:href="#elOBBX5vo" opacity="1" fill-opacity="0" stroke="#000000" stroke-width="1" stroke-opacity="0"></use></g></g><g><use xlink:href="#b3Cl60U0NY" opacity="1" fill="#d65950" fill-opacity="1"></use><g><use xlink:href="#b3Cl60U0NY" opacity="1" fill-opacity="0" stroke="#000000" stroke-width="1" stroke-opacity="0"></use></g></g><g><use xlink:href="#i1y8UH9wU" opacity="1" fill="#6879af" fill-opacity="1"></use><g><use xlink:href="#i1y8UH9wU" opacity="1" fill-opacity="0" stroke="#000000" stroke-width="1" stroke-opacity="0"></use></g></g><g><use xlink:href="#a4ID0qWBk" opacity="1" fill="#596c9b" fill-opacity="1"></use><g><use xlink:href="#a4ID0qWBk" opacity="1" fill-opacity="0" stroke="#000000" stroke-width="1" stroke-opacity="0"></use></g></g><g><use xlink:href="#a326vaF935" opacity="1" fill="#3f3b51" fill-opacity="1"></use><g><use xlink:href="#a326vaF935" opacity="1" fill-opacity="0" stroke="#000000" stroke-width="1" stroke-opacity="0"></use></g></g><g><use xlink:href="#c16h30DIbs" opacity="1" fill="#596c9b" fill-opacity="1"></use><g><use xlink:href="#c16h30DIbs" opacity="1" fill-opacity="0" stroke="#000000" stroke-width="1" stroke-opacity="0"></use></g></g><g><use xlink:href="#b1xXv7iJGH" opacity="1" fill="#ba2a45" fill-opacity="1"></use><g><use xlink:href="#b1xXv7iJGH" opacity="1" fill-opacity="0" stroke="#000000" stroke-width="1" stroke-opacity="0"></use></g></g><g><use xlink:href="#eTtMxr3hZ" opacity="1" fill="#7b4444" fill-opacity="1"></use><g><use xlink:href="#eTtMxr3hZ" opacity="1" fill-opacity="0" stroke="#000000" stroke-width="1" stroke-opacity="0"></use></g></g><g><use xlink:href="#ecskdsOlA" opacity="1" fill="#604242" fill-opacity="1"></use><g><use xlink:href="#ecskdsOlA" opacity="1" fill-opacity="0" stroke="#000000" stroke-width="1" stroke-opacity="0"></use></g></g><g><use xlink:href="#b3TRvXN7np" opacity="1" fill="#6d5250" fill-opacity="1"></use><g><use xlink:href="#b3TRvXN7np" opacity="1" fill-opacity="0" stroke="#000000" stroke-width="1" stroke-opacity="0"></use></g></g></g></g></svg>