<?xml version="1.0" encoding="UTF-8" standalone="no"?>
<!DOCTYPE svg PUBLIC "-//W3C//DTD SVG 1.1//EN" "http://www.w3.org/Graphics/SVG/1.1/DTD/svg11.dtd">
<svg version="1.1" xmlns="http://www.w3.org/2000/svg" xmlns:xlink="http://www.w3.org/1999/xlink" preserveAspectRatio="xMidYMid meet" viewBox="0 0 640 640" width="640" height="640"><defs><path d="M812.47 196.93C818.43 197.64 821.74 198.03 822.4 198.11C822.4 198.11 823.21 204.34 819.52 204C815.83 203.67 812.47 196.93 812.47 196.93" id="c9ABll9iL"></path><path d="M-28.3 736.51C-30.94 762.04 -87.21 815.8 -87.21 815.8C-91.73 816.48 -114.35 819.9 -155.06 826.04C-157.5 826.41 -158.85 826.61 -159.12 826.65C-159.12 826.65 -159.86 826.38 -161.2 825.88C-174.36 820.92 -245.2 793.3 -234.35 776.7C-222.4 758.41 -224.53 757.59 -236.14 736.17C-238.44 731.9 -239.92 728.55 -240.71 725.77C-243.95 714.51 -236.28 712.45 -228.45 697.63C-218.7 679.14 -228.47 671.05 -230.97 632.99C-231.03 631.99 -231.08 631.01 -231.07 630.05C-231.48 594.01 -194.1 577.02 -170.44 583.97C-169.13 568.43 -146.02 556.06 -112.15 562.8C-78.28 569.54 -83.6 611.85 -69.25 620.25C-54.91 628.65 -60.26 653.46 -48.08 668.55C-42.75 675.15 -37.78 684.12 -34.12 694.24C-30.98 702.84 -28.82 712.27 -28.11 721.84C-27.75 726.73 -27.8 731.65 -28.3 736.51" id="fo6sNQT0c"></path><path d="M-28.3 736.51C-30.94 762.04 -87.21 815.8 -87.21 815.8C-91.73 816.48 -114.35 819.9 -155.06 826.04C-158.75 825.94 -160.79 825.89 -161.2 825.88C-174.36 820.92 -245.2 793.3 -234.35 776.7C-222.4 758.41 -224.53 757.59 -236.14 736.17C-238.44 731.9 -239.92 728.55 -240.71 725.77C-213.33 716.16 -199.86 666.34 -199.86 666.34C-190.04 665.31 -111.47 657.08 -101.65 656.05C-101.65 656.05 -117.06 676.91 -84.75 691.25C-52.44 705.58 -41.95 689.15 -31.71 715.42C-30.78 717.81 -29.56 719.94 -28.11 721.84C-27.75 726.73 -27.8 731.65 -28.3 736.51" id="clJlHYd3m"></path><path d="M25.32 1047.17C25.32 1047.17 25.02 1047.48 24.44 1048.04C18.5 1053.86 -17.15 1087.44 -62.28 1101.01C-111.79 1115.91 -89.37 1115.11 -145.38 1095.89C-170.5 1087.27 -184.51 1075.57 -192.32 1065.28C-193.3 1064 -194.18 1062.73 -194.98 1061.49C-198.39 1056.19 -200.2 1051.45 -201.16 1048C-202.15 1044.35 -202.2 1042.13 -202.2 1042.13C-202.59 1041.25 -204.53 1036.9 -208.01 1029.06L-215.71 1011.69L-224.07 992.87L-231.77 975.51C-235.42 967.31 -237.44 962.76 -237.85 961.85C-237.85 961.85 -237.9 959.9 -238.07 956.53C-238.29 952.42 -238.66 946.16 -239.31 938.66C-239.82 932.82 -240.48 926.24 -241.36 919.33C-242.08 913.56 -242.96 907.55 -244.01 901.57C-245.16 895.05 -246.52 888.56 -248.12 882.42C-249.75 876.07 -251.67 870.1 -253.88 864.89C-258.35 854.39 -264.03 846.96 -271.25 845.6C-272.16 845.44 -244.08 785.13 -227.35 760.13C-214.28 740.57 -190.19 749.05 -167.92 754.65C-161.72 756.23 -155.65 757.56 -150.01 758.01C-148 757.5 -131.84 753.44 -129.82 752.94C-129.82 752.94 -122.02 744.97 -100.16 739.6C-91.35 737.44 -80.27 735.71 -66.51 735.07C-47.14 734.19 -28.44 784.93 -13.03 845.75C-11.57 851.54 -10.13 857.43 -8.72 863.38C-7.21 869.71 -5.75 876.11 -4.33 882.51C-3.03 888.4 -1.75 894.3 -0.51 900.19C0.85 906.61 2.15 913.02 3.42 919.36C4.6 925.34 5.76 931.25 6.87 937.07C8.12 943.6 9.31 950 10.45 956.25C11.28 960.81 12.08 965.27 12.85 969.63C13.1 971.09 13.37 972.56 13.62 973.99C14.79 980.72 15.89 987.15 16.9 993.21C17.96 999.56 18.94 1005.51 19.8 1010.96C20.99 1018.35 22 1024.82 22.81 1030.19C24.45 1040.93 25.32 1047.17 25.32 1047.17" id="d6zNKYhGn"></path><path d="M-123.06 799.97C-154.71 800.52 -166.83 780.38 -167.4 755.17C-161.21 756.73 -155.13 758.07 -149.49 758.52C-147.47 758.02 -131.33 753.96 -129.31 753.45C-129.31 753.45 -121.5 745.48 -99.64 740.11C-92.17 757.79 -93.13 799.48 -123.06 799.97" id="fYkQrE3t2"></path><path d="M-131.5 787.34C-150.51 786.06 -155.04 765.32 -155.04 765.32C-155.04 765.32 -155.43 752.04 -158.11 738.93C-159.18 733.73 -160.61 728.54 -162.53 724.21C-160 723.49 -147.33 719.88 -124.54 713.38C-121.26 712.44 -119.44 711.92 -119.07 711.82C-119.03 712.67 -118.89 713.76 -118.71 715.07C-117.98 719.92 -116.33 727.5 -114.65 734.77C-112.14 745.44 -109.54 755.5 -109.54 755.5C-109.54 755.5 -112.52 788.62 -131.5 787.34" id="a7yM5oh4L"></path><path d="M-114.65 734.77C-123.59 746.33 -136.34 747.27 -158.11 738.93C-159.18 733.73 -160.61 728.54 -162.53 724.21C-158.73 723.13 -128.34 714.46 -124.54 713.38C-122.44 713.87 -120.48 714.41 -118.71 715.07C-117.98 719.92 -116.33 727.5 -114.65 734.77" id="f1jeduIPRE"></path><path d="M-184.7 692.72C-185.39 699.44 -190.93 704.37 -197.05 703.73C-203.18 703.1 -207.59 697.14 -206.89 690.42C-206.19 683.7 -200.66 678.77 -194.53 679.41C-188.41 680.04 -184 686 -184.7 692.72" id="b3euzKCfR4"></path><path d="M-90.29 674.68C-90.98 681.4 -96.52 686.33 -102.64 685.69C-108.77 685.06 -113.18 679.1 -112.48 672.38C-111.78 665.67 -106.25 660.74 -100.12 661.37C-93.99 662.01 -89.59 667.97 -90.29 674.68" id="b2ee0DmTwJ"></path><path d="M-109.71 701.65C-115.9 715.18 -124.76 725.61 -133.75 730.98C-139.04 734.15 -144.35 735.59 -149.19 734.89C-174.42 731.25 -187.19 711.27 -193.59 693.82C-197.32 683.67 -198.89 674.37 -199.51 669.63C-199.78 667.54 -199.86 666.34 -199.86 666.34C-199.86 666.34 -183.78 659.4 -178.4 643.06C-170.18 649.74 -127.43 655.4 -103.26 644.38C-98.95 665.7 -102.48 685.81 -109.71 701.65" id="cWHc02vGV"></path><path d="M-109.71 701.65C-105.8 684.79 -103.46 664.62 -106.99 660.95C-112.54 655.19 -171.81 655.73 -171.81 655.73C-171.81 655.73 -185.28 664.88 -199.51 669.63C-199.78 667.54 -199.86 666.34 -199.86 666.34C-199.86 666.34 -183.78 659.4 -178.4 643.06C-170.18 649.74 -127.43 655.4 -103.26 644.38C-98.95 665.7 -102.48 685.81 -109.71 701.65" id="bCN6WcnCb"></path><path d="M-165.76 680.59C-165.37 683.77 -166.82 686.56 -169 686.83C-171.17 687.09 -173.24 684.72 -173.63 681.54C-174.01 678.35 -172.56 675.56 -170.39 675.3C-168.22 675.03 -166.15 677.4 -165.76 680.59" id="b2SEoxPJ99"></path><path d="M-123.04 673.1C-122.65 676.29 -124.1 679.08 -126.28 679.35C-128.45 679.61 -130.52 677.24 -130.91 674.06C-131.3 670.87 -129.85 668.08 -127.67 667.82C-125.5 667.55 -123.43 669.92 -123.04 673.1" id="a1qMG5xWD"></path><path d="M-148.94 674.39C-148.95 674.62 -148.95 674.85 -148.95 675.08C-148.96 677.1 -148.51 678.77 -147.82 680.16C-146.79 682.24 -145.25 683.67 -143.95 684.92C-143.31 685.54 -142.72 686.12 -142.26 686.69C-141.81 687.26 -141.5 687.81 -141.34 688.39C-141.22 688.87 -141.17 689.32 -141.17 689.75C-141.16 691.1 -141.71 692.28 -142.45 693.12C-143.18 693.96 -144.12 694.4 -144.68 694.38C-144.69 694.38 -144.79 694.38 -144.81 694.38C-145.3 694.32 -145.74 694.68 -145.79 695.18C-145.84 695.67 -145.49 696.11 -144.99 696.16C-144.96 696.16 -144.71 696.18 -144.68 696.18C-143.37 696.16 -142.11 695.43 -141.1 694.3C-140.1 693.18 -139.37 691.59 -139.37 689.75C-139.37 689.17 -139.44 688.56 -139.61 687.94C-139.93 686.73 -140.64 685.76 -141.44 684.9C-142.65 683.59 -144.1 682.43 -145.22 680.96C-146.33 679.47 -147.15 677.72 -147.16 675.08C-147.16 674.88 -147.15 674.68 -147.14 674.47C-147.12 673.98 -147.5 673.56 -148 673.53C-148.49 673.51 -148.91 673.89 -148.94 674.39" id="cgllwM9Qx"></path><path d="M-178.61 670.9C-178.61 670.9 -178.61 670.9 -178.61 670.89C-178.55 670.78 -177.74 669.45 -176.3 668.19C-174.86 666.92 -172.83 665.73 -170.26 665.73C-169.85 665.73 -169.41 665.76 -168.97 665.83C-168.48 665.9 -168.02 665.56 -167.95 665.07C-167.88 664.58 -168.21 664.13 -168.7 664.05C-169.24 663.97 -169.76 663.94 -170.26 663.94C-173.51 663.94 -176 665.48 -177.65 666.98C-179.29 668.48 -180.14 669.96 -180.17 670.01C-180.42 670.44 -180.27 670.99 -179.84 671.23C-179.41 671.48 -178.86 671.33 -178.61 670.9" id="a259m5XJsW"></path><path d="M-133.94 660.15L-134.17 659.96L-133.95 660.15L-133.94 660.15L-134.17 659.96C-134.04 660.08 -133.96 660.14 -133.95 660.15C-133.93 660.14 -133.48 659.62 -132.63 659.11C-131.78 658.61 -130.55 658.12 -128.93 658.12C-127.28 658.12 -125.2 658.62 -122.66 660.24C-122.24 660.51 -121.69 660.38 -121.42 659.96C-121.15 659.55 -121.28 658.99 -121.69 658.72C-124.47 656.96 -126.91 656.32 -128.93 656.32C-130.99 656.32 -132.58 656.98 -133.65 657.63C-134.72 658.29 -135.27 658.94 -135.32 659C-135.64 659.38 -135.59 659.94 -135.21 660.26C-134.83 660.58 -134.26 660.53 -133.94 660.15" id="a1FC2Ll2sX"></path><path d="M-147.55 715.35C-146.72 715.42 -145.92 715.46 -145.15 715.46C-141.02 715.46 -137.7 714.49 -135.28 713.1C-134.08 712.4 -133.1 711.6 -132.35 710.72C-131.62 709.85 -131.09 708.9 -130.92 707.84C-130.76 706.86 -131.43 705.94 -132.41 705.79C-133.39 705.63 -134.31 706.3 -134.46 707.27C-134.49 707.46 -134.66 707.9 -135.09 708.4C-135.73 709.16 -136.91 710.05 -138.6 710.72C-140.28 711.39 -142.47 711.87 -145.15 711.87C-145.82 711.87 -146.52 711.84 -147.24 711.77C-148.23 711.69 -149.1 712.42 -149.19 713.41C-149.27 714.4 -148.54 715.27 -147.55 715.35" id="bAKV26PWp"></path><path d="M-133.75 730.98C-139.04 734.15 -144.35 735.59 -149.19 734.89C-174.42 731.25 -187.19 711.27 -193.59 693.82C-188.68 696.26 -179.39 714.84 -166.52 722.64C-157.69 728 -145.35 731.78 -133.75 730.98" id="dMp4OEvzr"></path><path d="M-233.27 642.41C-232.99 646.61 -232.83 648.94 -232.8 649.41C-233.17 647.06 -233.33 644.73 -233.27 642.41" id="e23LRqJb9l"></path><path d="M-34.12 694.24C-36.99 689.2 -41.72 682.79 -48.97 677.97C-62.89 668.73 -63.99 651.68 -65.85 638.58C-67.72 625.48 -84.98 629.69 -83.94 617.36C-82.89 605.01 -92.71 577.49 -116.31 570.68C-139.92 563.84 -161.65 582.33 -166.53 594.5C-189.64 584.09 -222.37 603.79 -231.07 630.05C-231.48 594.01 -194.1 577.02 -170.44 583.97C-169.13 568.43 -146.02 556.06 -112.15 562.8C-78.28 569.54 -83.6 611.85 -69.25 620.25C-54.91 628.65 -60.26 653.46 -48.08 668.55C-42.75 675.15 -37.78 684.12 -34.12 694.24" id="a11DaZDVQG"></path><path d="M-247.6 882.93C-247.6 882.93 -247.6 882.93 -247.6 882.93C-249.24 876.58 -251.15 870.61 -253.37 865.4C-229.28 863.49 -36.6 848.17 -12.51 846.26C-11.05 852.05 -9.61 857.94 -8.2 863.9C-24.16 865.16 -103.96 871.51 -247.6 882.93" id="a17Z51DbET"></path><path d="M-240.84 919.84C-240.84 919.84 -240.84 919.84 -240.84 919.84C-241.56 914.07 -242.44 908.06 -243.5 902.08C-219.53 900.18 -27.78 884.93 -3.82 883.02C-2.51 888.91 -1.23 894.81 0.01 900.7C-16.05 901.97 -96.33 908.35 -240.84 919.84" id="aN1Mi4a3T"></path><path d="M-237.55 957.04C-237.55 957.04 -237.55 957.04 -237.55 957.04C-237.77 952.93 -238.14 946.67 -238.79 939.17C-214.52 937.24 -20.34 921.8 3.94 919.87C5.12 925.85 6.28 931.76 7.39 937.58C-8.94 938.88 -90.59 945.37 -237.55 957.04" id="a1pGbBp5Bq"></path><path d="M-223.56 993.38L-223.56 993.38L-231.25 976.02C-85.92 964.47 -5.18 958.05 10.97 956.76C11.8 961.32 12.59 965.78 13.37 970.14C13.62 971.6 13.89 973.07 14.14 974.5C-1.71 975.76 -80.94 982.05 -223.56 993.38" id="auUybn8u"></path><path d="M-207.49 1029.57L-207.49 1029.57L-215.19 1012.2C-75.63 1001.12 1.91 994.96 17.42 993.73C18.48 1000.07 19.45 1006.02 20.32 1011.47C5.13 1012.67 -70.8 1018.71 -207.49 1029.57" id="a1D8FIFhIR"></path><path d="M-191.8 1065.79C-191.8 1065.79 -191.8 1065.79 -191.8 1065.79C-192.79 1064.51 -193.67 1063.24 -194.46 1062C-197.87 1056.7 -199.69 1051.96 -200.64 1048.51C-178.25 1046.73 0.93 1032.48 23.33 1030.7C24.97 1041.44 25.84 1047.68 25.84 1047.68C25.84 1047.68 25.54 1047.99 24.96 1048.55C24.96 1048.55 24.96 1048.55 24.96 1048.55L-191.8 1065.79" id="b1oMCNtEeN"></path><path d="M1054.68 662.3C890.63 662.3 799.49 662.3 781.26 662.3C781.26 662.3 780.47 657.74 779.74 649.4C779.59 647.55 779.43 645.5 779.29 643.28C778.98 638.59 778.71 633.09 778.61 626.88C778.57 624.91 778.54 622.87 778.54 620.75C778.53 615.68 778.61 610.2 778.83 604.36C778.91 602.36 779.01 600.32 779.13 598.24C779.39 593.03 779.78 587.56 780.29 581.85C780.47 579.83 780.67 577.78 780.88 575.72C781 574.59 781.12 573.45 781.26 572.32C784.64 542.26 789.85 515.6 802.89 495.88C807.36 489.1 812.76 483.14 819.33 478.15C828.24 471.36 839.29 466.35 853.12 463.46C860.31 463.97 917.81 468.11 924.99 468.63C946.27 461.41 966.5 466.37 982.63 480.17C993.84 489.75 1003.06 503.62 1009.26 520.63C1009.96 522.56 1010.69 524.64 1011.47 526.81C1016.17 540.14 1021.94 557.7 1027.72 575.72C1028.37 577.76 1029.02 579.79 1029.68 581.85C1031.43 587.33 1033.18 592.85 1034.87 598.24C1035.52 600.31 1036.16 602.34 1036.8 604.36C1038.57 610.03 1040.29 615.53 1041.92 620.75C1042.57 622.84 1043.2 624.9 1043.82 626.88C1045.69 632.93 1047.39 638.47 1048.87 643.28C1049.55 645.47 1050.18 647.53 1050.75 649.4C1053.2 657.44 1054.68 662.3 1054.68 662.3" id="aqp4nULWd"></path><path d="M817.59 662.3C795.79 662.3 783.68 662.3 781.26 662.3C781.26 662.3 780.47 657.74 779.74 649.4C779.59 647.55 779.43 645.5 779.29 643.28C778.98 638.59 778.71 633.09 778.61 626.88C778.57 624.91 778.54 622.87 778.54 620.75C778.53 615.68 778.61 610.2 778.83 604.36C778.91 602.36 779.01 600.32 779.13 598.24C779.39 593.03 779.78 587.56 780.29 581.85C780.47 579.83 780.67 577.78 780.88 575.72C781 574.59 781.12 573.45 781.26 572.32C784.64 542.26 789.85 515.6 802.89 495.88C807.36 489.1 812.76 483.14 819.33 478.15C804.09 520.29 802.74 609.35 817.59 662.3" id="e1vH3N5zTu"></path><path d="M1054.68 662.3C1048.64 662.3 1045.29 662.3 1044.62 662.3C1031.51 642.84 1022.66 591.7 1015.28 568.58C1007.71 544.86 1005.07 523.92 1011.47 526.81C1027.13 571.26 1054.68 662.3 1054.68 662.3" id="c3KfufV8HB"></path><path d="M967.4 229.44C926.51 213.05 911.9 250.7 908.28 251.28C904.04 251.96 888.55 236.31 868.65 244.65C848.76 252.97 831.71 277.38 834.99 301.78C817.47 266.24 861.86 214.89 908.28 235.13C912.51 220.03 946.33 215.35 967.4 229.44" id="dKQAMqz08"></path><path d="M807.26 581.85C791.08 581.85 782.08 581.85 780.29 581.85C780.47 579.83 780.67 577.78 780.88 575.72C783.51 575.72 804.54 575.72 807.17 575.72C807.19 577.76 807.22 579.8 807.26 581.85" id="b25d3EVfk"></path><path d="M1029.68 581.85C1023.28 581.85 1019.72 581.85 1019.01 581.85C1018.46 579.71 1017.91 577.66 1017.38 575.72C1018.41 575.72 1026.68 575.72 1027.72 575.72C1028.37 577.76 1029.02 579.79 1029.68 581.85" id="ag6aG8mpr"></path><path d="M1036.7 604.03L1036.8 604.36L1036.7 604.03L1036.59 603.7L1036.49 603.37L1036.39 603.04L1036.49 603.37L1036.59 603.7L1036.7 604.03Z" id="aBwVebCcf"></path><path d="M808.33 604.36C790.63 604.36 780.8 604.36 778.83 604.36C778.91 602.36 779.01 600.32 779.13 598.24C782.01 598.24 805.05 598.24 807.93 598.24C808.05 600.29 808.18 602.33 808.33 604.36" id="abNrS08ex"></path><path d="M1036.8 604.36C1029.49 604.36 1025.43 604.36 1024.62 604.36C1024.11 602.3 1023.6 600.26 1023.11 598.24C1024.28 598.24 1033.69 598.24 1034.87 598.24C1035.38 599.86 1035.88 601.46 1036.38 603.04C1036.52 603.48 1036.66 603.92 1036.8 604.36" id="b8TyfDE1U"></path><path d="M887.66 627.56L887.71 627.75L888.13 629.08L888.6 630.58L888.13 629.08L887.71 627.75L887.65 627.56L887.18 626.01L886.69 624.46L886.69 624.46L887.18 626.02L887.66 627.56Z" id="fpM8SylQL"></path><path d="M810.61 626.88L778.61 626.88C778.61 626.88 778.61 626.88 778.61 626.88C778.57 624.91 778.54 622.87 778.54 620.75C781.67 620.75 806.72 620.75 809.86 620.75C810.09 622.81 810.34 624.85 810.61 626.88" id="d75j8sggg"></path><path d="M844.17 662.3C844.95 618.53 855.69 558.06 851.28 548.73C866.51 563.25 855.52 570.51 856.25 614.49C856.61 635.59 858.01 651.26 859.97 662.3C858.91 662.3 853.65 662.3 844.17 662.3" id="d1fKlunApJ"></path><path d="M1043.82 626.88C1035.86 626.88 1031.44 626.88 1030.56 626.88C1029.98 624.86 1029.41 622.81 1028.85 620.75C1030.16 620.75 1040.61 620.75 1041.92 620.75C1042.56 622.84 1043.2 624.89 1043.81 626.88" id="a1RhSEspqC"></path><path d="M1035.86 643.6L1035.92 643.75L1035.98 643.91L1036.04 644.07L1036.09 644.23L1036.15 644.39L1036.21 644.54L1036.26 644.7L1036.32 644.86L1036.38 645.01L1036.44 645.17L1036.5 645.33L1036.55 645.48L1036.61 645.64L1036.67 645.79L1036.73 645.95L1036.79 646.1L1036.84 646.25L1036.9 646.41L1036.96 646.56L1037.02 646.71L1037.08 646.87L1037.14 647.02L1037.19 647.17L1037.25 647.32L1037.31 647.47L1037.37 647.62L1037.43 647.77L1037.49 647.92L1037.55 648.07L1037.61 648.22L1037.66 648.37L1037.72 648.52L1037.78 648.67L1037.84 648.82L1037.9 648.96L1037.96 649.11L1038.02 649.26L1038.08 649.4L814.44 649.4L814.41 649.25L814.38 649.1L814.34 648.95L814.31 648.8L814.28 648.65L814.25 648.5L814.22 648.35L814.18 648.2L814.15 648.04L814.12 647.89L814.09 647.74L814.06 647.59L814.03 647.44L814 647.28L813.97 647.13L813.94 646.98L813.9 646.83L813.87 646.67L813.84 646.52L813.81 646.37L813.78 646.21L813.75 646.06L813.72 645.91L813.69 645.75L813.66 645.6L813.63 645.44L813.6 645.29L813.57 645.14L813.54 644.98L813.51 644.83L813.48 644.67L813.45 644.52L813.42 644.36L813.39 644.21L813.36 644.05L813.33 643.9L813.3 643.74L813.27 643.59L813.24 643.43L813.21 643.28L1035.75 643.28L1035.81 643.44L1035.86 643.6Z" id="avppNmLVf"></path><path d="M1019.01 581.85C891.96 581.85 821.38 581.85 807.26 581.85C807.22 579.8 807.19 577.76 807.17 575.72C828.19 575.72 996.36 575.72 1017.38 575.72C1017.91 577.66 1018.46 579.71 1019.01 581.85" id="g2AKHEm7bo"></path><path d="M982.63 480.17C962.7 479.52 942.68 496.02 917.97 503.39C881.46 514.27 854.94 477.1 847.68 473.01C842.06 469.85 826.59 475.9 802.89 495.88C813.44 479.89 829.12 468.47 853.12 463.46C860.31 463.97 917.81 468.11 924.99 468.63C946.27 461.41 966.5 466.37 982.63 480.17" id="g1aTLvAaO4"></path><path d="M903.26 494.44C883.04 493.27 864.73 482.05 856.4 472.24C855.02 470.62 853.92 469.05 853.12 467.57C847.46 457.02 855.4 456.69 869.01 442.74C873.36 442.74 908.17 442.74 912.53 442.74C912.53 442.74 921.77 454 929.03 463.06C932.09 466.88 934.81 470.32 936.33 472.33C941.43 479.13 926.81 495.8 903.26 494.44" id="e1awjIdtTz"></path><path d="M929.03 463.06C924.15 491.94 895.6 479.68 885.31 474.21C876.55 469.53 868.02 467.45 856.4 472.24C855.02 470.62 853.92 469.05 853.12 467.57C847.46 457.02 855.4 456.69 869.01 442.74C873.36 442.74 908.17 442.74 912.53 442.74C912.53 442.74 921.77 454 929.03 463.06" id="b3xymU4Hf0"></path><path d="M1006.73 326.61C998.05 348.71 971.03 346.16 971.03 346.16C965.42 347.32 937.38 353.1 886.91 363.5L879.2 381.19L871.03 383.68L859.7 378.24C851.6 368.03 847.11 362.36 846.21 361.23C834.24 363.13 812.24 330.5 824.03 311.17C826.32 307.43 829.86 304.18 834.99 301.78C817.47 266.24 861.86 214.89 908.28 235.13C912.51 220.03 946.33 215.35 967.4 229.44C979.35 237.43 987.2 251.46 983.27 273.05C988.9 271.93 994.3 274.94 998.71 280.27C1007.71 291.15 1012.55 311.76 1006.73 326.61" id="b1jKycy81I"></path><path d="M1006.73 326.61C998.05 348.71 971.03 346.16 971.03 346.16C965.42 347.32 937.38 353.1 886.91 363.5L879.2 381.19L871.03 383.68L859.7 378.24C851.6 368.03 847.11 362.36 846.21 361.23C834.24 363.13 812.24 330.5 824.03 311.17C836.72 336.44 861.51 322.85 861.51 322.85C861.51 322.85 879.2 331.35 894.61 324.64C910.04 317.94 912.53 288.81 912.53 288.81C912.53 288.81 977.58 315.11 998.71 280.27C1007.71 291.15 1012.55 311.76 1006.73 326.61" id="imkoNhGXf"></path><path d="M924.13 458.45C924.5 461.61 924.99 463.48 924.99 463.48C924.99 463.48 921.37 476.64 908.28 475.96C895.2 475.29 868.54 460.09 867.64 453.97C867.48 452.91 867.65 450.98 868.04 448.42C868.96 442.19 871.14 432.26 872.91 422.39C874.59 412.95 875.9 403.56 875.35 397.51C881.18 399.78 927.79 417.91 933.61 420.18C928.87 426.75 926.29 433.58 924.97 439.81C923.36 447.41 923.62 454.13 924.13 458.45" id="b4ZerFyCE"></path><path d="M933.61 420.18C928.87 426.75 926.29 433.58 924.97 439.81C911.54 441.52 894.69 434.87 872.91 422.39C874.59 412.95 875.9 403.56 875.35 397.51C879.23 399.02 898.65 406.58 933.61 420.18" id="eiloSR02J"></path><path d="M931.57 431.18C920.31 431.21 910.49 428.33 902.14 424.03C878.41 411.84 866.51 388.33 866.51 388.33C866.51 388.33 847.56 395.82 844.51 375.41C841.45 355.01 858.9 349 863.22 355.57C863.22 355.57 868.09 381.19 871.94 381.19C875.8 381.19 871.38 360.79 875.12 348.32C891.89 360.44 912.98 340.83 911.05 327.57C920.92 336.64 937.58 331.76 942.11 318.04C945.29 335.73 972.39 342.19 972.39 342.19C972.39 342.19 972.4 342.59 972.4 343.34C972.52 353.73 971.97 431.08 931.57 431.18" id="am8YwBV4w"></path><path d="M972.4 343.34C954.12 341.85 943.81 329.3 943.81 329.3C943.81 329.3 939.06 339.7 915.74 336.98C909.76 365.21 887.02 361.8 887.02 361.8C887.02 361.8 875.11 389.78 902.14 424.03C878.41 411.84 866.51 388.33 866.51 388.33C866.51 388.33 847.56 395.82 844.51 375.41C841.45 355.01 858.9 349 863.22 355.57C863.22 355.57 868.09 381.19 871.94 381.19C875.8 381.19 871.38 360.79 875.12 348.32C891.89 360.44 912.98 340.83 911.05 327.57C920.92 336.64 937.58 331.76 942.11 318.04C945.29 335.73 972.39 342.19 972.39 342.19C972.39 342.19 972.4 342.59 972.4 343.34" id="fOqT8p6do"></path><path d="M920.69 369.23C920.69 372.8 918.86 375.69 916.61 375.69C914.35 375.69 912.53 372.8 912.53 369.23C912.53 365.66 914.35 362.77 916.61 362.77C918.86 362.77 920.69 365.66 920.69 369.23" id="eTnrxE3Xw"></path><path d="M961.5 369.23C961.5 372.8 959.67 375.69 957.42 375.69C955.16 375.69 953.34 372.8 953.34 369.23C953.34 365.66 955.16 362.77 957.42 362.77C959.67 362.77 961.5 365.66 961.5 369.23" id="aKJHnPco"></path><path d="M909.21 356.98L909.13 356.89L909.21 356.98L909.21 356.98L909.13 356.89C909.18 356.94 909.2 356.97 909.21 356.98C909.25 356.93 910.1 356.14 911.48 355.39C912.88 354.63 914.79 353.91 917.03 353.91C918.69 353.91 920.53 354.29 922.55 355.38C923.2 355.73 924 355.49 924.35 354.84C924.7 354.2 924.46 353.39 923.81 353.04C921.42 351.74 919.11 351.24 917.03 351.24C914.13 351.25 911.72 352.2 910.05 353.14C908.37 354.08 907.41 355.01 907.35 355.07C906.82 355.58 906.81 356.43 907.33 356.95C907.84 357.48 908.68 357.49 909.21 356.98" id="a3ujLBzhK"></path><path d="M965.8 355.07C965.74 355.01 964.78 354.08 963.1 353.14C961.43 352.2 959.02 351.25 956.12 351.24C954.04 351.24 951.73 351.74 949.33 353.04C948.69 353.39 948.45 354.2 948.8 354.84C949.14 355.49 949.95 355.73 950.6 355.38C952.62 354.29 954.46 353.91 956.12 353.91C958.43 353.91 960.4 354.68 961.8 355.46C962.5 355.85 963.05 356.24 963.42 356.53C963.6 356.68 963.74 356.8 963.83 356.87C963.83 356.88 963.86 356.91 963.92 356.96L963.94 356.98L964.02 356.89L963.94 356.98L963.94 356.98L964.02 356.89C963.97 356.94 963.95 356.97 963.94 356.98C964.47 357.49 965.31 357.48 965.82 356.95C966.34 356.43 966.33 355.58 965.8 355.07" id="cuymtu6OV"></path><path d="M938.4 360.73C938.39 361.04 938.38 361.35 938.38 361.65C938.38 366.48 939.97 370.05 941.45 372.96C942.2 374.42 942.91 375.73 943.42 376.96C943.93 378.19 944.23 379.33 944.23 380.51C944.23 381.34 944.08 382.22 943.7 383.21C942.76 385.68 941.74 386.99 940.91 387.66C940.08 388.33 939.45 388.42 939 388.43C938.79 388.43 938.63 388.4 938.53 388.38C938.53 388.38 938.49 388.37 938.44 388.35L938.43 388.35L938.14 389.08L938.46 388.36L938.43 388.35L938.14 389.08C938.33 388.65 938.44 388.41 938.46 388.36C937.79 388.06 937 388.36 936.7 389.04C936.4 389.71 936.71 390.5 937.38 390.8C937.5 390.85 938.09 391.09 939 391.09C939.97 391.1 941.31 390.78 942.6 389.72C943.89 388.66 945.13 386.93 946.19 384.16C946.68 382.89 946.9 381.67 946.9 380.51C946.9 378.86 946.47 377.36 945.88 375.94C945 373.82 943.77 371.83 942.79 369.58C941.81 367.33 941.05 364.83 941.05 361.65C941.05 361.38 941.05 361.11 941.06 360.84C941.09 360.1 940.52 359.48 939.79 359.45C939.05 359.42 938.43 360 938.4 360.73" id="a1K2ZYKPG5"></path><path d="M918.13 404.55C920.75 410.02 925.46 412.75 929.95 412.75C933.59 412.75 937.1 410.93 939.07 407.54C939.44 406.9 939.22 406.08 938.59 405.72C937.95 405.34 937.14 405.56 936.77 406.2C935.28 408.75 932.73 410.07 929.95 410.08C926.53 410.07 922.78 408.06 920.53 403.4C920.21 402.73 919.41 402.46 918.75 402.78C918.09 403.09 917.81 403.89 918.13 404.55" id="ce1eOc3UX"></path><path d="M854.42 369.56C854.73 368.34 855.13 367.52 855.46 367.09C855.62 366.88 855.76 366.77 855.85 366.72C855.86 366.71 855.97 366.67 855.98 366.67C856 366.67 856.1 366.67 856.33 366.88C856.67 367.17 857.14 367.91 857.47 369.03C857.81 370.16 858.04 371.65 858.04 373.43C858.04 373.62 858.03 373.82 858.03 374.01C857.99 375.65 857.74 376.62 857.53 377.01C857.42 377.2 857.35 377.25 857.35 377.25C857.35 377.25 857.36 377.26 857.38 377.29L857.36 377.24L857.35 377.25L857.38 377.29L857.36 377.24L857.37 377.27L857.37 377.24L857.36 377.24L857.37 377.27L857.37 377.24C857.36 377.24 857.36 377.24 857.35 377.24C857.31 377.25 857.09 377.2 856.82 377.05C856.4 376.82 855.9 376.38 855.54 376.02C855.36 375.83 855.21 375.67 855.11 375.55C855.1 375.54 855.06 375.49 854.99 375.41L854.97 375.38C854.96 375.38 854.96 375.37 854.96 375.37C854.5 374.8 853.67 374.7 853.09 375.16C852.51 375.62 852.42 376.45 852.87 377.03C852.9 377.07 853.41 377.7 854.17 378.38C854.55 378.72 854.99 379.07 855.51 379.37C856.02 379.65 856.62 379.9 857.35 379.91C857.84 379.91 858.38 379.77 858.83 379.47C859.52 379 859.95 378.28 860.23 377.42C860.5 376.54 860.65 375.47 860.69 374.08C860.7 373.86 860.7 373.65 860.7 373.43C860.7 370.76 860.27 368.57 859.53 366.94C859.15 366.12 858.7 365.44 858.13 364.91C857.56 364.39 856.82 364.01 855.98 364.01C855.46 364 854.94 364.16 854.5 364.42C853.83 364.82 853.32 365.41 852.89 366.16C852.46 366.9 852.11 367.81 851.83 368.9C851.65 369.61 852.08 370.34 852.79 370.52C853.51 370.7 854.23 370.27 854.42 369.56" id="a32W8mWABi"></path><path d="M924.99 463.48C924.99 463.48 921.37 476.64 908.28 475.96C895.2 475.29 868.54 460.09 867.64 453.97C867.48 452.91 867.65 450.98 868.04 448.42C885.89 463.98 907.53 475.9 924.13 458.45C924.5 461.61 924.99 463.48 924.99 463.48" id="bVZd9Lqqn"></path><path d="M814.44 649.4L779.74 649.4C779.74 649.4 779.74 649.4 779.74 649.4C779.59 647.55 779.43 645.5 779.29 643.28C782.68 643.28 809.82 643.28 813.21 643.28C813.6 645.35 814.01 647.4 814.44 649.4" id="a2O7mLl0oj"></path><path d="M1050.75 649.4C1043.15 649.4 1038.92 649.4 1038.08 649.4C1037.29 647.45 1036.51 645.4 1035.75 643.28C1037.06 643.28 1047.56 643.28 1048.87 643.28C1048.87 643.29 1048.88 643.3 1048.88 643.32C1049.54 645.47 1050.16 647.48 1050.72 649.32C1050.73 649.35 1050.74 649.38 1050.75 649.4" id="a2uYmO8urk"></path><path d="M1015.28 662.3C1002.26 662.3 995.03 662.3 993.58 662.3C990.81 620.67 991.65 551.01 991.65 551.01C991.65 551.01 1000.72 578.46 1004.35 620.38C1005.79 637.07 1010.34 651.27 1015.28 662.3" id="e1F5Y6413z"></path><path d="M522.78 651.59C284.31 651.59 151.82 651.59 125.32 651.59C125.32 651.59 146.86 550.16 158.86 498.28C160.63 490.59 162.19 484 163.45 478.98C173.18 440.05 222.67 422.6 274.36 388.53C283.67 387.27 358.15 377.22 367.46 375.97C367.46 375.97 443.29 419.76 474.11 436C491.81 445.3 505.21 514.93 513.44 572.57C519.54 615.38 522.78 651.59 522.78 651.59" id="bCsscAS5c"></path><path d="M321.37 653.61C316.72 653.61 314.13 653.61 313.62 653.61C311.04 604.7 304.28 460.5 311.47 417.13C311.99 415.72 316.16 404.39 316.68 402.98C309.96 471.24 318.51 611.34 321.37 653.61" id="d5qDu37yiR"></path><path d="M513.64 574.6C490.4 562.61 492.08 502.02 478.64 471.68C464.05 438.69 433.75 420.85 377.82 414.84C321.88 408.82 323.88 398.85 286.94 411.46C250 424.06 166.85 471.79 159.05 500.31C160.83 492.62 162.39 486.03 163.65 481.01C173.38 442.07 222.86 424.63 274.55 390.56C283.86 389.3 358.35 379.25 367.66 377.99C367.66 377.99 443.49 421.79 474.31 438.02C492 447.33 505.41 516.95 513.64 574.6" id="czUnlDHt"></path><path d="M379.94 388.97C376.35 394.34 370.45 401.36 366.23 408.62C358.32 422.2 358.52 447.95 345.13 444.91C331.76 441.86 318.78 416.32 311.47 417.13C304.18 417.94 283.89 447.35 276.6 447.35C269.3 447.35 258.96 416.51 256.52 404.96C255.73 401.22 256.45 398.31 257.89 395.69C260.91 390.21 267.17 385.87 269.9 377.39C273.97 364.81 275.17 366.03 288.56 363.79C291.89 363.67 318.49 362.7 321.81 362.58C321.81 362.58 340.48 360.96 348.18 358.77C355.89 356.58 374.95 376.97 381.44 379.61C384.46 380.83 383.08 384.27 379.94 388.97" id="aTbMAR4vp"></path><path d="M379.94 388.97C368.99 380.23 351.42 386.55 340.87 398.23C328.1 412.4 319.65 411.45 319.65 411.45C319.65 411.45 333.98 394.21 328.71 386.92C324.27 380.76 285.42 391.18 257.89 395.69C260.91 390.21 267.17 385.87 269.9 377.39C273.97 364.81 275.17 366.03 288.56 363.79C291.89 363.67 318.49 362.7 321.81 362.58C321.81 362.58 340.48 360.96 348.18 358.77C355.89 356.58 374.95 376.97 381.44 379.61C384.46 380.83 383.08 384.27 379.94 388.97" id="c9e5vF6zTI"></path><path d="M411.59 201.14C411.29 201.97 410.97 202.78 410.64 203.59C399.28 231.17 371.29 259.16 365.21 279.44C359.13 299.71 353.04 322.03 324.66 303.36C315.37 297.56 241.06 251.17 231.78 245.37C211.57 229.51 197.8 195.52 193.57 160.59C192.29 149.98 191.87 139.27 192.44 128.96C202.26 133.68 209.43 142.19 209.87 142.72C209.27 141.43 191.73 103.16 211.98 65.29C212.09 65.47 212.19 65.64 212.3 65.82C222.31 82.55 234.51 93.3 261.39 94.9C288.56 96.52 379 83.94 387.12 141.13C413.88 143.1 421.55 174.11 411.59 201.14" id="aDrirMu5x"></path><path d="M411.59 201.14C411.29 201.97 410.97 202.78 410.64 203.59C399.28 231.17 371.29 259.16 365.21 279.44C359.13 299.71 353.04 322.03 324.66 303.36C315.37 297.56 241.06 251.17 231.78 245.37C211.57 229.51 197.8 195.52 193.57 160.59C215.99 174.08 241.1 161.83 274.55 169.53C268.69 161.42 269.09 138.7 269.09 138.7C269.09 138.7 289.28 154.92 320.56 160.6C350.31 166.01 392.85 158.08 411.59 201.14" id="d174a5Wtf3"></path><path d="M248.28 256.63C250.57 267.59 246.99 277.6 240.28 279.01C233.57 280.41 226.27 272.67 223.98 261.71C221.69 250.76 225.27 240.74 231.98 239.34C238.7 237.94 245.99 245.68 248.28 256.63" id="crMoyZiQF"></path><path d="M354.81 364.06C354.54 370.83 325.07 418.42 312.63 414.62C300.19 410.84 285.86 377.58 285.86 377.58C285.86 377.58 285.86 377.29 285.83 376.72C285.77 374.23 285.48 366.38 284.42 354.13C283.93 348.3 283.24 341.49 282.34 333.78C289.21 328.35 344.16 284.87 351.02 279.44C346.42 293.26 347.45 312.78 349.58 329.67C350.47 336.71 351.55 343.28 352.49 348.81C353.82 356.48 354.88 362.11 354.81 364.06" id="a5XJJpNQ"></path><path d="M349.58 329.67C328.91 358.85 303.59 364.12 284.42 354.13C283.93 348.3 283.24 341.49 282.34 333.78C289.21 328.35 344.16 284.87 351.02 279.44C346.42 293.26 347.45 312.78 349.58 329.67" id="aU98Rjd0t"></path><path d="M389.21 267.64C382.99 272.67 374.5 274.58 364.69 269.99C347.21 317.64 312.27 344.65 280.5 343.06C267.58 338.5 258.4 329.05 251.89 317.28C231.17 279.85 237.61 219.16 237.61 219.16C237.67 216.36 238 213.87 238.57 211.64C247.85 175.17 321.35 212.09 365.69 202.92C362.97 205.54 361.29 211.6 360.41 218.76C358.4 235.11 360.59 257.25 364.34 257.81C369.75 258.62 367.04 243.48 370.29 236.17C373.53 228.88 394.87 219.16 399.63 236.63C402.43 246.89 398.11 260.46 389.21 267.64" id="d1CaqLeJKD"></path><path d="M389.09 241.3C388.99 240.59 388.79 239.92 388.3 239.34C388.05 239.05 387.73 238.8 387.38 238.64C387.02 238.48 386.64 238.42 386.3 238.42C385.56 238.43 384.96 238.67 384.4 238.97C383.43 239.52 382.52 240.34 381.61 241.36C380.26 242.89 378.95 244.86 377.95 246.98C376.95 249.11 376.24 251.37 376.23 253.56C376.23 254.21 376.29 254.85 376.45 255.47C376.71 256.53 377.06 257.38 377.64 258.07C377.94 258.41 378.3 258.7 378.71 258.89C379.12 259.09 379.57 259.18 379.99 259.18C380.55 259.18 381.05 259.03 381.49 258.84C382.25 258.49 382.88 257.99 383.45 257.46C385.14 255.85 386.4 253.76 386.44 253.7C386.9 252.95 386.67 251.98 385.92 251.52C385.17 251.06 384.19 251.29 383.73 252.04C383.73 252.04 383.71 252.07 383.71 252.08C383.57 252.3 382.85 253.41 381.98 254.4C381.55 254.9 381.07 255.36 380.67 255.65C380.47 255.79 380.29 255.89 380.17 255.95C380.16 255.95 380.11 255.97 380.03 255.99L379.99 256L379.99 256.19L380.07 256.02L379.99 256L379.99 256.19L380.07 256.02L380.02 256.13L380.09 256.03L380.07 256.02L380.02 256.13L380.09 256.03C380.06 256 380.05 255.99 380.04 255.98C379.94 255.88 379.71 255.48 379.54 254.73C379.45 254.38 379.41 253.99 379.41 253.56C379.4 252.44 379.71 251.06 380.25 249.66C381.06 247.55 382.37 245.39 383.67 243.84C384.32 243.07 384.96 242.44 385.48 242.06C385.74 241.86 385.97 241.73 386.12 241.66C386.13 241.66 386.19 241.64 386.29 241.6L386.31 241.6L386.3 241.47L386.3 241.6L386.31 241.6L386.3 241.47L386.3 241.6L386.3 241.08L386.09 241.55L386.3 241.6L386.3 241.08L386.09 241.55L386.28 241.12L385.86 241.36L386.09 241.55L386.28 241.12C386.03 241.27 385.89 241.35 385.86 241.36C385.86 241.36 385.91 241.48 385.95 241.73C386.07 242.6 386.87 243.21 387.74 243.09C388.61 242.97 389.22 242.17 389.09 241.3" id="j2boLyZxKe"></path><path d="M280.93 242.24C281.41 242.65 281.81 243.29 282.1 244.21C282.38 245.13 282.53 246.3 282.53 247.65C282.53 250.74 281.74 254.7 280.47 258.6C279.54 261.49 277.74 264.58 276.12 267.45C275.32 268.89 274.56 270.28 273.98 271.61C273.4 272.95 272.98 274.22 272.97 275.56C272.96 276.62 273.31 277.77 274.13 278.63C275.98 280.59 278.44 281.56 280.42 282.12C282.4 282.66 283.94 282.77 284.01 282.78C284.88 282.84 285.64 282.18 285.7 281.3C285.77 280.43 285.11 279.67 284.23 279.61C284.23 279.61 284.2 279.6 284.19 279.6C283.94 279.58 282.55 279.44 280.95 278.96C279.35 278.49 277.56 277.66 276.45 276.46C276.24 276.22 276.16 276.04 276.15 275.56C276.14 274.97 276.39 274.01 276.89 272.88C277.63 271.16 278.87 269.06 280.13 266.8C281.39 264.54 282.67 262.1 283.49 259.58C284.83 255.45 285.7 251.26 285.71 247.65C285.71 246.07 285.54 244.6 285.13 243.28C284.73 241.95 284.06 240.75 283.03 239.85C282.36 239.27 281.36 239.33 280.78 240C280.21 240.65 280.27 241.66 280.93 242.24" id="a1RBUZPoOu"></path><path d="M320.56 250.94C320.56 255.49 318.13 259.17 315.13 259.17C312.13 259.17 309.7 255.49 309.7 250.94C309.7 246.38 312.13 242.7 315.13 242.7C318.13 242.7 320.56 246.38 320.56 250.94" id="cv0G4wm00"></path><path d="M261.75 252.88C261.75 257.43 259.32 261.12 256.32 261.12C253.32 261.12 250.89 257.43 250.89 252.88C250.89 248.33 253.32 244.64 256.32 244.64C259.32 244.64 261.75 248.33 261.75 252.88" id="bSDNZwZU0"></path><path d="M306.07 231.59C306.08 231.59 306.08 231.59 306.08 231.59C306.17 231.49 306.89 230.8 308.19 230.14C309.5 229.48 311.37 228.84 313.83 228.84C316.46 228.84 319.79 229.56 323.87 231.88C324.63 232.31 325.61 232.04 326.04 231.28C326.47 230.52 326.21 229.55 325.44 229.12C320.96 226.57 317.05 225.66 313.83 225.66C310.61 225.66 308.11 226.56 306.43 227.48C304.74 228.39 303.85 229.31 303.77 229.41C303.16 230.04 303.19 231.05 303.83 231.65C304.47 232.25 305.47 232.22 306.07 231.59" id="f1OnJiWv4"></path><path d="M247.18 235.86C247.18 235.85 247.18 235.85 247.18 235.85C247.27 235.77 248.46 234.59 250.34 233.46C252.23 232.33 254.79 231.27 257.62 231.28C260.05 231.29 262.72 232.01 265.62 234.27C266.31 234.81 267.3 234.69 267.85 234C268.39 233.31 268.27 232.31 267.57 231.77C264.18 229.11 260.72 228.09 257.62 228.1C253.88 228.11 250.72 229.51 248.5 230.87C246.28 232.23 244.97 233.58 244.9 233.64C244.29 234.27 244.31 235.28 244.94 235.89C245.57 236.5 246.57 236.49 247.18 235.86" id="c9mM9itNU"></path><path d="M286.21 307.41C290 309.37 294.05 310.33 297.95 310.33C302.42 310.33 306.7 309.06 310.09 306.56C313.48 304.06 315.94 300.28 316.7 295.51C316.84 294.64 316.25 293.82 315.38 293.68C314.52 293.54 313.7 294.13 313.56 295C312.91 298.99 310.96 301.95 308.2 304.01C305.43 306.05 301.82 307.15 297.95 307.15C294.57 307.15 291.01 306.32 287.67 304.59C286.89 304.19 285.93 304.49 285.53 305.27C285.12 306.05 285.43 307.01 286.21 307.41" id="b4dKlrkFgL"></path><path d="M365.69 202.92C362.97 205.54 361.29 211.6 360.41 218.76C342.67 226.48 317.13 213.87 296.4 208.32C275.03 202.62 254.54 202.45 238.57 211.64C247.85 175.17 321.35 212.09 365.69 202.92" id="ijGLJMahN"></path><path d="M364.69 269.99C347.21 317.64 312.27 344.65 280.5 343.06C267.58 338.5 258.4 329.05 251.89 317.28C286.58 339.42 315.44 338.88 364.69 269.99" id="bkhxg5Mwe"></path><path d="M354.81 364.06C354.54 370.83 325.07 418.42 312.63 414.62C300.19 410.84 285.86 377.58 285.86 377.58C285.86 377.58 285.86 377.29 285.83 376.72C292.54 390.21 300.35 400.29 315.12 401.1C331.49 402.01 348.5 372.24 352.49 348.81C353.82 356.48 354.88 362.11 354.81 364.06" id="d7dTbubII9"></path><path d="M208.84 653.61L200.09 653.61C204.66 588.91 207.2 552.96 207.71 545.77C207.71 545.77 188.25 480.32 207.71 507.37C225.95 532.7 214.78 600.67 208.84 653.61" id="c8OEMv6mp"></path><path d="M424.38 653.61C440.46 653.61 449.39 653.61 451.18 653.61C454.12 607.86 463.33 531.2 462.55 520.35C461.74 509 450.8 487.09 444.72 490.33C438.63 493.59 453.28 509 453.66 522.78C453.94 532.85 434.74 611.83 424.38 653.61" id="e2d7nb3Fsl"></path><path d="M387.12 141.13C386.54 142.16 386.02 143.18 385.56 144.16C385.43 142.94 385.27 141.65 385.08 140.32C379.41 98.96 309.25 108.69 264.23 107.07C222.53 105.56 211.46 88.06 212.3 65.82C222.31 82.55 234.51 93.3 261.39 94.9C288.56 96.52 379 83.94 387.12 141.13" id="hw2EV0y9P"></path></defs><g><g><g><use xlink:href="#c9ABll9iL" opacity="1" fill="#ffffff" fill-opacity="1"></use><g><use xlink:href="#c9ABll9iL" opacity="1" fill-opacity="0" stroke="#000000" stroke-width="1" stroke-opacity="0"></use></g></g><g><use xlink:href="#fo6sNQT0c" opacity="1" fill="#935755" fill-opacity="1"></use><g><use xlink:href="#fo6sNQT0c" opacity="1" fill-opacity="0" stroke="#000000" stroke-width="1" stroke-opacity="0"></use></g></g><g><use xlink:href="#clJlHYd3m" opacity="1" fill="#7f4646" fill-opacity="1"></use><g><use xlink:href="#clJlHYd3m" opacity="1" fill-opacity="0" stroke="#000000" stroke-width="1" stroke-opacity="0"></use></g></g><g><use xlink:href="#d6zNKYhGn" opacity="1" fill="#ce6f2e" fill-opacity="1"></use><g><use xlink:href="#d6zNKYhGn" opacity="1" fill-opacity="0" stroke="#000000" stroke-width="1" stroke-opacity="0"></use></g></g><g><use xlink:href="#fYkQrE3t2" opacity="1" fill="#87491f" fill-opacity="1"></use><g><use xlink:href="#fYkQrE3t2" opacity="1" fill-opacity="0" stroke="#000000" stroke-width="1" stroke-opacity="0"></use></g></g><g><use xlink:href="#a7yM5oh4L" opacity="1" fill="#fca897" fill-opacity="1"></use><g><use xlink:href="#a7yM5oh4L" opacity="1" fill-opacity="0" stroke="#000000" stroke-width="1" stroke-opacity="0"></use></g></g><g><use xlink:href="#f1jeduIPRE" opacity="1" fill="#ef9181" fill-opacity="1"></use><g><use xlink:href="#f1jeduIPRE" opacity="1" fill-opacity="0" stroke="#000000" stroke-width="1" stroke-opacity="0"></use></g></g><g><use xlink:href="#b3euzKCfR4" opacity="1" fill="#fca897" fill-opacity="1"></use><g><use xlink:href="#b3euzKCfR4" opacity="1" fill-opacity="0" stroke="#000000" stroke-width="1" stroke-opacity="0"></use></g></g><g><use xlink:href="#b2ee0DmTwJ" opacity="1" fill="#fca897" fill-opacity="1"></use><g><use xlink:href="#b2ee0DmTwJ" opacity="1" fill-opacity="0" stroke="#000000" stroke-width="1" stroke-opacity="0"></use></g></g><g><use xlink:href="#cWHc02vGV" opacity="1" fill="#fcc3b4" fill-opacity="1"></use><g><use xlink:href="#cWHc02vGV" opacity="1" fill-opacity="0" stroke="#000000" stroke-width="1" stroke-opacity="0"></use></g></g><g><use xlink:href="#bCN6WcnCb" opacity="1" fill="#fca897" fill-opacity="1"></use><g><use xlink:href="#bCN6WcnCb" opacity="1" fill-opacity="0" stroke="#000000" stroke-width="1" stroke-opacity="0"></use></g></g><g><use xlink:href="#b2SEoxPJ99" opacity="1" fill="#3f3b51" fill-opacity="1"></use><g><use xlink:href="#b2SEoxPJ99" opacity="1" fill-opacity="0" stroke="#000000" stroke-width="1" stroke-opacity="0"></use></g></g><g><use xlink:href="#a1qMG5xWD" opacity="1" fill="#3f3b51" fill-opacity="1"></use><g><use xlink:href="#a1qMG5xWD" opacity="1" fill-opacity="0" stroke="#000000" stroke-width="1" stroke-opacity="0"></use></g></g><g><use xlink:href="#cgllwM9Qx" opacity="1" fill="#e56e61" fill-opacity="1"></use><g><use xlink:href="#cgllwM9Qx" opacity="1" fill-opacity="0" stroke="#000000" stroke-width="1" stroke-opacity="0"></use></g></g><g><use xlink:href="#a259m5XJsW" opacity="1" fill="#3f3b51" fill-opacity="1"></use><g><use xlink:href="#a259m5XJsW" opacity="1" fill-opacity="0" stroke="#000000" stroke-width="1" stroke-opacity="0"></use></g></g><g><use xlink:href="#a1FC2Ll2sX" opacity="1" fill="#3f3b51" fill-opacity="1"></use><g><use xlink:href="#a1FC2Ll2sX" opacity="1" fill-opacity="0" stroke="#000000" stroke-width="1" stroke-opacity="0"></use></g></g><g><use xlink:href="#bAKV26PWp" opacity="1" fill="#f4586f" fill-opacity="1"></use><g><use xlink:href="#bAKV26PWp" opacity="1" fill-opacity="0" stroke="#000000" stroke-width="1" stroke-opacity="0"></use></g></g><g><use xlink:href="#dMp4OEvzr" opacity="1" fill="#ffd0c7" fill-opacity="1"></use><g><use xlink:href="#dMp4OEvzr" opacity="1" fill-opacity="0" stroke="#000000" stroke-width="1" stroke-opacity="0"></use></g></g><g><use xlink:href="#e23LRqJb9l" opacity="1" fill="#7f4646" fill-opacity="1"></use><g><use xlink:href="#e23LRqJb9l" opacity="1" fill-opacity="0" stroke="#000000" stroke-width="1" stroke-opacity="0"></use></g></g><g><use xlink:href="#a11DaZDVQG" opacity="1" fill="#af6868" fill-opacity="1"></use><g><use xlink:href="#a11DaZDVQG" opacity="1" fill-opacity="0" stroke="#000000" stroke-width="1" stroke-opacity="0"></use></g></g><g><use xlink:href="#a17Z51DbET" opacity="1" fill="#af5e27" fill-opacity="1"></use><g><use xlink:href="#a17Z51DbET" opacity="1" fill-opacity="0" stroke="#000000" stroke-width="1" stroke-opacity="0"></use></g></g><g><use xlink:href="#aN1Mi4a3T" opacity="1" fill="#af5e27" fill-opacity="1"></use><g><use xlink:href="#aN1Mi4a3T" opacity="1" fill-opacity="0" stroke="#000000" stroke-width="1" stroke-opacity="0"></use></g></g><g><use xlink:href="#a1pGbBp5Bq" opacity="1" fill="#af5e27" fill-opacity="1"></use><g><use xlink:href="#a1pGbBp5Bq" opacity="1" fill-opacity="0" stroke="#000000" stroke-width="1" stroke-opacity="0"></use></g></g><g><use xlink:href="#auUybn8u" opacity="1" fill="#af5e27" fill-opacity="1"></use><g><use xlink:href="#auUybn8u" opacity="1" fill-opacity="0" stroke="#000000" stroke-width="1" stroke-opacity="0"></use></g></g><g><use xlink:href="#a1D8FIFhIR" opacity="1" fill="#af5e27" fill-opacity="1"></use><g><use xlink:href="#a1D8FIFhIR" opacity="1" fill-opacity="0" stroke="#000000" stroke-width="1" stroke-opacity="0"></use></g></g><g><use xlink:href="#b1oMCNtEeN" opacity="1" fill="#af5e27" fill-opacity="1"></use><g><use xlink:href="#b1oMCNtEeN" opacity="1" fill-opacity="0" stroke="#000000" stroke-width="1" stroke-opacity="0"></use></g></g><g><use xlink:href="#aqp4nULWd" opacity="1" fill="#935755" fill-opacity="1"></use><g><use xlink:href="#aqp4nULWd" opacity="1" fill-opacity="0" stroke="#000000" stroke-width="1" stroke-opacity="0"></use></g></g><g><use xlink:href="#e1vH3N5zTu" opacity="1" fill="#874c4c" fill-opacity="1"></use><g><use xlink:href="#e1vH3N5zTu" opacity="1" fill-opacity="0" stroke="#000000" stroke-width="1" stroke-opacity="0"></use></g></g><g><use xlink:href="#c3KfufV8HB" opacity="1" fill="#a56a6a" fill-opacity="1"></use><g><use xlink:href="#c3KfufV8HB" opacity="1" fill-opacity="0" stroke="#000000" stroke-width="1" stroke-opacity="0"></use></g></g><g><use xlink:href="#dKQAMqz08" opacity="1" fill="#e28242" fill-opacity="1"></use><g><use xlink:href="#dKQAMqz08" opacity="1" fill-opacity="0" stroke="#000000" stroke-width="1" stroke-opacity="0"></use></g></g><g><use xlink:href="#b25d3EVfk" opacity="1" fill="#7b4444" fill-opacity="1"></use><g><use xlink:href="#b25d3EVfk" opacity="1" fill-opacity="0" stroke="#000000" stroke-width="1" stroke-opacity="0"></use></g></g><g><use xlink:href="#ag6aG8mpr" opacity="1" fill="#9c5f5f" fill-opacity="1"></use><g><use xlink:href="#ag6aG8mpr" opacity="1" fill-opacity="0" stroke="#000000" stroke-width="1" stroke-opacity="0"></use></g></g><g><use xlink:href="#aBwVebCcf" opacity="1" fill="#884e4c" fill-opacity="1"></use><g><use xlink:href="#aBwVebCcf" opacity="1" fill-opacity="0" stroke="#000000" stroke-width="1" stroke-opacity="0"></use></g></g><g><use xlink:href="#abNrS08ex" opacity="1" fill="#7b4444" fill-opacity="1"></use><g><use xlink:href="#abNrS08ex" opacity="1" fill-opacity="0" stroke="#000000" stroke-width="1" stroke-opacity="0"></use></g></g><g><use xlink:href="#b8TyfDE1U" opacity="1" fill="#9c5f5f" fill-opacity="1"></use><g><use xlink:href="#b8TyfDE1U" opacity="1" fill-opacity="0" stroke="#000000" stroke-width="1" stroke-opacity="0"></use></g></g><g><use xlink:href="#fpM8SylQL" opacity="1" fill="#884e4c" fill-opacity="1"></use><g><use xlink:href="#fpM8SylQL" opacity="1" fill-opacity="0" stroke="#000000" stroke-width="1" stroke-opacity="0"></use></g></g><g><use xlink:href="#d75j8sggg" opacity="1" fill="#7b4444" fill-opacity="1"></use><g><use xlink:href="#d75j8sggg" opacity="1" fill-opacity="0" stroke="#000000" stroke-width="1" stroke-opacity="0"></use></g></g><g><use xlink:href="#d1fKlunApJ" opacity="1" fill="#874c4c" fill-opacity="1"></use><g><use xlink:href="#d1fKlunApJ" opacity="1" fill-opacity="0" stroke="#000000" stroke-width="1" stroke-opacity="0"></use></g></g><g><use xlink:href="#a1RhSEspqC" opacity="1" fill="#9c5f5f" fill-opacity="1"></use><g><use xlink:href="#a1RhSEspqC" opacity="1" fill-opacity="0" stroke="#000000" stroke-width="1" stroke-opacity="0"></use></g></g><g><use xlink:href="#avppNmLVf" opacity="1" fill="#884e4c" fill-opacity="1"></use><g><use xlink:href="#avppNmLVf" opacity="1" fill-opacity="0" stroke="#000000" stroke-width="1" stroke-opacity="0"></use></g></g><g><use xlink:href="#g2AKHEm7bo" opacity="1" fill="#884e4c" fill-opacity="1"></use><g><use xlink:href="#g2AKHEm7bo" opacity="1" fill-opacity="0" stroke="#000000" stroke-width="1" stroke-opacity="0"></use></g></g><g><use xlink:href="#g1aTLvAaO4" opacity="1" fill="#874c4c" fill-opacity="1"></use><g><use xlink:href="#g1aTLvAaO4" opacity="1" fill-opacity="0" stroke="#000000" stroke-width="1" stroke-opacity="0"></use></g></g><g><use xlink:href="#e1awjIdtTz" opacity="1" fill="#6d5250" fill-opacity="1"></use><g><use xlink:href="#e1awjIdtTz" opacity="1" fill-opacity="0" stroke="#000000" stroke-width="1" stroke-opacity="0"></use></g></g><g><use xlink:href="#b3xymU4Hf0" opacity="1" fill="#604242" fill-opacity="1"></use><g><use xlink:href="#b3xymU4Hf0" opacity="1" fill-opacity="0" stroke="#000000" stroke-width="1" stroke-opacity="0"></use></g></g><g><use xlink:href="#b1jKycy81I" opacity="1" fill="#ce6f2e" fill-opacity="1"></use><g><use xlink:href="#b1jKycy81I" opacity="1" fill-opacity="0" stroke="#000000" stroke-width="1" stroke-opacity="0"></use></g></g><g><use xlink:href="#imkoNhGXf" opacity="1" fill="#b25b20" fill-opacity="1"></use><g><use xlink:href="#imkoNhGXf" opacity="1" fill-opacity="0" stroke="#000000" stroke-width="1" stroke-opacity="0"></use></g></g><g><use xlink:href="#b4ZerFyCE" opacity="1" fill="#fca897" fill-opacity="1"></use><g><use xlink:href="#b4ZerFyCE" opacity="1" fill-opacity="0" stroke="#000000" stroke-width="1" stroke-opacity="0"></use></g></g><g><use xlink:href="#eiloSR02J" opacity="1" fill="#ef9181" fill-opacity="1"></use><g><use xlink:href="#eiloSR02J" opacity="1" fill-opacity="0" stroke="#000000" stroke-width="1" stroke-opacity="0"></use></g></g><g><use xlink:href="#am8YwBV4w" opacity="1" fill="#fcc3b4" fill-opacity="1"></use><g><use xlink:href="#am8YwBV4w" opacity="1" fill-opacity="0" stroke="#000000" stroke-width="1" stroke-opacity="0"></use></g></g><g><use xlink:href="#fOqT8p6do" opacity="1" fill="#fca897" fill-opacity="1"></use><g><use xlink:href="#fOqT8p6do" opacity="1" fill-opacity="0" stroke="#000000" stroke-width="1" stroke-opacity="0"></use></g></g><g><use xlink:href="#eTnrxE3Xw" opacity="1" fill="#3f3b51" fill-opacity="1"></use><g><use xlink:href="#eTnrxE3Xw" opacity="1" fill-opacity="0" stroke="#000000" stroke-width="1" stroke-opacity="0"></use></g></g><g><use xlink:href="#aKJHnPco" opacity="1" fill="#3f3b51" fill-opacity="1"></use><g><use xlink:href="#aKJHnPco" opacity="1" fill-opacity="0" stroke="#000000" stroke-width="1" stroke-opacity="0"></use></g></g><g><use xlink:href="#a3ujLBzhK" opacity="1" fill="#ce6f2e" fill-opacity="1"></use><g><use xlink:href="#a3ujLBzhK" opacity="1" fill-opacity="0" stroke="#000000" stroke-width="1" stroke-opacity="0"></use></g></g><g><use xlink:href="#cuymtu6OV" opacity="1" fill="#ce6f2e" fill-opacity="1"></use><g><use xlink:href="#cuymtu6OV" opacity="1" fill-opacity="0" stroke="#000000" stroke-width="1" stroke-opacity="0"></use></g></g><g><use xlink:href="#a1K2ZYKPG5" opacity="1" fill="#e56e61" fill-opacity="1"></use><g><use xlink:href="#a1K2ZYKPG5" opacity="1" fill-opacity="0" stroke="#000000" stroke-width="1" stroke-opacity="0"></use></g></g><g><use xlink:href="#ce1eOc3UX" opacity="1" fill="#f4586f" fill-opacity="1"></use><g><use xlink:href="#ce1eOc3UX" opacity="1" fill-opacity="0" stroke="#000000" stroke-width="1" stroke-opacity="0"></use></g></g><g><use xlink:href="#a32W8mWABi" opacity="1" fill="#e56e61" fill-opacity="1"></use><g><use xlink:href="#a32W8mWABi" opacity="1" fill-opacity="0" stroke="#000000" stroke-width="1" stroke-opacity="0"></use></g></g><g><use xlink:href="#bVZd9Lqqn" opacity="1" fill="#ef9181" fill-opacity="1"></use><g><use xlink:href="#bVZd9Lqqn" opacity="1" fill-opacity="0" stroke="#000000" stroke-width="1" stroke-opacity="0"></use></g></g><g><use xlink:href="#a2O7mLl0oj" opacity="1" fill="#7b4444" fill-opacity="1"></use><g><use xlink:href="#a2O7mLl0oj" opacity="1" fill-opacity="0" stroke="#000000" stroke-width="1" stroke-opacity="0"></use></g></g><g><use xlink:href="#a2uYmO8urk" opacity="1" fill="#9c5f5f" fill-opacity="1"></use><g><use xlink:href="#a2uYmO8urk" opacity="1" fill-opacity="0" stroke="#000000" stroke-width="1" stroke-opacity="0"></use></g></g><g><use xlink:href="#e1F5Y6413z" opacity="1" fill="#874c4c" fill-opacity="1"></use><g><use xlink:href="#e1F5Y6413z" opacity="1" fill-opacity="0" stroke="#000000" stroke-width="1" stroke-opacity="0"></use></g></g><g><use xlink:href="#bCsscAS5c" opacity="1" fill="#515770" fill-opacity="1"></use><g><use xlink:href="#bCsscAS5c" opacity="1" fill-opacity="0" stroke="#000000" stroke-width="1" stroke-opacity="0"></use></g></g><g><use xlink:href="#d5qDu37yiR" opacity="1" fill="#3e455b" fill-opacity="1"></use><g><use xlink:href="#d5qDu37yiR" opacity="1" fill-opacity="0" stroke="#000000" stroke-width="1" stroke-opacity="0"></use></g></g><g><use xlink:href="#czUnlDHt" opacity="1" fill="#3e455b" fill-opacity="1"></use><g><use xlink:href="#czUnlDHt" opacity="1" fill-opacity="0" stroke="#000000" stroke-width="1" stroke-opacity="0"></use></g></g><g><use xlink:href="#aTbMAR4vp" opacity="1" fill="#6879af" fill-opacity="1"></use><g><use xlink:href="#aTbMAR4vp" opacity="1" fill-opacity="0" stroke="#000000" stroke-width="1" stroke-opacity="0"></use></g></g><g><use xlink:href="#c9e5vF6zTI" opacity="1" fill="#596c9b" fill-opacity="1"></use><g><use xlink:href="#c9e5vF6zTI" opacity="1" fill-opacity="0" stroke="#000000" stroke-width="1" stroke-opacity="0"></use></g></g><g><use xlink:href="#aDrirMu5x" opacity="1" fill="#3f3b51" fill-opacity="1"></use><g><use xlink:href="#aDrirMu5x" opacity="1" fill-opacity="0" stroke="#000000" stroke-width="1" stroke-opacity="0"></use></g></g><g><use xlink:href="#d174a5Wtf3" opacity="1" fill="#312f3d" fill-opacity="1"></use><g><use xlink:href="#d174a5Wtf3" opacity="1" fill-opacity="0" stroke="#000000" stroke-width="1" stroke-opacity="0"></use></g></g><g><use xlink:href="#crMoyZiQF" opacity="1" fill="#fca897" fill-opacity="1"></use><g><use xlink:href="#crMoyZiQF" opacity="1" fill-opacity="0" stroke="#000000" stroke-width="1" stroke-opacity="0"></use></g></g><g><use xlink:href="#a5XJJpNQ" opacity="1" fill="#fca897" fill-opacity="1"></use><g><use xlink:href="#a5XJJpNQ" opacity="1" fill-opacity="0" stroke="#000000" stroke-width="1" stroke-opacity="0"></use></g></g><g><use xlink:href="#aU98Rjd0t" opacity="1" fill="#ef9181" fill-opacity="1"></use><g><use xlink:href="#aU98Rjd0t" opacity="1" fill-opacity="0" stroke="#000000" stroke-width="1" stroke-opacity="0"></use></g></g><g><use xlink:href="#d1CaqLeJKD" opacity="1" fill="#fcc3b4" fill-opacity="1"></use><g><use xlink:href="#d1CaqLeJKD" opacity="1" fill-opacity="0" stroke="#000000" stroke-width="1" stroke-opacity="0"></use></g></g><g><use xlink:href="#j2boLyZxKe" opacity="1" fill="#e56e61" fill-opacity="1"></use><g><use xlink:href="#j2boLyZxKe" opacity="1" fill-opacity="0" stroke="#000000" stroke-width="1" stroke-opacity="0"></use></g></g><g><use xlink:href="#a1RBUZPoOu" opacity="1" fill="#e56e61" fill-opacity="1"></use><g><use xlink:href="#a1RBUZPoOu" opacity="1" fill-opacity="0" stroke="#000000" stroke-width="1" stroke-opacity="0"></use></g></g><g><use xlink:href="#cv0G4wm00" opacity="1" fill="#3f3b51" fill-opacity="1"></use><g><use xlink:href="#cv0G4wm00" opacity="1" fill-opacity="0" stroke="#000000" stroke-width="1" stroke-opacity="0"></use></g></g><g><use xlink:href="#bSDNZwZU0" opacity="1" fill="#3f3b51" fill-opacity="1"></use><g><use xlink:href="#bSDNZwZU0" opacity="1" fill-opacity="0" stroke="#000000" stroke-width="1" stroke-opacity="0"></use></g></g><g><use xlink:href="#f1OnJiWv4" opacity="1" fill="#3f3b51" fill-opacity="1"></use><g><use xlink:href="#f1OnJiWv4" opacity="1" fill-opacity="0" stroke="#000000" stroke-width="1" stroke-opacity="0"></use></g></g><g><use xlink:href="#c9mM9itNU" opacity="1" fill="#3f3b51" fill-opacity="1"></use><g><use xlink:href="#c9mM9itNU" opacity="1" fill-opacity="0" stroke="#000000" stroke-width="1" stroke-opacity="0"></use></g></g><g><use xlink:href="#b4dKlrkFgL" opacity="1" fill="#f4586f" fill-opacity="1"></use><g><use xlink:href="#b4dKlrkFgL" opacity="1" fill-opacity="0" stroke="#000000" stroke-width="1" stroke-opacity="0"></use></g></g><g><use xlink:href="#ijGLJMahN" opacity="1" fill="#fca897" fill-opacity="1"></use><g><use xlink:href="#ijGLJMahN" opacity="1" fill-opacity="0" stroke="#000000" stroke-width="1" stroke-opacity="0"></use></g></g><g><use xlink:href="#bkhxg5Mwe" opacity="1" fill="#ffd0c7" fill-opacity="1"></use><g><use xlink:href="#bkhxg5Mwe" opacity="1" fill-opacity="0" stroke="#000000" stroke-width="1" stroke-opacity="0"></use></g></g><g><use xlink:href="#d7dTbubII9" opacity="1" fill="#ef9181" fill-opacity="1"></use><g><use xlink:href="#d7dTbubII9" opacity="1" fill-opacity="0" stroke="#000000" stroke-width="1" stroke-opacity="0"></use></g></g><g><use xlink:href="#c8OEMv6mp" opacity="1" fill="#3e455b" fill-opacity="1"></use><g><use xlink:href="#c8OEMv6mp" opacity="1" fill-opacity="0" stroke="#000000" stroke-width="1" stroke-opacity="0"></use></g></g><g><use xlink:href="#e2d7nb3Fsl" opacity="1" fill="#3e455b" fill-opacity="1"></use><g><use xlink:href="#e2d7nb3Fsl" opacity="1" fill-opacity="0" stroke="#000000" stroke-width="1" stroke-opacity="0"></use></g></g><g><use xlink:href="#hw2EV0y9P" opacity="1" fill="#565272" fill-opacity="1"></use><g><use xlink:href="#hw2EV0y9P" opacity="1" fill-opacity="0" stroke="#000000" stroke-width="1" stroke-opacity="0"></use></g></g></g></g></svg>