<?xml version="1.0" encoding="UTF-8" standalone="no"?>
<!DOCTYPE svg PUBLIC "-//W3C//DTD SVG 1.1//EN" "http://www.w3.org/Graphics/SVG/1.1/DTD/svg11.dtd">
<svg version="1.1" xmlns="http://www.w3.org/2000/svg" xmlns:xlink="http://www.w3.org/1999/xlink" preserveAspectRatio="xMidYMid meet" viewBox="0 0 640 640" width="640" height="640"><defs><path d="M900.92 196.37C908.82 197.31 913.21 197.83 914.09 197.93C914.09 197.93 915.16 206.2 910.27 205.75C905.37 205.3 900.92 196.37 900.92 196.37" id="d6oN4hDUt"></path><path d="M424.26 296.92C421.05 327.92 352.72 393.21 352.72 393.21C347.23 394.04 319.76 398.18 270.32 405.65C267.37 406.09 265.73 406.34 265.4 406.39C265.4 406.39 264.49 406.05 262.86 405.45C246.89 399.43 160.85 365.89 174.04 345.73C188.55 323.51 185.96 322.52 171.86 296.51C169.06 291.33 167.27 287.26 166.31 283.87C162.38 270.2 171.69 267.7 181.2 249.7C193.05 227.25 181.17 217.43 178.14 171.21C178.06 169.99 178.01 168.8 178.02 167.64C177.52 123.88 222.91 103.24 251.65 111.68C253.24 92.81 281.3 77.79 322.43 85.97C363.57 94.16 357.1 145.53 374.53 155.74C391.95 165.94 385.45 196.07 400.24 214.39C406.71 222.41 412.75 233.29 417.2 245.59C421 256.03 423.63 267.48 424.49 279.1C424.92 285.04 424.87 291.02 424.26 296.92" id="catw5EACi"></path><path d="M424.26 296.92C421.05 327.92 352.72 393.21 352.72 393.21C347.23 394.04 319.76 398.18 270.32 405.65C265.85 405.53 263.36 405.46 262.86 405.45C246.89 399.43 160.85 365.89 174.04 345.73C188.55 323.51 185.96 322.52 171.86 296.51C169.06 291.33 167.27 287.26 166.31 283.87C199.57 272.21 215.92 211.71 215.92 211.71C227.85 210.46 323.26 200.46 335.19 199.21C335.19 199.21 316.47 224.54 355.7 241.96C394.94 259.36 407.68 239.41 420.12 271.3C421.24 274.21 422.73 276.79 424.49 279.1C424.92 285.04 424.87 291.02 424.26 296.92" id="dCsTNCpS6"></path><path d="M206.65 652.19L98.57 640C133.02 517.61 148.73 456.14 145.7 455.57C144.6 455.37 162.85 355.96 183.17 325.6C199.03 301.86 228.3 312.14 255.34 318.95C262.86 320.86 270.24 322.48 277.08 323.03C279.53 322.41 299.15 317.48 301.6 316.87C301.6 316.87 311.08 307.19 337.63 300.68C348.32 298.06 361.78 295.95 378.49 295.18C402 294.11 424.72 355.72 443.43 429.58C445.21 436.62 446.96 443.77 448.67 451C450.5 458.68 452.28 466.44 453.99 474.22C455.58 481.37 457.13 488.54 458.64 495.69C460.29 503.48 461.87 511.27 463.41 518.97C464.85 526.23 466.25 533.41 467.6 540.48C469.12 548.4 470.56 556.19 471.95 563.77C472.95 569.3 473.92 574.72 474.86 580.01C475.17 581.79 475.49 583.57 475.8 585.32C477.22 593.49 478.55 601.3 479.78 608.66C481.07 616.36 482.25 623.59 483.3 630.2C484.74 639.18 485.97 647.04 486.96 653.56" id="a61TE6TFmc"></path><path d="M307.93 373.36C269.5 374.03 254.78 349.57 254.09 318.96C261.61 320.86 268.99 322.48 275.84 323.03C278.29 322.42 297.9 317.49 300.35 316.87C300.35 316.87 309.83 307.2 336.38 300.68C345.45 322.14 344.28 372.77 307.93 373.36" id="b3DNKTMfsQ"></path><path d="M298.93 358.65C275.85 357.09 270.35 331.9 270.35 331.9C270.35 331.9 269.87 315.78 266.62 299.86C265.32 293.54 263.58 287.24 261.25 281.98C264.33 281.11 279.71 276.72 307.38 268.83C311.37 267.69 313.58 267.06 314.03 266.93C314.07 267.97 314.24 269.3 314.47 270.88C315.35 276.78 317.36 285.98 319.4 294.8C322.44 307.77 325.61 319.98 325.61 319.98C325.61 319.98 321.99 360.21 298.93 358.65" id="b3SKu9IvyS"></path><path d="M319.4 294.8C308.54 308.85 293.06 309.99 266.62 299.86C265.32 293.54 263.58 287.24 261.25 281.98C265.87 280.67 302.77 270.15 307.38 268.83C309.93 269.42 312.32 270.09 314.47 270.88C315.35 276.78 317.36 285.98 319.4 294.8" id="c67sk5ZEW7"></path><path d="M234.33 243.74C233.49 251.9 226.77 257.89 219.33 257.11C211.89 256.34 206.54 249.11 207.38 240.95C208.23 232.79 214.95 226.81 222.39 227.58C229.83 228.35 235.18 235.59 234.33 243.74" id="e8wIVJeaYo"></path><path d="M348.98 221.84C348.14 230 341.42 235.98 333.98 235.21C326.54 234.44 321.19 227.2 322.03 219.05C322.88 210.89 329.6 204.91 337.04 205.68C344.48 206.45 349.83 213.69 348.98 221.84" id="b1uJEjmsDe"></path><path d="M325.39 254.58C317.88 271.01 307.12 283.69 296.2 290.21C289.78 294.06 283.32 295.8 277.45 294.95C246.82 290.53 231.31 266.27 223.54 245.08C219 232.75 217.1 221.46 216.34 215.7C216.01 213.17 215.92 211.71 215.92 211.71C215.92 211.71 235.45 203.28 241.98 183.44C251.97 191.55 303.87 198.42 333.23 185.04C338.47 210.93 334.18 235.35 325.39 254.58" id="a1sHVol2pI"></path><path d="M325.39 254.58C330.14 234.12 332.99 209.62 328.69 205.16C321.96 198.17 249.99 198.82 249.99 198.82C249.99 198.82 233.62 209.93 216.34 215.7C216.01 213.17 215.92 211.71 215.92 211.71C215.92 211.71 235.45 203.28 241.98 183.44C251.97 191.55 303.87 198.42 333.23 185.04C338.47 210.93 334.18 235.35 325.39 254.58" id="jZg0FKQTT"></path><path d="M257.33 229.01C257.8 232.87 256.04 236.27 253.4 236.59C250.76 236.91 248.24 234.03 247.78 230.16C247.31 226.3 249.07 222.9 251.7 222.58C254.34 222.27 256.86 225.14 257.33 229.01" id="c1gbtCXz1p"></path><path d="M309.21 219.92C309.68 223.79 307.92 227.18 305.28 227.5C302.64 227.82 300.12 224.95 299.65 221.08C299.18 217.21 300.94 213.82 303.58 213.5C306.22 213.18 308.74 216.06 309.21 219.92" id="i2y3IunnQn"></path><path d="M277.76 221.48C277.75 221.77 277.74 222.05 277.74 222.32C277.74 224.78 278.28 226.8 279.11 228.49C280.37 231.02 282.24 232.76 283.81 234.27C284.6 235.03 285.31 235.73 285.86 236.42C286.41 237.11 286.79 237.78 286.98 238.49C287.13 239.06 287.2 239.61 287.2 240.14C287.2 241.78 286.54 243.21 285.64 244.22C284.75 245.25 283.6 245.78 282.93 245.76C282.91 245.76 282.79 245.75 282.78 245.75C282.18 245.69 281.64 246.13 281.58 246.73C281.52 247.32 281.95 247.86 282.55 247.92C282.59 247.92 282.89 247.94 282.93 247.94C284.52 247.92 286.05 247.03 287.27 245.67C288.49 244.3 289.38 242.37 289.38 240.14C289.38 239.43 289.29 238.69 289.09 237.94C288.7 236.47 287.84 235.3 286.86 234.24C285.39 232.66 283.63 231.25 282.28 229.46C280.92 227.66 279.93 225.53 279.92 222.32C279.92 222.08 279.93 221.84 279.94 221.59C279.97 220.98 279.5 220.47 278.9 220.45C278.3 220.42 277.79 220.88 277.76 221.48" id="b6HQeZCNv"></path><path d="M241.72 217.25C241.72 217.24 241.72 217.24 241.72 217.24C241.8 217.1 242.79 215.49 244.53 213.95C246.28 212.41 248.74 210.97 251.87 210.97C252.37 210.97 252.89 211.01 253.44 211.09C254.03 211.18 254.59 210.76 254.67 210.17C254.76 209.57 254.35 209.02 253.76 208.93C253.11 208.83 252.48 208.79 251.87 208.79C247.92 208.79 244.89 210.67 242.9 212.49C240.89 214.31 239.87 216.1 239.83 216.16C239.53 216.68 239.71 217.35 240.23 217.65C240.75 217.95 241.42 217.77 241.72 217.25" id="aPrrs7t9"></path><path d="M295.97 204.19L295.69 203.96L295.96 204.2L295.97 204.19L295.69 203.96C295.85 204.1 295.95 204.18 295.96 204.2C295.98 204.18 296.53 203.54 297.56 202.93C298.6 202.32 300.09 201.73 302.06 201.73C304.06 201.73 306.58 202.34 309.67 204.3C310.18 204.62 310.85 204.47 311.18 203.97C311.5 203.46 311.35 202.78 310.84 202.46C307.47 200.31 304.51 199.54 302.06 199.55C299.56 199.54 297.62 200.34 296.33 201.13C295.03 201.93 294.35 202.73 294.3 202.79C293.91 203.25 293.97 203.94 294.43 204.33C294.89 204.71 295.58 204.65 295.97 204.19" id="d15yYZIYE1"></path><path d="M279.44 271.23C280.45 271.31 281.42 271.35 282.36 271.35C287.38 271.35 291.41 270.18 294.34 268.49C295.8 267.64 296.99 266.67 297.9 265.61C298.79 264.54 299.43 263.4 299.64 262.11C299.83 260.92 299.02 259.8 297.83 259.61C296.65 259.42 295.53 260.23 295.34 261.42C295.31 261.64 295.1 262.17 294.57 262.78C293.8 263.71 292.36 264.79 290.32 265.6C288.27 266.42 285.61 266.99 282.36 266.99C281.55 266.99 280.7 266.96 279.82 266.88C278.62 266.78 277.56 267.67 277.45 268.87C277.35 270.07 278.24 271.12 279.44 271.23" id="h7OnlllXhC"></path><path d="M296.2 290.21C289.78 294.06 283.32 295.8 277.45 294.95C246.82 290.53 231.31 266.27 223.54 245.08C229.5 248.04 240.77 270.61 256.41 280.08C267.14 286.58 282.11 291.18 296.2 290.21" id="e3tagA18V"></path><path d="M175.35 182.65C175.69 187.75 175.88 190.58 175.92 191.15C175.47 188.29 175.28 185.47 175.35 182.65" id="a74qVaXbTV"></path><path d="M417.2 245.59C413.71 239.47 407.96 231.68 399.16 225.84C382.26 214.61 380.92 193.91 378.66 178C376.39 162.09 355.43 167.2 356.69 152.22C357.96 137.23 346.04 103.81 317.38 95.53C288.71 87.23 262.32 109.69 256.4 124.47C228.33 111.82 188.58 135.74 178.02 167.64C177.52 123.88 222.91 103.24 251.65 111.68C253.24 92.81 281.3 77.79 322.43 85.97C363.57 94.16 357.1 145.53 374.53 155.74C391.95 165.94 385.45 196.07 400.24 214.39C406.71 222.41 412.75 233.29 417.2 245.59" id="k1df7ePHO3"></path><path d="M157.72 474.84C148.27 477.47 143.54 478.78 143.54 478.78C141.55 471.06 147.89 459.88 145.2 453.56C174.45 451.23 413.95 432.64 443.2 430.31C444.98 437.35 446.73 444.5 448.44 451.73" id="m3avsmb9vG"></path><path d="M166.15 518.66C143.58 519.28 132.29 519.59 132.29 519.59C131.42 512.58 137.44 504.36 136.16 497.1C165.26 494.79 424.89 476.27 453.99 473.95C455.58 481.1 457.13 488.27 458.64 495.42" id="dQsyJZTfX"></path><path d="M119.79 564.73C119.79 564.73 119.79 564.73 119.79 564.73C119.48 559.73 123.7 554.5 122.77 545.4C157.24 543.05 428.23 521.93 462.7 519.59C464.38 526.85 466.03 534.03 467.6 541.1C444.41 542.67 328.47 550.55 119.79 564.73" id="a3QZY200ii"></path><path d="M108.59 609.2L108.59 609.2L113.34 588.12C326.06 574.09 444.86 566.29 469.73 564.73C471 570.26 472.23 575.68 473.42 580.97C473.81 582.75 474.22 584.53 474.61 586.28C450.21 587.8 328.2 595.45 108.59 609.2" id="a5TVfhgZ2p"></path><path d="M98.84 652.81L98.84 652.81L98.57 634.09C325.62 619.04 452.23 610.77 478.4 609.28C480.2 616.98 481.84 624.21 483.3 630.82C457.67 632.29 329.52 639.62 98.84 652.81" id="a8sUjZKVQ"></path><path d="M1222.07 813.41C1004.55 813.41 883.7 813.41 859.53 813.41C859.53 813.41 858.49 807.37 857.52 796.31C857.32 793.86 857.11 791.14 856.92 788.19C856.51 781.97 856.16 774.68 856.02 766.45C855.97 763.83 855.93 761.13 855.93 758.32C855.91 751.59 856.02 744.33 856.32 736.58C856.42 733.93 856.55 731.23 856.71 728.48C857.06 721.57 857.57 714.31 858.24 706.73C858.49 704.07 858.76 701.35 859.04 698.61C859.2 697.11 859.36 695.61 859.53 694.11C864.02 654.24 870.92 618.9 888.21 592.75C894.15 583.76 901.3 575.86 910.01 569.24C921.82 560.23 936.48 553.59 954.82 549.76C964.35 550.45 1040.59 555.93 1050.12 556.61C1078.32 547.04 1105.15 553.63 1126.54 571.93C1141.41 584.62 1153.63 603.01 1161.84 625.56C1162.78 628.12 1163.75 630.88 1164.77 633.76C1171.01 651.44 1178.65 674.71 1186.32 698.61C1187.19 701.31 1188.05 704.01 1188.92 706.73C1191.25 714.01 1193.56 721.32 1195.8 728.48C1196.67 731.21 1197.52 733.91 1198.36 736.58C1200.71 744.11 1202.99 751.4 1205.15 758.32C1206.01 761.1 1206.84 763.82 1207.67 766.45C1210.14 774.47 1212.41 781.81 1214.37 788.19C1215.27 791.1 1216.1 793.82 1216.86 796.31C1220.11 806.96 1222.07 813.41 1222.07 813.41" id="bmo6cu6KQ"></path><path d="M907.71 813.41C878.8 813.41 862.74 813.41 859.53 813.41C859.53 813.41 858.49 807.37 857.52 796.31C857.32 793.86 857.11 791.14 856.92 788.19C856.51 781.97 856.16 774.68 856.02 766.45C855.97 763.83 855.93 761.13 855.93 758.32C855.91 751.59 856.02 744.33 856.32 736.58C856.42 733.93 856.55 731.23 856.71 728.48C857.06 721.57 857.57 714.31 858.24 706.73C858.49 704.07 858.76 701.35 859.04 698.61C859.2 697.11 859.36 695.61 859.53 694.11C864.02 654.24 870.92 618.9 888.21 592.75C894.15 583.76 901.3 575.86 910.01 569.24C889.8 625.12 888.02 743.2 907.71 813.41" id="cMW3Z2bLd"></path><path d="M1222.07 813.41C1214.07 813.41 1209.62 813.41 1208.73 813.41C1191.35 787.6 1179.61 719.8 1169.82 689.14C1159.79 657.69 1156.3 629.93 1164.77 633.76C1185.54 692.69 1222.07 813.41 1222.07 813.41" id="b7MMJqucK"></path><path d="M1106.35 239.47C1052.13 217.75 1032.75 267.66 1027.95 268.43C1022.33 269.33 1001.79 248.58 975.41 259.64C949.04 270.68 926.43 303.03 930.78 335.39C907.55 288.27 966.4 220.18 1027.95 247.01C1033.57 227 1078.41 220.78 1106.35 239.47" id="dt7tmakoZ"></path><path d="M894.01 706.73C872.55 706.73 860.63 706.73 858.24 706.73C858.49 704.07 858.76 701.35 859.04 698.61C862.52 698.61 890.4 698.61 893.89 698.61C893.91 701.32 893.95 704.02 894.01 706.73" id="f76uio8m0c"></path><path d="M1188.92 706.73C1180.43 706.73 1175.72 706.73 1174.77 706.73C1174.04 703.9 1173.32 701.18 1172.61 698.61C1173.98 698.61 1184.95 698.61 1186.32 698.61C1187.19 701.31 1188.05 704.01 1188.92 706.73" id="h1wzhxNva4"></path><path d="M1198.09 735.71L1198.23 736.15L1198.36 736.58L1198.22 736.15L1198.09 735.71L1197.95 735.28L1197.81 734.84L1197.95 735.28L1198.09 735.71Z" id="bma50BUwp"></path><path d="M895.43 736.58C871.96 736.58 858.93 736.58 856.32 736.58C856.42 733.93 856.55 731.23 856.71 728.48C860.52 728.48 891.07 728.48 894.89 728.48C895.05 731.19 895.23 733.89 895.43 736.58" id="ikbLkYUDq"></path><path d="M1198.36 736.58C1188.67 736.58 1183.29 736.58 1182.21 736.58C1181.53 733.85 1180.86 731.15 1180.21 728.48C1181.76 728.48 1194.24 728.48 1195.8 728.48C1196.48 730.62 1197.15 732.74 1197.81 734.84C1197.99 735.42 1198.18 736 1198.36 736.58" id="i1ak5bmOX"></path><path d="M1000.61 767.35L1000.69 767.6L1001.23 769.36L1001.86 771.36L1001.23 769.37L1000.69 767.6L1000.61 767.34L999.97 765.3L999.33 763.23L999.33 763.23L999.97 765.3L1000.61 767.35Z" id="c1TtHcEoCF"></path><path d="M898.45 766.45L856.02 766.45C856.02 766.45 856.02 766.45 856.02 766.45C855.97 763.83 855.93 761.13 855.93 758.32C860.08 758.32 893.3 758.32 897.45 758.32C897.77 761.06 898.1 763.76 898.45 766.45" id="aSl3xolXE"></path><path d="M942.93 813.41C943.97 755.37 958.21 675.19 952.36 662.83C972.55 682.08 957.98 691.7 958.95 750.02C959.43 778 961.28 798.77 963.88 813.41C962.48 813.41 955.5 813.41 942.93 813.41" id="a7IhLAKOV"></path><path d="M1207.67 766.45C1197.12 766.45 1191.26 766.45 1190.09 766.45C1189.32 763.77 1188.57 761.05 1187.83 758.32C1189.56 758.32 1203.41 758.32 1205.15 758.32C1206 761.09 1206.85 763.81 1207.66 766.45" id="c2OS29nY8"></path><path d="M1197.12 788.61L1197.2 788.82L1197.27 789.03L1197.35 789.24L1197.42 789.45L1197.5 789.66L1197.58 789.87L1197.65 790.08L1197.73 790.28L1197.81 790.49L1197.88 790.7L1197.96 790.9L1198.04 791.11L1198.11 791.32L1198.19 791.52L1198.27 791.73L1198.34 791.93L1198.42 792.13L1198.5 792.34L1198.57 792.54L1198.65 792.74L1198.73 792.95L1198.81 793.15L1198.88 793.35L1198.96 793.55L1199.04 793.75L1199.12 793.95L1199.2 794.15L1199.27 794.35L1199.35 794.55L1199.43 794.74L1199.51 794.94L1199.59 795.14L1199.67 795.34L1199.74 795.53L1199.82 795.73L1199.9 795.92L1199.98 796.12L1200.06 796.31L903.53 796.31L903.49 796.11L903.44 795.91L903.4 795.71L903.36 795.51L903.32 795.31L903.28 795.11L903.23 794.91L903.19 794.71L903.15 794.51L903.11 794.31L903.07 794.11L903.03 793.9L902.98 793.7L902.94 793.5L902.9 793.3L902.86 793.1L902.82 792.89L902.78 792.69L902.74 792.49L902.7 792.28L902.66 792.08L902.62 791.88L902.58 791.67L902.54 791.47L902.5 791.27L902.45 791.06L902.41 790.86L902.38 790.65L902.34 790.45L902.3 790.24L902.26 790.04L902.22 789.83L902.18 789.63L902.14 789.42L902.1 789.22L902.06 789.01L902.02 788.81L901.98 788.6L901.94 788.39L901.9 788.19L1196.97 788.19L1197.04 788.4L1197.12 788.61Z" id="b2qRYQlpUl"></path><path d="M1174.77 706.73C1006.32 706.73 912.73 706.73 894.01 706.73C893.95 704.02 893.91 701.32 893.89 698.61C921.76 698.61 1144.74 698.61 1172.61 698.61C1173.32 701.18 1174.04 703.9 1174.77 706.73" id="a25IL1rDPx"></path><path d="M1126.54 571.93C1100.11 571.06 1073.57 592.94 1040.81 602.71C992.4 617.14 957.23 567.85 947.61 562.42C940.16 558.24 919.63 566.26 888.21 592.75C902.2 571.55 922.99 556.4 954.82 549.76C964.35 550.45 1040.59 555.93 1050.12 556.61C1078.32 547.04 1105.15 553.63 1126.54 571.93" id="aIX2ynGYz"></path><path d="M1021.29 590.84C994.48 589.29 970.22 574.42 959.16 561.4C957.34 559.26 955.87 557.18 954.82 555.22C947.31 541.23 957.84 540.79 975.89 522.3C981.66 522.3 1027.81 522.3 1033.58 522.3C1033.58 522.3 1045.84 537.22 1055.47 549.23C1059.53 554.3 1063.13 558.86 1065.15 561.52C1071.91 570.55 1052.52 592.64 1021.29 590.84" id="dcOxYlg4K"></path><path d="M1055.47 549.23C1049 587.52 1011.14 571.27 997.5 564.01C985.88 557.81 974.58 555.06 959.16 561.4C957.34 559.26 955.87 557.18 954.82 555.22C947.31 541.23 957.84 540.79 975.89 522.3C981.66 522.3 1027.81 522.3 1033.58 522.3C1033.58 522.3 1045.84 537.22 1055.47 549.23" id="b12qTV4T7H"></path><path d="M1158.49 368.31C1146.99 397.61 1111.15 394.24 1111.15 394.24C1103.72 395.77 1066.54 403.43 999.62 417.23L989.4 440.68L978.57 443.99L963.54 436.76C952.81 423.23 946.84 415.71 945.65 414.21C929.79 416.74 900.61 373.47 916.24 347.84C919.28 342.88 923.98 338.57 930.78 335.39C907.55 288.27 966.4 220.18 1027.95 247.01C1033.57 227 1078.41 220.78 1106.35 239.47C1122.19 250.07 1132.59 268.66 1127.38 297.29C1134.85 295.81 1142.01 299.8 1147.85 306.86C1159.79 321.29 1166.2 348.62 1158.49 368.31" id="c5TbyBBw9J"></path><path d="M1158.49 368.31C1146.99 397.61 1111.15 394.24 1111.15 394.24C1103.72 395.77 1066.54 403.43 999.62 417.23L989.4 440.68L978.57 443.99L963.54 436.76C952.81 423.23 946.84 415.71 945.65 414.21C929.79 416.74 900.61 373.47 916.24 347.84C933.07 381.34 965.94 363.33 965.94 363.33C965.94 363.33 989.4 374.6 1009.83 365.69C1030.28 356.81 1033.58 318.19 1033.58 318.19C1033.58 318.19 1119.84 353.07 1147.85 306.86C1159.79 321.29 1166.2 348.62 1158.49 368.31" id="asLOLhgcp"></path><path d="M1048.97 543.12C1049.46 547.31 1050.12 549.8 1050.12 549.8C1050.12 549.8 1045.31 567.25 1027.95 566.34C1010.61 565.44 975.27 545.29 974.07 537.19C973.85 535.77 974.08 533.21 974.6 529.82C975.81 521.56 978.71 508.4 981.06 495.31C983.29 482.79 985.02 470.34 984.29 462.32C992.02 465.33 1053.82 489.37 1061.54 492.38C1055.26 501.09 1051.83 510.15 1050.08 518.41C1047.94 528.48 1048.3 537.4 1048.97 543.12" id="aiuhixAAw"></path><path d="M1061.54 492.38C1055.26 501.09 1051.83 510.15 1050.08 518.41C1032.28 520.67 1009.94 511.86 981.06 495.31C983.29 482.79 985.02 470.34 984.29 462.32C989.44 464.32 1015.19 474.34 1061.54 492.38" id="a2HTJgfYe9"></path><path d="M1058.84 506.97C1043.9 507 1030.88 503.19 1019.81 497.48C988.35 481.32 972.56 450.15 972.56 450.15C972.56 450.15 947.45 460.08 943.41 433.02C939.34 405.96 962.48 398 968.2 406.7C968.2 406.7 974.67 440.68 979.77 440.68C984.89 440.68 979.03 413.63 983.99 397.1C1006.23 413.17 1034.19 387.17 1031.62 369.58C1044.71 381.61 1066.81 375.14 1072.81 356.95C1077.03 380.41 1112.95 388.97 1112.95 388.97C1112.95 388.97 1112.97 389.5 1112.97 390.49C1113.13 404.27 1112.41 506.83 1058.84 506.97" id="g3vMpYyXfe"></path><path d="M1112.97 390.49C1088.74 388.51 1075.07 371.88 1075.07 371.88C1075.07 371.88 1068.77 385.67 1037.84 382.07C1029.91 419.49 999.76 414.97 999.76 414.97C999.76 414.97 983.97 452.08 1019.81 497.48C988.35 481.32 972.56 450.15 972.56 450.15C972.56 450.15 947.45 460.08 943.41 433.02C939.34 405.96 962.48 398 968.2 406.7C968.2 406.7 974.67 440.68 979.77 440.68C984.89 440.68 979.03 413.63 983.99 397.1C1006.23 413.17 1034.19 387.17 1031.62 369.58C1044.71 381.61 1066.81 375.14 1072.81 356.95C1077.03 380.41 1112.95 388.97 1112.95 388.97C1112.95 388.97 1112.97 389.5 1112.97 390.49" id="c19YPwsZPh"></path><path d="M1044.41 424.82C1044.41 429.55 1041.98 433.39 1039 433.39C1036.01 433.39 1033.58 429.55 1033.58 424.82C1033.58 420.09 1036.01 416.26 1039 416.26C1041.98 416.26 1044.41 420.09 1044.41 424.82" id="e1eu3IaUtA"></path><path d="M1098.52 424.82C1098.52 429.55 1096.1 433.39 1093.11 433.39C1090.12 433.39 1087.7 429.55 1087.7 424.82C1087.7 420.09 1090.12 416.26 1093.11 416.26C1096.1 416.26 1098.52 420.09 1098.52 424.82" id="b8bYaFSit"></path><path d="M1029.19 408.58L1029.08 408.46L1029.19 408.58L1029.19 408.58L1029.08 408.46C1029.14 408.53 1029.18 408.57 1029.19 408.58C1029.25 408.52 1030.36 407.47 1032.2 406.47C1034.05 405.46 1036.59 404.51 1039.56 404.51C1041.75 404.51 1044.19 405.01 1046.87 406.46C1047.73 406.92 1048.8 406.61 1049.27 405.75C1049.73 404.89 1049.41 403.82 1048.55 403.35C1045.38 401.63 1042.31 400.97 1039.56 400.97C1035.71 400.98 1032.52 402.24 1030.3 403.49C1028.08 404.73 1026.8 405.97 1026.72 406.05C1026.02 406.73 1026.01 407.84 1026.69 408.54C1027.37 409.24 1028.49 409.26 1029.19 408.58" id="bzjYmZDjE"></path><path d="M1104.22 406.05C1104.14 405.97 1102.86 404.73 1100.64 403.49C1098.42 402.24 1095.24 400.98 1091.38 400.97C1088.63 400.97 1085.56 401.63 1082.39 403.35C1081.53 403.82 1081.21 404.89 1081.67 405.75C1082.14 406.61 1083.21 406.92 1084.07 406.46C1086.75 405.01 1089.19 404.51 1091.38 404.51C1094.44 404.51 1097.06 405.52 1098.91 406.57C1099.84 407.09 1100.57 407.6 1101.06 407.99C1101.3 408.18 1101.49 408.34 1101.61 408.44C1101.61 408.45 1101.66 408.48 1101.73 408.55L1101.76 408.58L1101.86 408.46L1101.76 408.58L1101.76 408.58L1101.86 408.46C1101.8 408.53 1101.76 408.57 1101.76 408.58C1102.45 409.26 1103.57 409.24 1104.25 408.54C1104.93 407.84 1104.92 406.73 1104.22 406.05" id="e5MKY1xR"></path><path d="M1067.89 413.55C1067.88 413.96 1067.87 414.37 1067.87 414.77C1067.86 421.17 1069.97 425.91 1071.94 429.77C1072.93 431.71 1073.87 433.44 1074.55 435.08C1075.22 436.71 1075.62 438.21 1075.62 439.77C1075.62 440.88 1075.42 442.04 1074.92 443.36C1073.67 446.63 1072.31 448.37 1071.22 449.26C1070.12 450.14 1069.28 450.27 1068.69 450.28C1068.41 450.28 1068.2 450.24 1068.07 450.21C1068.06 450.21 1068.02 450.2 1067.94 450.17L1067.94 450.17L1067.55 451.15L1067.97 450.19L1067.94 450.17L1067.55 451.15C1067.8 450.57 1067.94 450.25 1067.97 450.19C1067.08 449.79 1066.04 450.19 1065.64 451.09C1065.24 451.98 1065.65 453.02 1066.54 453.42C1066.69 453.48 1067.48 453.81 1068.69 453.81C1069.97 453.82 1071.75 453.4 1073.46 451.99C1075.17 450.59 1076.82 448.29 1078.22 444.62C1078.87 442.94 1079.16 441.32 1079.16 439.77C1079.16 437.59 1078.59 435.6 1077.81 433.72C1076.64 430.9 1075.01 428.27 1073.71 425.28C1072.41 422.3 1071.41 418.99 1071.4 414.77C1071.4 414.42 1071.41 414.06 1071.42 413.7C1071.46 412.72 1070.71 411.9 1069.73 411.86C1068.76 411.82 1067.93 412.58 1067.9 413.55" id="b3B4axtfH1"></path><path d="M1041.01 471.66C1044.49 478.91 1050.73 482.53 1056.68 482.52C1061.51 482.53 1066.17 480.12 1068.78 475.61C1069.27 474.77 1068.99 473.69 1068.14 473.2C1067.3 472.71 1066.22 472.99 1065.73 473.84C1063.75 477.22 1060.38 478.97 1056.68 478.99C1052.16 478.98 1047.19 476.3 1044.19 470.13C1043.77 469.25 1042.72 468.88 1041.84 469.3C1040.96 469.72 1040.59 470.78 1041.01 471.66" id="h1ooVZD5ek"></path><path d="M956.53 425.26C956.95 423.64 957.48 422.55 957.92 421.99C958.14 421.71 958.32 421.56 958.44 421.49C958.45 421.49 958.59 421.43 958.61 421.43C958.64 421.43 958.77 421.43 959.08 421.7C959.52 422.09 960.14 423.07 960.59 424.56C961.04 426.05 961.33 428.03 961.33 430.4C961.33 430.65 961.33 430.91 961.32 431.16C961.28 433.33 960.94 434.62 960.66 435.13C960.52 435.39 960.43 435.45 960.43 435.46C960.43 435.46 960.44 435.48 960.46 435.5L960.44 435.45L960.43 435.46L960.46 435.5L960.44 435.45L960.45 435.48L960.45 435.45L960.44 435.45L960.45 435.48L960.45 435.45C960.44 435.45 960.43 435.45 960.43 435.45C960.37 435.46 960.08 435.4 959.72 435.18C959.17 434.88 958.51 434.31 958.03 433.82C957.79 433.58 957.59 433.35 957.45 433.2C957.44 433.19 957.39 433.13 957.3 433.02L957.26 432.98C957.26 432.97 957.26 432.97 957.26 432.97C956.65 432.21 955.54 432.08 954.78 432.68C954.01 433.29 953.88 434.4 954.49 435.16C954.53 435.21 955.2 436.06 956.21 436.96C956.71 437.41 957.3 437.87 957.98 438.26C958.67 438.64 959.46 438.97 960.43 438.98C961.07 438.99 961.78 438.8 962.38 438.4C963.3 437.78 963.87 436.83 964.24 435.68C964.61 434.52 964.8 433.1 964.86 431.26C964.86 430.97 964.87 430.68 964.87 430.4C964.86 426.84 964.29 423.94 963.31 421.78C962.82 420.7 962.22 419.79 961.46 419.09C960.71 418.4 959.72 417.9 958.61 417.9C957.92 417.89 957.23 418.1 956.65 418.45C955.76 418.97 955.08 419.76 954.51 420.75C953.94 421.73 953.48 422.93 953.11 424.38C952.87 425.33 953.44 426.29 954.38 426.53C955.33 426.77 956.29 426.21 956.53 425.26" id="b4ikwWMwj8"></path><path d="M1050.12 549.8C1050.12 549.8 1045.31 567.25 1027.95 566.34C1010.61 565.44 975.27 545.29 974.07 537.19C973.85 535.77 974.08 533.21 974.6 529.82C998.26 550.45 1026.96 566.26 1048.97 543.12C1049.46 547.31 1050.12 549.8 1050.12 549.8" id="b2vPwhKYZN"></path><path d="M903.53 796.31L857.52 796.31C857.52 796.31 857.52 796.31 857.52 796.31C857.32 793.86 857.11 791.14 856.92 788.19C861.42 788.19 897.41 788.19 901.9 788.19C902.42 790.94 902.96 793.65 903.53 796.31" id="d24GrGXWZ"></path><path d="M1216.86 796.31C1206.78 796.31 1201.18 796.31 1200.06 796.31C1199.01 793.73 1197.98 791.01 1196.97 788.19C1198.71 788.19 1212.63 788.19 1214.37 788.19C1214.37 788.21 1214.38 788.22 1214.38 788.24C1215.26 791.1 1216.07 793.75 1216.82 796.2C1216.83 796.23 1216.85 796.27 1216.86 796.31" id="a1OgNf6R5Y"></path><path d="M1169.82 813.41C1152.56 813.41 1142.97 813.41 1141.05 813.41C1137.38 758.22 1138.49 665.85 1138.49 665.85C1138.49 665.85 1150.52 702.25 1155.34 757.83C1157.25 779.96 1163.27 798.78 1169.82 813.41" id="g5ajCqcyR7"></path><path d="M1235.53 97.59C997.06 97.59 864.57 97.59 838.07 97.59C838.07 97.59 859.61 -3.84 871.61 -55.72C873.38 -63.41 874.94 -70 876.2 -75.02C885.93 -113.95 935.42 -131.4 987.11 -165.47C996.42 -166.73 1070.9 -176.78 1080.21 -178.03C1080.21 -178.03 1156.04 -134.24 1186.86 -118C1204.56 -108.7 1217.96 -39.07 1226.19 18.57C1232.29 61.38 1235.53 97.59 1235.53 97.59" id="g1Py3q1drA"></path><path d="M1034.12 99.61C1029.47 99.61 1026.88 99.61 1026.37 99.61C1023.79 50.7 1017.03 -93.5 1024.22 -136.87C1024.74 -138.28 1028.91 -149.61 1029.43 -151.02C1022.71 -82.76 1031.26 57.34 1034.12 99.61" id="b2zibT8m"></path><path d="M1226.39 20.6C1203.15 8.61 1204.83 -51.98 1191.39 -82.32C1176.8 -115.31 1146.5 -133.15 1090.57 -139.16C1034.63 -145.18 1036.63 -155.15 999.69 -142.54C962.75 -129.94 879.6 -82.21 871.8 -53.69C873.58 -61.38 875.14 -67.97 876.4 -72.99C886.13 -111.93 935.61 -129.37 987.3 -163.44C996.61 -164.7 1071.1 -174.75 1080.41 -176.01C1080.41 -176.01 1156.24 -132.21 1187.06 -115.98C1204.75 -106.67 1218.16 -37.05 1226.39 20.6" id="b1u1tmwT09"></path><path d="M1092.69 -165.03C1089.1 -159.66 1083.2 -152.64 1078.98 -145.38C1071.07 -131.8 1071.27 -106.05 1057.88 -109.09C1044.51 -112.14 1031.53 -137.68 1024.22 -136.87C1016.93 -136.06 996.64 -106.65 989.35 -106.65C982.05 -106.65 971.71 -137.49 969.27 -149.04C968.48 -152.78 969.2 -155.69 970.64 -158.31C973.66 -163.79 979.92 -168.13 982.65 -176.61C986.72 -189.19 987.92 -187.97 1001.31 -190.21C1004.64 -190.33 1031.24 -191.3 1034.56 -191.42C1034.56 -191.42 1053.23 -193.04 1060.93 -195.23C1068.64 -197.42 1087.7 -177.03 1094.19 -174.39C1097.21 -173.17 1095.83 -169.73 1092.69 -165.03" id="b4N3dn6QEJ"></path><path d="M1092.69 -165.03C1081.74 -173.77 1064.17 -167.45 1053.62 -155.77C1040.85 -141.6 1032.4 -142.55 1032.4 -142.55C1032.4 -142.55 1046.73 -159.79 1041.46 -167.08C1037.02 -173.24 998.17 -162.82 970.64 -158.31C973.66 -163.79 979.92 -168.13 982.65 -176.61C986.72 -189.19 987.92 -187.97 1001.31 -190.21C1004.64 -190.33 1031.24 -191.3 1034.56 -191.42C1034.56 -191.42 1053.23 -193.04 1060.93 -195.23C1068.64 -197.42 1087.7 -177.03 1094.19 -174.39C1097.21 -173.17 1095.83 -169.73 1092.69 -165.03" id="b1iz9ENEIL"></path><path d="M1124.34 -352.86C1124.04 -352.03 1123.72 -351.22 1123.39 -350.41C1112.03 -322.83 1084.04 -294.84 1077.96 -274.56C1071.88 -254.29 1065.79 -231.97 1037.41 -250.64C1028.12 -256.44 953.81 -302.83 944.53 -308.63C924.32 -324.49 910.55 -358.48 906.32 -393.41C905.04 -404.02 904.62 -414.73 905.19 -425.04C915.01 -420.32 922.18 -411.81 922.62 -411.28C922.02 -412.57 904.48 -450.84 924.73 -488.71C924.84 -488.53 924.94 -488.36 925.05 -488.18C935.06 -471.45 947.26 -460.7 974.14 -459.1C1001.31 -457.48 1091.75 -470.06 1099.87 -412.87C1126.63 -410.9 1134.3 -379.89 1124.34 -352.86" id="bt0MqrvyN"></path><path d="M1124.34 -352.86C1124.04 -352.03 1123.72 -351.22 1123.39 -350.41C1112.03 -322.83 1084.04 -294.84 1077.96 -274.56C1071.88 -254.29 1065.79 -231.97 1037.41 -250.64C1028.12 -256.44 953.81 -302.83 944.53 -308.63C924.32 -324.49 910.55 -358.48 906.32 -393.41C928.74 -379.92 953.85 -392.17 987.3 -384.47C981.44 -392.58 981.84 -415.3 981.84 -415.3C981.84 -415.3 1002.03 -399.08 1033.31 -393.4C1063.06 -387.99 1105.6 -395.92 1124.34 -352.86" id="d55HrRdnnR"></path><path d="M961.03 -297.37C963.32 -286.41 959.74 -276.4 953.03 -274.99C946.32 -273.59 939.02 -281.33 936.73 -292.29C934.44 -303.24 938.02 -313.26 944.73 -314.66C951.45 -316.06 958.74 -308.32 961.03 -297.37" id="dY40lLRD5"></path><path d="M1067.56 -189.94C1067.29 -183.17 1037.82 -135.58 1025.38 -139.38C1012.94 -143.16 998.61 -176.42 998.61 -176.42C998.61 -176.42 998.61 -176.71 998.58 -177.28C998.52 -179.77 998.23 -187.62 997.17 -199.87C996.68 -205.7 995.99 -212.51 995.09 -220.22C1001.96 -225.65 1056.91 -269.13 1063.77 -274.56C1059.17 -260.74 1060.2 -241.22 1062.33 -224.33C1063.22 -217.29 1064.3 -210.72 1065.24 -205.19C1066.57 -197.52 1067.63 -191.89 1067.56 -189.94" id="a1XhTFZY50"></path><path d="M1062.33 -224.33C1041.66 -195.15 1016.34 -189.88 997.17 -199.87C996.68 -205.7 995.99 -212.51 995.09 -220.22C1001.96 -225.65 1056.91 -269.13 1063.77 -274.56C1059.17 -260.74 1060.2 -241.22 1062.33 -224.33" id="b1M2CFYgOh"></path><path d="M1101.96 -286.36C1095.74 -281.33 1087.25 -279.42 1077.44 -284.01C1059.96 -236.36 1025.02 -209.35 993.25 -210.94C980.33 -215.5 971.15 -224.95 964.64 -236.72C943.92 -274.15 950.36 -334.84 950.36 -334.84C950.42 -337.64 950.75 -340.13 951.32 -342.36C960.6 -378.83 1034.1 -341.91 1078.44 -351.08C1075.72 -348.46 1074.04 -342.4 1073.16 -335.24C1071.15 -318.89 1073.34 -296.75 1077.09 -296.19C1082.5 -295.38 1079.79 -310.52 1083.04 -317.83C1086.28 -325.12 1107.62 -334.84 1112.38 -317.37C1115.18 -307.11 1110.86 -293.54 1101.96 -286.36" id="a1ZEI1aa4m"></path><path d="M1101.84 -312.7C1101.74 -313.41 1101.54 -314.08 1101.05 -314.66C1100.8 -314.95 1100.48 -315.2 1100.13 -315.36C1099.77 -315.52 1099.39 -315.58 1099.05 -315.58C1098.31 -315.57 1097.71 -315.33 1097.15 -315.03C1096.18 -314.48 1095.27 -313.66 1094.36 -312.64C1093.01 -311.11 1091.7 -309.14 1090.7 -307.02C1089.7 -304.89 1088.99 -302.63 1088.98 -300.44C1088.98 -299.79 1089.04 -299.15 1089.2 -298.53C1089.46 -297.47 1089.81 -296.62 1090.39 -295.93C1090.69 -295.59 1091.05 -295.3 1091.46 -295.11C1091.87 -294.91 1092.32 -294.82 1092.74 -294.82C1093.3 -294.82 1093.8 -294.97 1094.24 -295.16C1095 -295.51 1095.63 -296.01 1096.2 -296.54C1097.89 -298.15 1099.15 -300.24 1099.19 -300.3C1099.65 -301.05 1099.42 -302.02 1098.67 -302.48C1097.92 -302.94 1096.94 -302.71 1096.48 -301.96C1096.48 -301.96 1096.46 -301.93 1096.46 -301.92C1096.32 -301.7 1095.6 -300.59 1094.73 -299.6C1094.3 -299.1 1093.82 -298.64 1093.42 -298.35C1093.22 -298.21 1093.04 -298.11 1092.92 -298.05C1092.91 -298.05 1092.86 -298.03 1092.78 -298.01L1092.74 -298L1092.74 -297.81L1092.82 -297.98L1092.74 -298L1092.74 -297.81L1092.82 -297.98L1092.77 -297.87L1092.84 -297.97L1092.82 -297.98L1092.77 -297.87L1092.84 -297.97C1092.81 -298 1092.8 -298.01 1092.79 -298.02C1092.69 -298.12 1092.46 -298.52 1092.29 -299.27C1092.2 -299.62 1092.16 -300.01 1092.16 -300.44C1092.15 -301.56 1092.46 -302.94 1093 -304.34C1093.81 -306.45 1095.12 -308.61 1096.42 -310.16C1097.07 -310.93 1097.71 -311.56 1098.23 -311.94C1098.49 -312.14 1098.72 -312.27 1098.87 -312.34C1098.88 -312.34 1098.94 -312.36 1099.04 -312.4L1099.06 -312.4L1099.05 -312.53L1099.05 -312.4L1099.06 -312.4L1099.05 -312.53L1099.05 -312.4L1099.05 -312.92L1098.84 -312.45L1099.05 -312.4L1099.05 -312.92L1098.84 -312.45L1099.03 -312.88L1098.61 -312.64L1098.84 -312.45L1099.03 -312.88C1098.78 -312.73 1098.64 -312.65 1098.61 -312.64C1098.61 -312.64 1098.66 -312.52 1098.7 -312.27C1098.82 -311.4 1099.62 -310.79 1100.49 -310.91C1101.36 -311.03 1101.97 -311.83 1101.84 -312.7" id="ahve1Fir5"></path><path d="M993.68 -311.76C994.16 -311.35 994.56 -310.71 994.85 -309.79C995.13 -308.87 995.28 -307.7 995.28 -306.35C995.28 -303.26 994.49 -299.3 993.22 -295.4C992.29 -292.51 990.49 -289.42 988.87 -286.55C988.07 -285.11 987.31 -283.72 986.73 -282.39C986.15 -281.05 985.73 -279.78 985.72 -278.44C985.71 -277.38 986.06 -276.23 986.88 -275.37C988.73 -273.41 991.19 -272.44 993.17 -271.88C995.15 -271.34 996.69 -271.23 996.76 -271.22C997.63 -271.16 998.39 -271.82 998.45 -272.7C998.52 -273.57 997.86 -274.33 996.98 -274.39C996.98 -274.39 996.95 -274.4 996.94 -274.4C996.69 -274.42 995.3 -274.56 993.7 -275.04C992.1 -275.51 990.31 -276.34 989.2 -277.54C988.99 -277.78 988.91 -277.96 988.9 -278.44C988.89 -279.03 989.14 -279.99 989.64 -281.12C990.38 -282.84 991.62 -284.94 992.88 -287.2C994.14 -289.46 995.42 -291.9 996.24 -294.42C997.58 -298.55 998.45 -302.74 998.46 -306.35C998.46 -307.93 998.29 -309.4 997.88 -310.72C997.48 -312.05 996.81 -313.25 995.78 -314.15C995.11 -314.73 994.11 -314.67 993.53 -314C992.96 -313.35 993.02 -312.34 993.68 -311.76" id="b1eE01FrG"></path><path d="M1033.31 -303.06C1033.31 -298.51 1030.88 -294.83 1027.88 -294.83C1024.88 -294.83 1022.45 -298.51 1022.45 -303.06C1022.45 -307.62 1024.88 -311.3 1027.88 -311.3C1030.88 -311.3 1033.31 -307.62 1033.31 -303.06" id="e1vZM5gg2H"></path><path d="M974.5 -301.12C974.5 -296.57 972.07 -292.88 969.07 -292.88C966.07 -292.88 963.64 -296.57 963.64 -301.12C963.64 -305.67 966.07 -309.36 969.07 -309.36C972.07 -309.36 974.5 -305.67 974.5 -301.12" id="bF3YXjIjn"></path><path d="M1018.82 -322.41C1018.83 -322.41 1018.83 -322.41 1018.83 -322.41C1018.92 -322.51 1019.64 -323.2 1020.94 -323.86C1022.25 -324.52 1024.12 -325.16 1026.58 -325.16C1029.21 -325.16 1032.54 -324.44 1036.62 -322.12C1037.38 -321.69 1038.36 -321.96 1038.79 -322.72C1039.22 -323.48 1038.96 -324.45 1038.19 -324.88C1033.71 -327.43 1029.8 -328.34 1026.58 -328.34C1023.36 -328.34 1020.86 -327.44 1019.18 -326.52C1017.49 -325.61 1016.6 -324.69 1016.52 -324.59C1015.91 -323.96 1015.94 -322.95 1016.58 -322.35C1017.22 -321.75 1018.22 -321.78 1018.82 -322.41" id="b17GXZKg9q"></path><path d="M959.93 -318.14C959.93 -318.15 959.93 -318.15 959.93 -318.15C960.02 -318.23 961.21 -319.41 963.09 -320.54C964.98 -321.67 967.54 -322.73 970.37 -322.72C972.8 -322.71 975.47 -321.99 978.37 -319.73C979.06 -319.19 980.05 -319.31 980.6 -320C981.14 -320.69 981.02 -321.69 980.32 -322.23C976.93 -324.89 973.47 -325.91 970.37 -325.9C966.63 -325.89 963.47 -324.49 961.25 -323.13C959.03 -321.77 957.72 -320.42 957.65 -320.36C957.04 -319.73 957.06 -318.72 957.69 -318.11C958.32 -317.5 959.32 -317.51 959.93 -318.14" id="c14jWaNWHG"></path><path d="M998.96 -246.59C1002.75 -244.63 1006.8 -243.67 1010.7 -243.67C1015.17 -243.67 1019.45 -244.94 1022.84 -247.44C1026.23 -249.94 1028.69 -253.72 1029.45 -258.49C1029.59 -259.36 1029 -260.18 1028.13 -260.32C1027.27 -260.46 1026.45 -259.87 1026.31 -259C1025.66 -255.01 1023.71 -252.05 1020.95 -249.99C1018.18 -247.95 1014.57 -246.85 1010.7 -246.85C1007.32 -246.85 1003.76 -247.68 1000.42 -249.41C999.64 -249.81 998.68 -249.51 998.28 -248.73C997.87 -247.95 998.18 -246.99 998.96 -246.59" id="c7NJYSqCA"></path><path d="M1078.44 -351.08C1075.72 -348.46 1074.04 -342.4 1073.16 -335.24C1055.42 -327.52 1029.88 -340.13 1009.15 -345.68C987.78 -351.38 967.29 -351.55 951.32 -342.36C960.6 -378.83 1034.1 -341.91 1078.44 -351.08" id="hIc8bL1XV"></path><path d="M1077.44 -284.01C1059.96 -236.36 1025.02 -209.35 993.25 -210.94C980.33 -215.5 971.15 -224.95 964.64 -236.72C999.33 -214.58 1028.19 -215.12 1077.44 -284.01" id="a1UC5e6Ac8"></path><path d="M1067.56 -189.94C1067.29 -183.17 1037.82 -135.58 1025.38 -139.38C1012.94 -143.16 998.61 -176.42 998.61 -176.42C998.61 -176.42 998.61 -176.71 998.58 -177.28C1005.29 -163.79 1013.1 -153.71 1027.87 -152.9C1044.24 -151.99 1061.25 -181.76 1065.24 -205.19C1066.57 -197.52 1067.63 -191.89 1067.56 -189.94" id="axlf2ORH0"></path><path d="M921.59 99.61L912.84 99.61C917.41 34.91 919.95 -1.04 920.46 -8.23C920.46 -8.23 901 -73.68 920.46 -46.63C938.7 -21.3 927.53 46.67 921.59 99.61" id="dcn1oJuuh"></path><path d="M1137.13 99.61C1153.21 99.61 1162.14 99.61 1163.93 99.61C1166.87 53.86 1176.08 -22.8 1175.3 -33.65C1174.49 -45 1163.55 -66.91 1157.47 -63.67C1151.38 -60.41 1166.03 -45 1166.41 -31.22C1166.69 -21.15 1147.49 57.83 1137.13 99.61" id="d3MXf2xw4i"></path><path d="M1099.87 -412.87C1099.29 -411.84 1098.77 -410.82 1098.31 -409.84C1098.18 -411.06 1098.02 -412.35 1097.83 -413.68C1092.16 -455.04 1022 -445.31 976.98 -446.93C935.28 -448.44 924.21 -465.94 925.05 -488.18C935.06 -471.45 947.26 -460.7 974.14 -459.1C1001.31 -457.48 1091.75 -470.06 1099.87 -412.87" id="asaguDzRf"></path><path d="" id="aWNG1hN1x"></path><path d="M194.97 644.53C196.02 569.94 210.25 466.89 204.41 451C224.59 475.74 210.02 488.11 210.99 563.06C211.47 599.02 213.33 625.71 215.92 644.53C214.52 644.53 207.54 644.53 194.97 644.53" id="b2d0lHyTlS"></path><path d="M409.88 644.53C408.83 557.18 394.6 436.5 400.45 417.9C380.26 446.87 394.83 461.36 393.86 549.13C393.38 591.24 391.53 622.5 388.93 644.53C390.33 644.53 397.31 644.53 409.88 644.53" id="aa6uNzfFg1"></path></defs><g><g><g><use xlink:href="#d6oN4hDUt" opacity="1" fill="#ffffff" fill-opacity="1"></use><g><use xlink:href="#d6oN4hDUt" opacity="1" fill-opacity="0" stroke="#000000" stroke-width="1" stroke-opacity="0"></use></g></g><g><use xlink:href="#catw5EACi" opacity="1" fill="#935755" fill-opacity="1"></use><g><use xlink:href="#catw5EACi" opacity="1" fill-opacity="0" stroke="#000000" stroke-width="1" stroke-opacity="0"></use></g></g><g><use xlink:href="#dCsTNCpS6" opacity="1" fill="#7f4646" fill-opacity="1"></use><g><use xlink:href="#dCsTNCpS6" opacity="1" fill-opacity="0" stroke="#000000" stroke-width="1" stroke-opacity="0"></use></g></g><g><use xlink:href="#a61TE6TFmc" opacity="1" fill="#ce6f2e" fill-opacity="1"></use><g><use xlink:href="#a61TE6TFmc" opacity="1" fill-opacity="0" stroke="#000000" stroke-width="1" stroke-opacity="0"></use></g></g><g><use xlink:href="#b3DNKTMfsQ" opacity="1" fill="#87491f" fill-opacity="1"></use><g><use xlink:href="#b3DNKTMfsQ" opacity="1" fill-opacity="0" stroke="#000000" stroke-width="1" stroke-opacity="0"></use></g></g><g><use xlink:href="#b3SKu9IvyS" opacity="1" fill="#fca897" fill-opacity="1"></use><g><use xlink:href="#b3SKu9IvyS" opacity="1" fill-opacity="0" stroke="#000000" stroke-width="1" stroke-opacity="0"></use></g></g><g><use xlink:href="#c67sk5ZEW7" opacity="1" fill="#ef9181" fill-opacity="1"></use><g><use xlink:href="#c67sk5ZEW7" opacity="1" fill-opacity="0" stroke="#000000" stroke-width="1" stroke-opacity="0"></use></g></g><g><use xlink:href="#e8wIVJeaYo" opacity="1" fill="#fca897" fill-opacity="1"></use><g><use xlink:href="#e8wIVJeaYo" opacity="1" fill-opacity="0" stroke="#000000" stroke-width="1" stroke-opacity="0"></use></g></g><g><use xlink:href="#b1uJEjmsDe" opacity="1" fill="#fca897" fill-opacity="1"></use><g><use xlink:href="#b1uJEjmsDe" opacity="1" fill-opacity="0" stroke="#000000" stroke-width="1" stroke-opacity="0"></use></g></g><g><use xlink:href="#a1sHVol2pI" opacity="1" fill="#fcc3b4" fill-opacity="1"></use><g><use xlink:href="#a1sHVol2pI" opacity="1" fill-opacity="0" stroke="#000000" stroke-width="1" stroke-opacity="0"></use></g></g><g><use xlink:href="#jZg0FKQTT" opacity="1" fill="#fca897" fill-opacity="1"></use><g><use xlink:href="#jZg0FKQTT" opacity="1" fill-opacity="0" stroke="#000000" stroke-width="1" stroke-opacity="0"></use></g></g><g><use xlink:href="#c1gbtCXz1p" opacity="1" fill="#3f3b51" fill-opacity="1"></use><g><use xlink:href="#c1gbtCXz1p" opacity="1" fill-opacity="0" stroke="#000000" stroke-width="1" stroke-opacity="0"></use></g></g><g><use xlink:href="#i2y3IunnQn" opacity="1" fill="#3f3b51" fill-opacity="1"></use><g><use xlink:href="#i2y3IunnQn" opacity="1" fill-opacity="0" stroke="#000000" stroke-width="1" stroke-opacity="0"></use></g></g><g><use xlink:href="#b6HQeZCNv" opacity="1" fill="#e56e61" fill-opacity="1"></use><g><use xlink:href="#b6HQeZCNv" opacity="1" fill-opacity="0" stroke="#000000" stroke-width="1" stroke-opacity="0"></use></g></g><g><use xlink:href="#aPrrs7t9" opacity="1" fill="#3f3b51" fill-opacity="1"></use><g><use xlink:href="#aPrrs7t9" opacity="1" fill-opacity="0" stroke="#000000" stroke-width="1" stroke-opacity="0"></use></g></g><g><use xlink:href="#d15yYZIYE1" opacity="1" fill="#3f3b51" fill-opacity="1"></use><g><use xlink:href="#d15yYZIYE1" opacity="1" fill-opacity="0" stroke="#000000" stroke-width="1" stroke-opacity="0"></use></g></g><g><use xlink:href="#h7OnlllXhC" opacity="1" fill="#f4586f" fill-opacity="1"></use><g><use xlink:href="#h7OnlllXhC" opacity="1" fill-opacity="0" stroke="#000000" stroke-width="1" stroke-opacity="0"></use></g></g><g><use xlink:href="#e3tagA18V" opacity="1" fill="#ffd0c7" fill-opacity="1"></use><g><use xlink:href="#e3tagA18V" opacity="1" fill-opacity="0" stroke="#000000" stroke-width="1" stroke-opacity="0"></use></g></g><g><use xlink:href="#a74qVaXbTV" opacity="1" fill="#7f4646" fill-opacity="1"></use><g><use xlink:href="#a74qVaXbTV" opacity="1" fill-opacity="0" stroke="#000000" stroke-width="1" stroke-opacity="0"></use></g></g><g><use xlink:href="#k1df7ePHO3" opacity="1" fill="#af6868" fill-opacity="1"></use><g><use xlink:href="#k1df7ePHO3" opacity="1" fill-opacity="0" stroke="#000000" stroke-width="1" stroke-opacity="0"></use></g></g><g><use xlink:href="#m3avsmb9vG" opacity="1" fill="#af5e27" fill-opacity="1"></use><g><use xlink:href="#m3avsmb9vG" opacity="1" fill-opacity="0" stroke="#000000" stroke-width="1" stroke-opacity="0"></use></g></g><g><use xlink:href="#dQsyJZTfX" opacity="1" fill="#af5e27" fill-opacity="1"></use><g><use xlink:href="#dQsyJZTfX" opacity="1" fill-opacity="0" stroke="#000000" stroke-width="1" stroke-opacity="0"></use></g></g><g><use xlink:href="#a3QZY200ii" opacity="1" fill="#af5e27" fill-opacity="1"></use><g><use xlink:href="#a3QZY200ii" opacity="1" fill-opacity="0" stroke="#000000" stroke-width="1" stroke-opacity="0"></use></g></g><g><use xlink:href="#a5TVfhgZ2p" opacity="1" fill="#af5e27" fill-opacity="1"></use><g><use xlink:href="#a5TVfhgZ2p" opacity="1" fill-opacity="0" stroke="#000000" stroke-width="1" stroke-opacity="0"></use></g></g><g><use xlink:href="#a8sUjZKVQ" opacity="1" fill="#af5e27" fill-opacity="1"></use><g><use xlink:href="#a8sUjZKVQ" opacity="1" fill-opacity="0" stroke="#000000" stroke-width="1" stroke-opacity="0"></use></g></g><g><use xlink:href="#bmo6cu6KQ" opacity="1" fill="#935755" fill-opacity="1"></use><g><use xlink:href="#bmo6cu6KQ" opacity="1" fill-opacity="0" stroke="#000000" stroke-width="1" stroke-opacity="0"></use></g></g><g><use xlink:href="#cMW3Z2bLd" opacity="1" fill="#874c4c" fill-opacity="1"></use><g><use xlink:href="#cMW3Z2bLd" opacity="1" fill-opacity="0" stroke="#000000" stroke-width="1" stroke-opacity="0"></use></g></g><g><use xlink:href="#b7MMJqucK" opacity="1" fill="#a56a6a" fill-opacity="1"></use><g><use xlink:href="#b7MMJqucK" opacity="1" fill-opacity="0" stroke="#000000" stroke-width="1" stroke-opacity="0"></use></g></g><g><use xlink:href="#dt7tmakoZ" opacity="1" fill="#e28242" fill-opacity="1"></use><g><use xlink:href="#dt7tmakoZ" opacity="1" fill-opacity="0" stroke="#000000" stroke-width="1" stroke-opacity="0"></use></g></g><g><use xlink:href="#f76uio8m0c" opacity="1" fill="#7b4444" fill-opacity="1"></use><g><use xlink:href="#f76uio8m0c" opacity="1" fill-opacity="0" stroke="#000000" stroke-width="1" stroke-opacity="0"></use></g></g><g><use xlink:href="#h1wzhxNva4" opacity="1" fill="#9c5f5f" fill-opacity="1"></use><g><use xlink:href="#h1wzhxNva4" opacity="1" fill-opacity="0" stroke="#000000" stroke-width="1" stroke-opacity="0"></use></g></g><g><use xlink:href="#bma50BUwp" opacity="1" fill="#884e4c" fill-opacity="1"></use><g><use xlink:href="#bma50BUwp" opacity="1" fill-opacity="0" stroke="#000000" stroke-width="1" stroke-opacity="0"></use></g></g><g><use xlink:href="#ikbLkYUDq" opacity="1" fill="#7b4444" fill-opacity="1"></use><g><use xlink:href="#ikbLkYUDq" opacity="1" fill-opacity="0" stroke="#000000" stroke-width="1" stroke-opacity="0"></use></g></g><g><use xlink:href="#i1ak5bmOX" opacity="1" fill="#9c5f5f" fill-opacity="1"></use><g><use xlink:href="#i1ak5bmOX" opacity="1" fill-opacity="0" stroke="#000000" stroke-width="1" stroke-opacity="0"></use></g></g><g><use xlink:href="#c1TtHcEoCF" opacity="1" fill="#884e4c" fill-opacity="1"></use><g><use xlink:href="#c1TtHcEoCF" opacity="1" fill-opacity="0" stroke="#000000" stroke-width="1" stroke-opacity="0"></use></g></g><g><use xlink:href="#aSl3xolXE" opacity="1" fill="#7b4444" fill-opacity="1"></use><g><use xlink:href="#aSl3xolXE" opacity="1" fill-opacity="0" stroke="#000000" stroke-width="1" stroke-opacity="0"></use></g></g><g><use xlink:href="#a7IhLAKOV" opacity="1" fill="#874c4c" fill-opacity="1"></use><g><use xlink:href="#a7IhLAKOV" opacity="1" fill-opacity="0" stroke="#000000" stroke-width="1" stroke-opacity="0"></use></g></g><g><use xlink:href="#c2OS29nY8" opacity="1" fill="#9c5f5f" fill-opacity="1"></use><g><use xlink:href="#c2OS29nY8" opacity="1" fill-opacity="0" stroke="#000000" stroke-width="1" stroke-opacity="0"></use></g></g><g><use xlink:href="#b2qRYQlpUl" opacity="1" fill="#884e4c" fill-opacity="1"></use><g><use xlink:href="#b2qRYQlpUl" opacity="1" fill-opacity="0" stroke="#000000" stroke-width="1" stroke-opacity="0"></use></g></g><g><use xlink:href="#a25IL1rDPx" opacity="1" fill="#884e4c" fill-opacity="1"></use><g><use xlink:href="#a25IL1rDPx" opacity="1" fill-opacity="0" stroke="#000000" stroke-width="1" stroke-opacity="0"></use></g></g><g><use xlink:href="#aIX2ynGYz" opacity="1" fill="#874c4c" fill-opacity="1"></use><g><use xlink:href="#aIX2ynGYz" opacity="1" fill-opacity="0" stroke="#000000" stroke-width="1" stroke-opacity="0"></use></g></g><g><use xlink:href="#dcOxYlg4K" opacity="1" fill="#6d5250" fill-opacity="1"></use><g><use xlink:href="#dcOxYlg4K" opacity="1" fill-opacity="0" stroke="#000000" stroke-width="1" stroke-opacity="0"></use></g></g><g><use xlink:href="#b12qTV4T7H" opacity="1" fill="#604242" fill-opacity="1"></use><g><use xlink:href="#b12qTV4T7H" opacity="1" fill-opacity="0" stroke="#000000" stroke-width="1" stroke-opacity="0"></use></g></g><g><use xlink:href="#c5TbyBBw9J" opacity="1" fill="#ce6f2e" fill-opacity="1"></use><g><use xlink:href="#c5TbyBBw9J" opacity="1" fill-opacity="0" stroke="#000000" stroke-width="1" stroke-opacity="0"></use></g></g><g><use xlink:href="#asLOLhgcp" opacity="1" fill="#b25b20" fill-opacity="1"></use><g><use xlink:href="#asLOLhgcp" opacity="1" fill-opacity="0" stroke="#000000" stroke-width="1" stroke-opacity="0"></use></g></g><g><use xlink:href="#aiuhixAAw" opacity="1" fill="#fca897" fill-opacity="1"></use><g><use xlink:href="#aiuhixAAw" opacity="1" fill-opacity="0" stroke="#000000" stroke-width="1" stroke-opacity="0"></use></g></g><g><use xlink:href="#a2HTJgfYe9" opacity="1" fill="#ef9181" fill-opacity="1"></use><g><use xlink:href="#a2HTJgfYe9" opacity="1" fill-opacity="0" stroke="#000000" stroke-width="1" stroke-opacity="0"></use></g></g><g><use xlink:href="#g3vMpYyXfe" opacity="1" fill="#fcc3b4" fill-opacity="1"></use><g><use xlink:href="#g3vMpYyXfe" opacity="1" fill-opacity="0" stroke="#000000" stroke-width="1" stroke-opacity="0"></use></g></g><g><use xlink:href="#c19YPwsZPh" opacity="1" fill="#fca897" fill-opacity="1"></use><g><use xlink:href="#c19YPwsZPh" opacity="1" fill-opacity="0" stroke="#000000" stroke-width="1" stroke-opacity="0"></use></g></g><g><use xlink:href="#e1eu3IaUtA" opacity="1" fill="#3f3b51" fill-opacity="1"></use><g><use xlink:href="#e1eu3IaUtA" opacity="1" fill-opacity="0" stroke="#000000" stroke-width="1" stroke-opacity="0"></use></g></g><g><use xlink:href="#b8bYaFSit" opacity="1" fill="#3f3b51" fill-opacity="1"></use><g><use xlink:href="#b8bYaFSit" opacity="1" fill-opacity="0" stroke="#000000" stroke-width="1" stroke-opacity="0"></use></g></g><g><use xlink:href="#bzjYmZDjE" opacity="1" fill="#ce6f2e" fill-opacity="1"></use><g><use xlink:href="#bzjYmZDjE" opacity="1" fill-opacity="0" stroke="#000000" stroke-width="1" stroke-opacity="0"></use></g></g><g><use xlink:href="#e5MKY1xR" opacity="1" fill="#ce6f2e" fill-opacity="1"></use><g><use xlink:href="#e5MKY1xR" opacity="1" fill-opacity="0" stroke="#000000" stroke-width="1" stroke-opacity="0"></use></g></g><g><use xlink:href="#b3B4axtfH1" opacity="1" fill="#e56e61" fill-opacity="1"></use><g><use xlink:href="#b3B4axtfH1" opacity="1" fill-opacity="0" stroke="#000000" stroke-width="1" stroke-opacity="0"></use></g></g><g><use xlink:href="#h1ooVZD5ek" opacity="1" fill="#f4586f" fill-opacity="1"></use><g><use xlink:href="#h1ooVZD5ek" opacity="1" fill-opacity="0" stroke="#000000" stroke-width="1" stroke-opacity="0"></use></g></g><g><use xlink:href="#b4ikwWMwj8" opacity="1" fill="#e56e61" fill-opacity="1"></use><g><use xlink:href="#b4ikwWMwj8" opacity="1" fill-opacity="0" stroke="#000000" stroke-width="1" stroke-opacity="0"></use></g></g><g><use xlink:href="#b2vPwhKYZN" opacity="1" fill="#ef9181" fill-opacity="1"></use><g><use xlink:href="#b2vPwhKYZN" opacity="1" fill-opacity="0" stroke="#000000" stroke-width="1" stroke-opacity="0"></use></g></g><g><use xlink:href="#d24GrGXWZ" opacity="1" fill="#7b4444" fill-opacity="1"></use><g><use xlink:href="#d24GrGXWZ" opacity="1" fill-opacity="0" stroke="#000000" stroke-width="1" stroke-opacity="0"></use></g></g><g><use xlink:href="#a1OgNf6R5Y" opacity="1" fill="#9c5f5f" fill-opacity="1"></use><g><use xlink:href="#a1OgNf6R5Y" opacity="1" fill-opacity="0" stroke="#000000" stroke-width="1" stroke-opacity="0"></use></g></g><g><use xlink:href="#g5ajCqcyR7" opacity="1" fill="#874c4c" fill-opacity="1"></use><g><use xlink:href="#g5ajCqcyR7" opacity="1" fill-opacity="0" stroke="#000000" stroke-width="1" stroke-opacity="0"></use></g></g><g><use xlink:href="#g1Py3q1drA" opacity="1" fill="#515770" fill-opacity="1"></use><g><use xlink:href="#g1Py3q1drA" opacity="1" fill-opacity="0" stroke="#000000" stroke-width="1" stroke-opacity="0"></use></g></g><g><use xlink:href="#b2zibT8m" opacity="1" fill="#3e455b" fill-opacity="1"></use><g><use xlink:href="#b2zibT8m" opacity="1" fill-opacity="0" stroke="#000000" stroke-width="1" stroke-opacity="0"></use></g></g><g><use xlink:href="#b1u1tmwT09" opacity="1" fill="#3e455b" fill-opacity="1"></use><g><use xlink:href="#b1u1tmwT09" opacity="1" fill-opacity="0" stroke="#000000" stroke-width="1" stroke-opacity="0"></use></g></g><g><use xlink:href="#b4N3dn6QEJ" opacity="1" fill="#6879af" fill-opacity="1"></use><g><use xlink:href="#b4N3dn6QEJ" opacity="1" fill-opacity="0" stroke="#000000" stroke-width="1" stroke-opacity="0"></use></g></g><g><use xlink:href="#b1iz9ENEIL" opacity="1" fill="#596c9b" fill-opacity="1"></use><g><use xlink:href="#b1iz9ENEIL" opacity="1" fill-opacity="0" stroke="#000000" stroke-width="1" stroke-opacity="0"></use></g></g><g><use xlink:href="#bt0MqrvyN" opacity="1" fill="#3f3b51" fill-opacity="1"></use><g><use xlink:href="#bt0MqrvyN" opacity="1" fill-opacity="0" stroke="#000000" stroke-width="1" stroke-opacity="0"></use></g></g><g><use xlink:href="#d55HrRdnnR" opacity="1" fill="#312f3d" fill-opacity="1"></use><g><use xlink:href="#d55HrRdnnR" opacity="1" fill-opacity="0" stroke="#000000" stroke-width="1" stroke-opacity="0"></use></g></g><g><use xlink:href="#dY40lLRD5" opacity="1" fill="#fca897" fill-opacity="1"></use><g><use xlink:href="#dY40lLRD5" opacity="1" fill-opacity="0" stroke="#000000" stroke-width="1" stroke-opacity="0"></use></g></g><g><use xlink:href="#a1XhTFZY50" opacity="1" fill="#fca897" fill-opacity="1"></use><g><use xlink:href="#a1XhTFZY50" opacity="1" fill-opacity="0" stroke="#000000" stroke-width="1" stroke-opacity="0"></use></g></g><g><use xlink:href="#b1M2CFYgOh" opacity="1" fill="#ef9181" fill-opacity="1"></use><g><use xlink:href="#b1M2CFYgOh" opacity="1" fill-opacity="0" stroke="#000000" stroke-width="1" stroke-opacity="0"></use></g></g><g><use xlink:href="#a1ZEI1aa4m" opacity="1" fill="#fcc3b4" fill-opacity="1"></use><g><use xlink:href="#a1ZEI1aa4m" opacity="1" fill-opacity="0" stroke="#000000" stroke-width="1" stroke-opacity="0"></use></g></g><g><use xlink:href="#ahve1Fir5" opacity="1" fill="#e56e61" fill-opacity="1"></use><g><use xlink:href="#ahve1Fir5" opacity="1" fill-opacity="0" stroke="#000000" stroke-width="1" stroke-opacity="0"></use></g></g><g><use xlink:href="#b1eE01FrG" opacity="1" fill="#e56e61" fill-opacity="1"></use><g><use xlink:href="#b1eE01FrG" opacity="1" fill-opacity="0" stroke="#000000" stroke-width="1" stroke-opacity="0"></use></g></g><g><use xlink:href="#e1vZM5gg2H" opacity="1" fill="#3f3b51" fill-opacity="1"></use><g><use xlink:href="#e1vZM5gg2H" opacity="1" fill-opacity="0" stroke="#000000" stroke-width="1" stroke-opacity="0"></use></g></g><g><use xlink:href="#bF3YXjIjn" opacity="1" fill="#3f3b51" fill-opacity="1"></use><g><use xlink:href="#bF3YXjIjn" opacity="1" fill-opacity="0" stroke="#000000" stroke-width="1" stroke-opacity="0"></use></g></g><g><use xlink:href="#b17GXZKg9q" opacity="1" fill="#3f3b51" fill-opacity="1"></use><g><use xlink:href="#b17GXZKg9q" opacity="1" fill-opacity="0" stroke="#000000" stroke-width="1" stroke-opacity="0"></use></g></g><g><use xlink:href="#c14jWaNWHG" opacity="1" fill="#3f3b51" fill-opacity="1"></use><g><use xlink:href="#c14jWaNWHG" opacity="1" fill-opacity="0" stroke="#000000" stroke-width="1" stroke-opacity="0"></use></g></g><g><use xlink:href="#c7NJYSqCA" opacity="1" fill="#f4586f" fill-opacity="1"></use><g><use xlink:href="#c7NJYSqCA" opacity="1" fill-opacity="0" stroke="#000000" stroke-width="1" stroke-opacity="0"></use></g></g><g><use xlink:href="#hIc8bL1XV" opacity="1" fill="#fca897" fill-opacity="1"></use><g><use xlink:href="#hIc8bL1XV" opacity="1" fill-opacity="0" stroke="#000000" stroke-width="1" stroke-opacity="0"></use></g></g><g><use xlink:href="#a1UC5e6Ac8" opacity="1" fill="#ffd0c7" fill-opacity="1"></use><g><use xlink:href="#a1UC5e6Ac8" opacity="1" fill-opacity="0" stroke="#000000" stroke-width="1" stroke-opacity="0"></use></g></g><g><use xlink:href="#axlf2ORH0" opacity="1" fill="#ef9181" fill-opacity="1"></use><g><use xlink:href="#axlf2ORH0" opacity="1" fill-opacity="0" stroke="#000000" stroke-width="1" stroke-opacity="0"></use></g></g><g><use xlink:href="#dcn1oJuuh" opacity="1" fill="#3e455b" fill-opacity="1"></use><g><use xlink:href="#dcn1oJuuh" opacity="1" fill-opacity="0" stroke="#000000" stroke-width="1" stroke-opacity="0"></use></g></g><g><use xlink:href="#d3MXf2xw4i" opacity="1" fill="#3e455b" fill-opacity="1"></use><g><use xlink:href="#d3MXf2xw4i" opacity="1" fill-opacity="0" stroke="#000000" stroke-width="1" stroke-opacity="0"></use></g></g><g><use xlink:href="#asaguDzRf" opacity="1" fill="#565272" fill-opacity="1"></use><g><use xlink:href="#asaguDzRf" opacity="1" fill-opacity="0" stroke="#000000" stroke-width="1" stroke-opacity="0"></use></g></g><g><g><use xlink:href="#aWNG1hN1x" opacity="1" fill-opacity="0" stroke="#000000" stroke-width="1" stroke-opacity="1"></use></g></g><g><use xlink:href="#b2d0lHyTlS" opacity="1" fill="#87491f" fill-opacity="1"></use><g><use xlink:href="#b2d0lHyTlS" opacity="1" fill-opacity="0" stroke="#000000" stroke-width="1" stroke-opacity="0"></use></g></g><g><use xlink:href="#aa6uNzfFg1" opacity="1" fill="#87491f" fill-opacity="1"></use><g><use xlink:href="#aa6uNzfFg1" opacity="1" fill-opacity="0" stroke="#000000" stroke-width="1" stroke-opacity="0"></use></g></g></g></g></svg>