<?xml version="1.0" encoding="UTF-8" standalone="no"?>
<!DOCTYPE svg PUBLIC "-//W3C//DTD SVG 1.1//EN" "http://www.w3.org/Graphics/SVG/1.1/DTD/svg11.dtd">
<svg version="1.1" xmlns="http://www.w3.org/2000/svg" xmlns:xlink="http://www.w3.org/1999/xlink" preserveAspectRatio="xMidYMid meet" viewBox="0 0 375 375" width="375" height="375"><defs><path d="M202.11 270.67C204.08 278.02 210.5 284.96 213.17 285.24C216.22 285.24 219.34 284.42 221.63 282.26C220.63 278.51 219.4 274.63 218.39 270.88C218.02 269.47 217.63 268.04 216.82 266.83C215.35 264.62 212.57 263.45 209.92 263.63C207.28 263.8 204.8 265.21 203.02 267.18C202.15 268.15 201.77 269.41 202.11 270.67" id="g2PGUUf8BO"></path><path d="M208.62 248.3C208.17 247.46 207.4 246.49 206.49 246.78C205.57 247.07 205.51 248.33 205.66 249.28C206.26 253.02 207.38 256.66 208.51 260.28C208.89 261.52 209.29 262.79 210.02 263.87C210.75 264.95 211.87 265.84 213.17 265.97C213.35 265.98 213.54 265.98 213.69 265.89C213.82 265.8 213.89 265.65 213.96 265.51C215.86 261.03 210.68 252.16 208.62 248.3" id="b2PDenQrtH"></path><path d="M207.29 260.87C205.93 261.28 205.65 263.12 205.41 263C204.15 262.39 203.59 261.53 202.79 261.97C201.98 262.41 202.25 264.39 201.37 264.52C200.98 263.88 198.47 264.09 198.89 266.83C199.32 269.65 201.2 273.77 203.53 272.85C204.22 272.58 205.07 271.57 205.16 270.96C205.65 271.61 206.45 272.14 207.37 272.19C208.29 272.23 209.26 271.63 209.26 270.86C210.45 271.7 210.45 271.7 212.92 271.12C213.88 270.9 212.16 259.39 207.29 260.87" id="c2i4zS6sF8"></path><path d="M218.69 271.96C217.88 269.11 216.98 260.61 215.16 259.96C213.24 259.28 207.6 262.43 206.75 263.47C205.9 264.51 205.61 266.15 206.48 267.18C207.16 267.98 211.31 267.16 212.19 266.59C211.17 267.61 210.56 276.6 214.99 275.96C216.43 275.76 219.09 273.36 218.69 271.96" id="a29axKWUyr"></path><path d="M207.61 286.96L221.92 274.42C235.87 301.26 243.62 316.17 245.17 319.15C245.17 319.15 243.3 337.59 231.67 338.8C224.76 339.52 207.61 286.96 207.61 286.96" id="bRA2xLvav"></path><path d="M269.27 235.76C269.27 235.76 241.65 248.75 239.12 256.13C236.59 263.52 230.36 328.44 230.36 328.44C231.5 328.77 237.19 330.43 247.44 333.4C259.08 281.33 266.36 248.78 269.27 235.76Z" id="a4hH78syEm"></path><path d="M294.13 236.73C294.13 236.73 328.57 240.1 333.98 243.71C339.4 247.32 354.19 330.67 349.17 338.89C343.75 347.74 313.59 348.43 313.59 348.43C307.01 348.43 254.39 348.43 247.81 348.43C247.81 348.43 246.95 248.62 249.82 246.79C257.86 241.64 269.27 235.76 269.27 235.76C274.24 235.96 289.16 236.54 294.13 236.73Z" id="aVHC0sb8M"></path><path d="M279.74 245.06L271.38 250.13L276.28 256.35L271.38 348.43L294.91 348.43L281.66 256.35L285.13 249.09L279.74 245.06Z" id="batShznCv"></path><path d="M263.47 238.85L269.51 251.26L279.74 245.06L288.02 251.26L299.85 237.34" id="b3wLjfq7Ot"></path><path d="M269.27 235.76L270.02 202.68L290.63 190.87C292.73 218.39 293.89 233.67 294.13 236.73C294.13 236.73 279.28 248.4 269.27 235.76" id="dsIhZYjmf"></path><path d="M286.35 207.73C286.35 207.73 282.81 223.93 269.51 225.09C269.55 223.94 269.72 218.19 270.02 207.83C278.73 207.78 284.17 207.75 286.35 207.73Z" id="a1uN2A9uiM"></path><path d="M251.27 195.3C253.87 222.05 260.43 229.07 277.12 216.25C286.3 209.21 292.88 203.19 291.53 185.57C290.62 173.58 281.7 168.18 265.72 169.7C252.99 170.91 250.16 183.89 251.27 195.3" id="cYnrN564E"></path><path d="M297.1 172.05C296.39 169.8 295.23 167.47 293.03 166.36C290.02 164.86 289.29 165.64 286.22 166.99C286.34 164.03 284.41 161.3 282.4 161.08C267.53 159.48 235.73 166.56 234.03 170.39C232.35 174.19 239.45 176.52 241.13 176.88C239.76 176.8 236.33 178.45 235.58 179.53C234.12 181.61 236.87 184.01 245.07 184.05C240.76 186.88 244.99 190.18 252.37 187.87C255.06 187.03 267.5 182.74 274.84 179.79C279.93 177.75 285.9 180.15 287.66 185.11C290.46 192.97 291.13 204.71 291.71 204.98C295.84 206.92 297.95 201.64 298.22 193.49C298.41 187.66 298.86 177.65 297.1 172.05" id="b3GwEW5e9"></path><path d="M267.4 191.78C267.38 192.52 270.58 193.4 272.49 193.56C274.39 193.72 275.07 193.17 275.09 192.43C275.11 191.69 272.79 190.89 270.89 190.73C268.98 190.56 267.42 191.03 267.4 191.78" id="ayg1nwNm9"></path><path d="M267.42 198.12C267.36 199.2 267.73 200.11 268.25 200.14C268.77 200.16 269.24 199.3 269.29 198.21C269.35 197.12 268.98 196.22 268.46 196.19C267.94 196.17 267.47 197.03 267.42 198.12" id="c3CXxWofU6"></path><path d="M260.73 191.21C260.71 191.95 257.48 192.28 255.57 192.12C253.67 191.96 253.03 191.3 253.05 190.56C253.06 189.81 255.41 189.41 257.32 189.57C259.22 189.73 260.75 190.47 260.73 191.21" id="a1OedaPDXm"></path><path d="M259.92 197.73C259.86 198.81 259.4 199.68 258.88 199.65C258.36 199.62 257.99 198.72 258.04 197.63C258.1 196.54 258.57 195.68 259.08 195.71C259.6 195.73 259.98 196.64 259.92 197.73" id="a1516dL5F"></path><path d="M263.82 194.9C263.26 198.61 261.86 206.47 262.35 207.24C262.84 207.99 264.21 207.91 264.69 207.24" id="bX05wUS2D"></path><path d="M267.1 211.6C267.1 211.6 265.99 213.53 264.59 213.64C263.2 213.74 261.79 212.41 261.79 212.41" id="a1LPjuaknU"></path><path d="M288.02 191.2C288.02 194.48 290.67 197 293.94 196.81C297.2 196.63 299.85 193.82 299.85 190.53C299.85 187.25 297.2 184.73 293.94 184.92C290.67 185.1 288.02 187.91 288.02 191.2" id="c5jpZlHwC2"></path><path d="M297.15 189.06C294.78 188.85 292.32 189.81 290.72 191.58C292.27 191.45 293.99 192.03 295.18 193.04" id="a3MKxHpaxA"></path><path d="M276.28 336.92L199.7 336.92C192.22 311.7 188.06 297.69 187.23 294.89C186.62 292.84 187.79 291.18 189.84 291.18C196.76 291.18 252.08 291.18 259 291.18C261.05 291.18 263.2 292.84 263.81 294.89C265.47 300.49 269.63 314.5 276.28 336.92Z" id="dt24OTUrI"></path><path d="M273.65 336.92L199.7 336.92C192.22 311.7 188.06 297.69 187.23 294.89C186.62 292.84 187.79 291.18 189.84 291.18C196.49 291.18 249.72 291.18 256.37 291.18C258.42 291.18 260.58 292.84 261.19 294.89C262.85 300.49 267 314.5 273.65 336.92Z" id="a4SO3x3ciM"></path><path d="M230.07 340.69C276.02 340.69 301.55 340.69 306.65 340.69C307.7 340.69 308.55 339.85 308.55 338.8C308.55 337.75 307.7 336.91 306.65 336.91C298.99 336.91 237.73 336.91 230.07 336.91C229.03 336.91 228.18 337.75 228.18 338.8C228.18 339.85 229.03 340.69 230.07 340.69" id="cfZbFym9E"></path><path d="M199.7 340.69C245.65 340.69 271.17 340.69 276.28 340.69C277.32 340.69 278.17 339.85 278.17 338.8C278.17 337.75 277.32 336.91 276.28 336.91C268.62 336.91 207.36 336.91 199.7 336.91C198.65 336.91 197.8 337.75 197.8 338.8C197.8 339.85 198.65 340.69 199.7 340.69" id="d598NPQGp"></path><path d="M223.14 314.05C223.88 316.87 226.77 319.15 229.59 319.15C232.41 319.15 234.09 316.87 233.35 314.05C232.6 311.23 229.71 308.94 226.89 308.94C224.07 308.94 222.39 311.23 223.14 314.05" id="b17401yti0"></path><path d="M299.74 339.58C301.73 339.58 302.83 339.58 303.05 339.58C303.44 339.58 303.75 339.27 303.75 338.89C303.75 338.5 303.44 338.19 303.05 338.19C302.72 338.19 300.07 338.19 299.74 338.19C299.36 338.19 299.05 338.5 299.05 338.89C299.05 339.27 299.36 339.58 299.74 339.58" id="aqg49T2GW"></path><path d="M296.57 338.89C296.57 339.27 296.88 339.58 297.26 339.58C297.64 339.58 297.96 339.27 297.96 338.89C297.96 338.5 297.64 338.19 297.26 338.19C296.88 338.19 296.57 338.5 296.57 338.89" id="a8NQM7U3s"></path><path d="M294.22 338.89C294.22 339.27 294.53 339.58 294.91 339.58C295.3 339.58 295.61 339.27 295.61 338.89C295.61 338.5 295.3 338.19 294.91 338.19C294.53 338.19 294.22 338.5 294.22 338.89" id="b1Zid0q3ZD"></path><path d="M313.59 348.43C308.63 348.88 301.79 348.79 299.81 348.88C295.35 349.08 276.28 342.23 278.17 340.69C279.25 339.82 281.52 340.23 282.38 340.56C282.16 340.67 282.14 339.05 282.82 338.59C284.54 337.43 290.7 341.63 299.85 340.61C298.82 340.13 296.76 339.05 295.69 336.7C295.08 335.34 296.39 334.14 296.94 334.41C299.11 335.49 301.18 336.65 303.37 337.67C305.84 338.82 307.85 340.12 312.75 340.69C313.22 340.75 313.68 348.42 313.59 348.43" id="c9gnfDhPuG"></path><path d="M329.6 248.39C325.03 252.46 321.31 257.79 320.36 263.84C319.78 267.55 320.25 271.34 320.73 275.06C323 292.86 325.28 310.65 327.55 328.44" id="iuf0ptxaP"></path><path d="M333.45 326.76L311.75 331.52L313.59 348.43" id="i1X9WYZHp3"></path><path d="M87.9 244.68C87.9 244.68 65.33 255.53 60.4 260.28C55.7 264.82 60.4 348.43 60.4 348.43C68.77 348.43 135.74 348.43 144.11 348.43C144.11 348.43 144.11 270.47 141.58 264.98C137.59 256.33 112.76 243.71 112.76 243.71C107.79 243.91 92.88 244.49 87.9 244.68Z" id="a24ISMXoP0"></path><path d="M82.18 247.51C82.18 247.51 87.9 273.77 88.8 348.43" id="bQKfBaRHE"></path><path d="M118.44 246.79C118.44 246.79 124.71 250.5 123.55 348.43" id="b2iZ4PSN8e"></path><path d="M132.97 260.28C132.97 260.28 137.54 305.75 138.04 348.43" id="a1OdOh6Mc2"></path><path d="M87.9 244.68C87.9 244.68 94.5 284.25 94.01 348.43C96.46 348.43 116.06 348.43 118.51 348.43C118.51 348.43 121.4 280.68 112.76 243.71C107.79 243.91 92.88 244.49 87.9 244.68Z" id="cL4TeZKcd"></path><path d="M99.67 148.66C105.03 157.96 100.91 170.39 90.46 176.42C80.01 182.46 67.18 179.81 61.81 170.52C56.44 161.22 60.56 148.79 71.02 142.75C81.47 136.72 94.3 139.36 99.67 148.66" id="a1a50U5CI3"></path><path d="M106.75 166.36C110.75 173.29 106.93 182.99 98.21 188.02C89.49 193.05 79.18 191.52 75.18 184.59C71.18 177.66 75 167.96 83.72 162.93C92.44 157.9 102.75 159.43 106.75 166.36" id="b56IJXzCuI"></path><path d="M132.97 194.43C132.97 212.22 119.11 226.64 102.02 226.64C84.93 226.64 71.07 212.22 71.07 194.43C71.07 176.64 84.93 162.22 102.02 162.22C119.11 162.22 132.97 176.64 132.97 194.43" id="c2utHfjKrf"></path><path d="M144.11 194.86C144.11 208.68 135.42 219.89 124.71 219.89C113.99 219.89 105.31 208.68 105.31 194.86C105.31 181.04 113.99 169.83 124.71 169.83C135.42 169.83 144.11 181.04 144.11 194.86" id="mR1wyb53e"></path><path d="M112.76 243.71L112.01 210.63L91.4 198.82C89.3 226.34 88.14 241.63 87.9 244.68C87.9 244.68 102.75 256.35 112.76 243.71" id="c5ENuy0FZH"></path><path d="M98.61 215.78C98.61 215.78 98.71 227.92 112.01 229.09C112.01 228.2 112.01 223.77 112.01 215.78C104.86 215.78 100.4 215.78 98.61 215.78Z" id="c1YEJSTE0Y"></path><path d="M127.67 202.18C125.07 228.93 117.29 225.89 104.59 220.44C95.11 216.37 89.24 205.72 92.05 194.69C94.87 183.65 105.05 177.3 114.79 180.49C124.54 183.68 128.78 190.77 127.67 202.18" id="aePXMMrPk"></path><path d="M94.01 199.15C94.01 202.43 91.36 204.95 88.1 204.76C84.83 204.58 82.18 201.77 82.18 198.49C82.18 195.2 84.83 192.69 88.1 192.87C91.36 193.05 94.01 195.87 94.01 199.15" id="hzockTzCZ"></path><path d="M84.88 197.01C87.26 196.8 89.71 197.76 91.31 199.53C89.76 199.41 88.04 199.98 86.86 200.99" id="b2gONb6QWK"></path><path d="M114.78 194.76C114.85 195.33 111.71 196.16 109.81 196.38C107.92 196.59 107.22 196.2 107.15 195.63C107.09 195.06 109.35 194.33 111.24 194.11C113.13 193.89 114.72 194.18 114.78 194.76" id="buU6L8twI"></path><path d="M115.16 201.75C115.28 202.83 114.97 203.76 114.45 203.82C113.94 203.88 113.42 203.05 113.29 201.96C113.17 200.88 113.49 199.95 114 199.89C114.52 199.83 115.04 200.66 115.16 201.75" id="d29jSJgEpw"></path><path d="M121.41 194C121.47 194.57 124.72 194.67 126.61 194.45C128.5 194.24 129.1 193.7 129.04 193.13C128.97 192.55 126.6 192.35 124.71 192.57C122.82 192.79 121.34 193.43 121.41 194" id="bwZI5XFYJ"></path><path d="M122.62 200.9C122.74 201.98 123.26 202.81 123.78 202.75C124.29 202.69 124.61 201.76 124.48 200.68C124.36 199.6 123.84 198.77 123.33 198.83C122.81 198.89 122.49 199.81 122.62 200.9" id="ajxMhE9tX"></path><path d="M118.55 198.31C119.34 201.98 121.22 209.75 120.78 210.54C120.34 211.32 118.96 211.32 118.44 210.68" id="avt49IfR6"></path><path d="M116.31 215.19C116.31 215.19 117.54 217.05 118.94 217.06C120.34 217.08 121.66 215.66 121.66 215.66" id="a1yN3zQuqR"></path><path d="M126.65 181.36C126.65 181.36 114.92 192.94 103.53 193.81C102.39 193.9 93.29 194.6 92.15 194.69C92.15 194.69 88.37 181.75 94.01 177.87C99.65 173.99 126.65 181.36 126.65 181.36" id="cdFPs2nk0"></path><path d="M88.8 255.48C88.8 255.48 97.15 260.13 103.44 259.14C109.72 258.16 114.78 252.99 114.78 252.99" id="c1rlnC3lbc"></path><path d="M181.53 294.8L139.81 294.8L109.06 348.43L148.77 348.43L181.53 294.8Z" id="d2nkSD739N"></path><path d="M-31.02 349.83L429.78 349.83L429.78 481.35L-31.02 481.35L-31.02 349.83Z" id="h1QTJtOD9E"></path><path d="M80.64 325.69C83.32 325.23 112.01 314.52 114.69 314.07C114.22 314.46 114.3 315.16 114.81 315.47C116.06 316.23 122.51 312.28 122.36 310.94C122.25 309.87 121.63 308.41 120.99 307.54C123.25 307.73 125.67 307.87 127.95 307.87C130.7 307.87 131.32 307.52 131.4 306.29C131.46 305.46 127.75 305 123 304.31C121.01 304.02 117.83 303.21 116.03 304.09C102.74 310.64 79.56 315.57 74.79 316.83C72.78 320.28 74.79 325.69 80.64 325.69" id="b1nPWMYPif"></path><path d="M60.4 260.28C60.4 260.28 49.91 267.12 40.38 333.4C38.74 344.82 80.74 328.73 80.74 328.73C80.63 327.87 80.07 323.55 79.07 315.78L60.53 319.87C60.46 288.09 60.42 268.23 60.4 260.28Z" id="cMiDdS9CY"></path><path d="M71.73 314.61L82.02 312.61L87.12 330.55C79.87 332.26 75.84 333.21 75.03 333.4C75.03 333.4 68.99 328.62 71.73 314.61" id="h12WtXSN16"></path><path d="M54.49 319.54L79.07 315.78" id="a2etSzLkMT"></path><path d="M62.8 262.7C68.03 266.99 73.65 271.97 74.4 278.7C74.86 282.78 68.04 306.49 64.1 318.07" id="b4FXntPaV"></path><path d="M410.94 351.24L-28.79 351.24L-28.79 348.43L410.94 348.43L410.94 351.24Z" id="igoAQpIc0"></path><path d="M183.72 294.8L137.46 294.8L103.36 359.19L147.4 359.19L183.72 294.8Z" id="b3KXv9AI3"></path><path d="M158.74 336.94C158.74 336.94 165.5 333.58 167.68 329.94C169.87 326.31 169.38 323.65 169.38 321.02C169.38 318.98 164.61 308.29 162.69 309.33C161.26 310.1 164 316.46 164 316.46C164 316.46 160.51 309.45 159.05 310.7C157.6 311.95 161.82 320.1 161.82 320.1C161.82 320.1 158.32 314.42 156.87 315.73C155.41 317.04 159.92 322.82 159.92 322.82C159.92 322.82 156.53 318.79 155.17 320.34C153.81 321.89 163.24 329.58 163.24 329.58C162.34 331.05 159.64 335.47 158.74 336.94Z" id="b2dkOq7wM2"></path><path d="M423.5 246.79C306.04 182.37 314.38 118.15 448.5 54.14C549.3 246.99 540.96 311.21 423.5 246.79Z" id="aUpta8llR"></path><path d="M-2.61 -68.59C28.21 -58.27 54.15 -35.4 75.21 0.04C78.09 4.88 80.87 9.94 83.56 15.24C105.98 59.41 63.21 100.43 -44.76 138.32L-2.61 -68.59Z" id="a1ad9KT4Qe"></path></defs><g><g><g><use xlink:href="#g2PGUUf8BO" opacity="1" fill="#b2614e" fill-opacity="1"></use><g><use xlink:href="#g2PGUUf8BO" opacity="1" fill-opacity="0" stroke="#000000" stroke-width="1" stroke-opacity="0"></use></g></g><g><use xlink:href="#b2PDenQrtH" opacity="1" fill="#824639" fill-opacity="1"></use><g><use xlink:href="#b2PDenQrtH" opacity="1" fill-opacity="0" stroke="#000000" stroke-width="1" stroke-opacity="0"></use></g></g><g><use xlink:href="#c2i4zS6sF8" opacity="1" fill="#995343" fill-opacity="1"></use><g><use xlink:href="#c2i4zS6sF8" opacity="1" fill-opacity="0" stroke="#000000" stroke-width="1" stroke-opacity="0"></use></g></g><g><use xlink:href="#a29axKWUyr" opacity="1" fill="#b2614e" fill-opacity="1"></use><g><use xlink:href="#a29axKWUyr" opacity="1" fill-opacity="0" stroke="#000000" stroke-width="1" stroke-opacity="0"></use></g></g><g><use xlink:href="#bRA2xLvav" opacity="1" fill="#d8e4ff" fill-opacity="1"></use><g><use xlink:href="#bRA2xLvav" opacity="1" fill-opacity="0" stroke="#000000" stroke-width="1" stroke-opacity="0"></use></g></g><g><use xlink:href="#a4hH78syEm" opacity="1" fill="#d8e4ff" fill-opacity="1"></use><g><use xlink:href="#a4hH78syEm" opacity="1" fill-opacity="0" stroke="#000000" stroke-width="1" stroke-opacity="0"></use></g></g><g><use xlink:href="#aVHC0sb8M" opacity="1" fill="#edf3ff" fill-opacity="1"></use><g><use xlink:href="#aVHC0sb8M" opacity="1" fill-opacity="0" stroke="#000000" stroke-width="1" stroke-opacity="0"></use></g></g><g><use xlink:href="#batShznCv" opacity="1" fill="#6276e7" fill-opacity="1"></use><g><use xlink:href="#batShznCv" opacity="1" fill-opacity="0" stroke="#000000" stroke-width="1" stroke-opacity="0"></use></g></g><g><use xlink:href="#b3wLjfq7Ot" opacity="1" fill="#000000" fill-opacity="0"></use><g><use xlink:href="#b3wLjfq7Ot" opacity="1" fill-opacity="0" stroke="#2c1817" stroke-width="0.75" stroke-opacity="1"></use></g></g><g><use xlink:href="#dsIhZYjmf" opacity="1" fill="#b2614e" fill-opacity="1"></use><g><use xlink:href="#dsIhZYjmf" opacity="1" fill-opacity="0" stroke="#000000" stroke-width="1" stroke-opacity="0"></use></g></g><g><use xlink:href="#a1uN2A9uiM" opacity="1" fill="#995343" fill-opacity="1"></use><g><use xlink:href="#a1uN2A9uiM" opacity="1" fill-opacity="0" stroke="#000000" stroke-width="1" stroke-opacity="0"></use></g></g><g><use xlink:href="#cYnrN564E" opacity="1" fill="#b2614e" fill-opacity="1"></use><g><use xlink:href="#cYnrN564E" opacity="1" fill-opacity="0" stroke="#000000" stroke-width="1" stroke-opacity="0"></use></g></g><g><use xlink:href="#b3GwEW5e9" opacity="1" fill="#2c1817" fill-opacity="1"></use><g><use xlink:href="#b3GwEW5e9" opacity="1" fill-opacity="0" stroke="#000000" stroke-width="1" stroke-opacity="0"></use></g></g><g><use xlink:href="#ayg1nwNm9" opacity="1" fill="#2c1817" fill-opacity="1"></use><g><use xlink:href="#ayg1nwNm9" opacity="1" fill-opacity="0" stroke="#000000" stroke-width="1" stroke-opacity="0"></use></g></g><g><use xlink:href="#c3CXxWofU6" opacity="1" fill="#2c1817" fill-opacity="1"></use><g><use xlink:href="#c3CXxWofU6" opacity="1" fill-opacity="0" stroke="#000000" stroke-width="1" stroke-opacity="0"></use></g></g><g><use xlink:href="#a1OedaPDXm" opacity="1" fill="#2c1817" fill-opacity="1"></use><g><use xlink:href="#a1OedaPDXm" opacity="1" fill-opacity="0" stroke="#000000" stroke-width="1" stroke-opacity="0"></use></g></g><g><use xlink:href="#a1516dL5F" opacity="1" fill="#2c1817" fill-opacity="1"></use><g><use xlink:href="#a1516dL5F" opacity="1" fill-opacity="0" stroke="#000000" stroke-width="1" stroke-opacity="0"></use></g></g><g><use xlink:href="#bX05wUS2D" opacity="1" fill="#000000" fill-opacity="0"></use><g><use xlink:href="#bX05wUS2D" opacity="1" fill-opacity="0" stroke="#2c1817" stroke-width="0.5" stroke-opacity="1"></use></g></g><g><use xlink:href="#a1LPjuaknU" opacity="1" fill="#000000" fill-opacity="0"></use><g><use xlink:href="#a1LPjuaknU" opacity="1" fill-opacity="0" stroke="#2c1817" stroke-width="0.5" stroke-opacity="1"></use></g></g><g><use xlink:href="#c5jpZlHwC2" opacity="1" fill="#b2614e" fill-opacity="1"></use><g><use xlink:href="#c5jpZlHwC2" opacity="1" fill-opacity="0" stroke="#000000" stroke-width="1" stroke-opacity="0"></use></g></g><g><use xlink:href="#a3MKxHpaxA" opacity="1" fill="#000000" fill-opacity="0"></use><g><use xlink:href="#a3MKxHpaxA" opacity="1" fill-opacity="0" stroke="#2c1817" stroke-width="0.5" stroke-opacity="1"></use></g></g><g><use xlink:href="#dt24OTUrI" opacity="1" fill="#1c166e" fill-opacity="1"></use><g><use xlink:href="#dt24OTUrI" opacity="1" fill-opacity="0" stroke="#000000" stroke-width="1" stroke-opacity="0"></use></g></g><g><use xlink:href="#a4SO3x3ciM" opacity="1" fill="#231c8c" fill-opacity="1"></use><g><use xlink:href="#a4SO3x3ciM" opacity="1" fill-opacity="0" stroke="#000000" stroke-width="1" stroke-opacity="0"></use></g></g><g><use xlink:href="#cfZbFym9E" opacity="1" fill="#0a0726" fill-opacity="1"></use><g><use xlink:href="#cfZbFym9E" opacity="1" fill-opacity="0" stroke="#000000" stroke-width="1" stroke-opacity="0"></use></g></g><g><use xlink:href="#d598NPQGp" opacity="1" fill="#161157" fill-opacity="1"></use><g><use xlink:href="#d598NPQGp" opacity="1" fill-opacity="0" stroke="#000000" stroke-width="1" stroke-opacity="0"></use></g></g><g><use xlink:href="#b17401yti0" opacity="1" fill="#2c24b0" fill-opacity="1"></use><g><use xlink:href="#b17401yti0" opacity="1" fill-opacity="0" stroke="#000000" stroke-width="1" stroke-opacity="0"></use></g></g><g><use xlink:href="#aqg49T2GW" opacity="1" fill="#5e5d5b" fill-opacity="1"></use><g><use xlink:href="#aqg49T2GW" opacity="1" fill-opacity="0" stroke="#000000" stroke-width="1" stroke-opacity="0"></use></g></g><g><use xlink:href="#a8NQM7U3s" opacity="1" fill="#383837" fill-opacity="1"></use><g><use xlink:href="#a8NQM7U3s" opacity="1" fill-opacity="0" stroke="#000000" stroke-width="1" stroke-opacity="0"></use></g></g><g><use xlink:href="#b1Zid0q3ZD" opacity="1" fill="#383837" fill-opacity="1"></use><g><use xlink:href="#b1Zid0q3ZD" opacity="1" fill-opacity="0" stroke="#000000" stroke-width="1" stroke-opacity="0"></use></g></g><g><use xlink:href="#c9gnfDhPuG" opacity="1" fill="#b2614e" fill-opacity="1"></use><g><use xlink:href="#c9gnfDhPuG" opacity="1" fill-opacity="0" stroke="#000000" stroke-width="1" stroke-opacity="0"></use></g></g><g><use xlink:href="#iuf0ptxaP" opacity="1" fill="#000000" fill-opacity="0"></use><g><use xlink:href="#iuf0ptxaP" opacity="1" fill-opacity="0" stroke="#2c1817" stroke-width="0.75" stroke-opacity="1"></use></g></g><g><use xlink:href="#i1X9WYZHp3" opacity="1" fill="#000000" fill-opacity="0"></use><g><use xlink:href="#i1X9WYZHp3" opacity="1" fill-opacity="0" stroke="#2c1817" stroke-width="0.75" stroke-opacity="1"></use></g></g><g><use xlink:href="#a24ISMXoP0" opacity="1" fill="#423ead" fill-opacity="1"></use><g><use xlink:href="#a24ISMXoP0" opacity="1" fill-opacity="0" stroke="#000000" stroke-width="1" stroke-opacity="0"></use></g></g><g><use xlink:href="#bQKfBaRHE" opacity="1" fill="#000000" fill-opacity="0"></use><g><use xlink:href="#bQKfBaRHE" opacity="1" fill-opacity="0" stroke="#edf3ff" stroke-width="0.25" stroke-opacity="1"></use></g></g><g><use xlink:href="#b2iZ4PSN8e" opacity="1" fill="#000000" fill-opacity="0"></use><g><use xlink:href="#b2iZ4PSN8e" opacity="1" fill-opacity="0" stroke="#edf3ff" stroke-width="0.25" stroke-opacity="1"></use></g></g><g><use xlink:href="#a1OdOh6Mc2" opacity="1" fill="#000000" fill-opacity="0"></use><g><use xlink:href="#a1OdOh6Mc2" opacity="1" fill-opacity="0" stroke="#edf3ff" stroke-width="0.25" stroke-opacity="1"></use></g></g><g><use xlink:href="#cL4TeZKcd" opacity="1" fill="#edf3ff" fill-opacity="1"></use><g><use xlink:href="#cL4TeZKcd" opacity="1" fill-opacity="0" stroke="#000000" stroke-width="1" stroke-opacity="0"></use></g></g><g><use xlink:href="#a1a50U5CI3" opacity="1" fill="#2c1817" fill-opacity="1"></use><g><use xlink:href="#a1a50U5CI3" opacity="1" fill-opacity="0" stroke="#000000" stroke-width="1" stroke-opacity="0"></use></g></g><g><use xlink:href="#b56IJXzCuI" opacity="1" fill="#ffcc8a" fill-opacity="1"></use><g><use xlink:href="#b56IJXzCuI" opacity="1" fill-opacity="0" stroke="#000000" stroke-width="1" stroke-opacity="0"></use></g></g><g><use xlink:href="#c2utHfjKrf" opacity="1" fill="#2c1817" fill-opacity="1"></use><g><use xlink:href="#c2utHfjKrf" opacity="1" fill-opacity="0" stroke="#000000" stroke-width="1" stroke-opacity="0"></use></g></g><g><use xlink:href="#mR1wyb53e" opacity="1" fill="#2c1817" fill-opacity="1"></use><g><use xlink:href="#mR1wyb53e" opacity="1" fill-opacity="0" stroke="#000000" stroke-width="1" stroke-opacity="0"></use></g></g><g><use xlink:href="#c5ENuy0FZH" opacity="1" fill="#b2614e" fill-opacity="1"></use><g><use xlink:href="#c5ENuy0FZH" opacity="1" fill-opacity="0" stroke="#000000" stroke-width="1" stroke-opacity="0"></use></g></g><g><use xlink:href="#c1YEJSTE0Y" opacity="1" fill="#995343" fill-opacity="1"></use><g><use xlink:href="#c1YEJSTE0Y" opacity="1" fill-opacity="0" stroke="#000000" stroke-width="1" stroke-opacity="0"></use></g></g><g><use xlink:href="#aePXMMrPk" opacity="1" fill="#b2614e" fill-opacity="1"></use><g><use xlink:href="#aePXMMrPk" opacity="1" fill-opacity="0" stroke="#000000" stroke-width="1" stroke-opacity="0"></use></g></g><g><use xlink:href="#hzockTzCZ" opacity="1" fill="#b2614e" fill-opacity="1"></use><g><use xlink:href="#hzockTzCZ" opacity="1" fill-opacity="0" stroke="#000000" stroke-width="1" stroke-opacity="0"></use></g></g><g><use xlink:href="#b2gONb6QWK" opacity="1" fill="#000000" fill-opacity="0"></use><g><use xlink:href="#b2gONb6QWK" opacity="1" fill-opacity="0" stroke="#2c1817" stroke-width="0.5" stroke-opacity="1"></use></g></g><g><use xlink:href="#buU6L8twI" opacity="1" fill="#2c1817" fill-opacity="1"></use><g><use xlink:href="#buU6L8twI" opacity="1" fill-opacity="0" stroke="#000000" stroke-width="1" stroke-opacity="0"></use></g></g><g><use xlink:href="#d29jSJgEpw" opacity="1" fill="#2c1817" fill-opacity="1"></use><g><use xlink:href="#d29jSJgEpw" opacity="1" fill-opacity="0" stroke="#000000" stroke-width="1" stroke-opacity="0"></use></g></g><g><use xlink:href="#bwZI5XFYJ" opacity="1" fill="#2c1817" fill-opacity="1"></use><g><use xlink:href="#bwZI5XFYJ" opacity="1" fill-opacity="0" stroke="#000000" stroke-width="1" stroke-opacity="0"></use></g></g><g><use xlink:href="#ajxMhE9tX" opacity="1" fill="#2c1817" fill-opacity="1"></use><g><use xlink:href="#ajxMhE9tX" opacity="1" fill-opacity="0" stroke="#000000" stroke-width="1" stroke-opacity="0"></use></g></g><g><use xlink:href="#avt49IfR6" opacity="1" fill="#000000" fill-opacity="0"></use><g><use xlink:href="#avt49IfR6" opacity="1" fill-opacity="0" stroke="#2c1817" stroke-width="0.5" stroke-opacity="1"></use></g></g><g><use xlink:href="#a1yN3zQuqR" opacity="1" fill="#000000" fill-opacity="0"></use><g><use xlink:href="#a1yN3zQuqR" opacity="1" fill-opacity="0" stroke="#2c1817" stroke-width="0.5" stroke-opacity="1"></use></g></g><g><use xlink:href="#cdFPs2nk0" opacity="1" fill="#2c1817" fill-opacity="1"></use><g><use xlink:href="#cdFPs2nk0" opacity="1" fill-opacity="0" stroke="#000000" stroke-width="1" stroke-opacity="0"></use></g></g><g><use xlink:href="#c1rlnC3lbc" opacity="1" fill="#000000" fill-opacity="0"></use><g><use xlink:href="#c1rlnC3lbc" opacity="1" fill-opacity="0" stroke="#2c1817" stroke-width="0.75" stroke-opacity="1"></use></g></g><g><use xlink:href="#d2nkSD739N" opacity="1" fill="#f5a345" fill-opacity="1"></use><g><use xlink:href="#d2nkSD739N" opacity="1" fill-opacity="0" stroke="#000000" stroke-width="1" stroke-opacity="0"></use></g></g><g><use xlink:href="#h1QTJtOD9E" opacity="1" fill="#f1eeff" fill-opacity="1"></use></g><g><use xlink:href="#b1nPWMYPif" opacity="1" fill="#b2614e" fill-opacity="1"></use><g><use xlink:href="#b1nPWMYPif" opacity="1" fill-opacity="0" stroke="#000000" stroke-width="1" stroke-opacity="0"></use></g></g><g><use xlink:href="#cMiDdS9CY" opacity="1" fill="#423ead" fill-opacity="1"></use><g><use xlink:href="#cMiDdS9CY" opacity="1" fill-opacity="0" stroke="#000000" stroke-width="1" stroke-opacity="0"></use></g></g><g><use xlink:href="#h12WtXSN16" opacity="1" fill="#edf3ff" fill-opacity="1"></use><g><use xlink:href="#h12WtXSN16" opacity="1" fill-opacity="0" stroke="#000000" stroke-width="1" stroke-opacity="0"></use></g></g><g><use xlink:href="#a2etSzLkMT" opacity="1" fill="#000000" fill-opacity="0"></use><g><use xlink:href="#a2etSzLkMT" opacity="1" fill-opacity="0" stroke="#edf3ff" stroke-width="0.25" stroke-opacity="1"></use></g></g><g><use xlink:href="#b4FXntPaV" opacity="1" fill="#000000" fill-opacity="0"></use><g><use xlink:href="#b4FXntPaV" opacity="1" fill-opacity="0" stroke="#edf3ff" stroke-width="0.25" stroke-opacity="1"></use></g></g><g><use xlink:href="#igoAQpIc0" opacity="1" fill="#5d78ed" fill-opacity="1"></use><g><use xlink:href="#igoAQpIc0" opacity="1" fill-opacity="0" stroke="#000000" stroke-width="1" stroke-opacity="0"></use></g></g><g><use xlink:href="#b3KXv9AI3" opacity="1" fill="#e59840" fill-opacity="1"></use><g><use xlink:href="#b3KXv9AI3" opacity="1" fill-opacity="0" stroke="#000000" stroke-width="1" stroke-opacity="0"></use></g></g><g><use xlink:href="#b2dkOq7wM2" opacity="1" fill="#b2614e" fill-opacity="1"></use><g><use xlink:href="#b2dkOq7wM2" opacity="1" fill-opacity="0" stroke="#000000" stroke-width="1" stroke-opacity="0"></use></g></g><path></path><path></path><path></path><path></path><path></path><path></path><path></path><path></path><path></path><path></path><g><use xlink:href="#aUpta8llR" opacity="1" fill="#f1eeff" fill-opacity="1"></use></g><g><use xlink:href="#a1ad9KT4Qe" opacity="1" fill="#f1eeff" fill-opacity="1"></use></g></g></g></svg>