<?xml version="1.0" encoding="UTF-8" standalone="no"?>
<!DOCTYPE svg PUBLIC "-//W3C//DTD SVG 1.1//EN" "http://www.w3.org/Graphics/SVG/1.1/DTD/svg11.dtd">
<svg version="1.1" xmlns="http://www.w3.org/2000/svg" xmlns:xlink="http://www.w3.org/1999/xlink" preserveAspectRatio="xMidYMid meet" viewBox="0 0 640 640" width="640" height="640"><defs><path d="M189.53 32.37C197.43 33.31 201.82 33.83 202.7 33.93C202.7 33.93 203.77 42.2 198.88 41.75C193.98 41.3 189.53 32.37 189.53 32.37" id="k8lxEXfYw"></path><path d="M-28.3 736.51C-30.94 762.04 -87.21 815.8 -87.21 815.8C-91.73 816.48 -114.35 819.9 -155.06 826.04C-157.5 826.41 -158.85 826.61 -159.12 826.65C-159.12 826.65 -159.86 826.38 -161.2 825.88C-174.36 820.92 -245.2 793.3 -234.35 776.7C-222.4 758.41 -224.53 757.59 -236.14 736.17C-238.44 731.9 -239.92 728.55 -240.71 725.77C-243.95 714.51 -236.28 712.45 -228.45 697.63C-218.7 679.14 -228.47 671.05 -230.97 632.99C-231.03 631.99 -231.08 631.01 -231.07 630.05C-231.48 594.01 -194.1 577.02 -170.44 583.97C-169.13 568.43 -146.02 556.06 -112.15 562.8C-78.28 569.54 -83.6 611.85 -69.25 620.25C-54.91 628.65 -60.26 653.46 -48.08 668.55C-42.75 675.15 -37.78 684.12 -34.12 694.24C-30.98 702.84 -28.82 712.27 -28.11 721.84C-27.75 726.73 -27.8 731.65 -28.3 736.51" id="fo6sNQT0c"></path><path d="M-28.3 736.51C-30.94 762.04 -87.21 815.8 -87.21 815.8C-91.73 816.48 -114.35 819.9 -155.06 826.04C-158.75 825.94 -160.79 825.89 -161.2 825.88C-174.36 820.92 -245.2 793.3 -234.35 776.7C-222.4 758.41 -224.53 757.59 -236.14 736.17C-238.44 731.9 -239.92 728.55 -240.71 725.77C-213.33 716.16 -199.86 666.34 -199.86 666.34C-190.04 665.31 -111.47 657.08 -101.65 656.05C-101.65 656.05 -117.06 676.91 -84.75 691.25C-52.44 705.58 -41.95 689.15 -31.71 715.42C-30.78 717.81 -29.56 719.94 -28.11 721.84C-27.75 726.73 -27.8 731.65 -28.3 736.51" id="clJlHYd3m"></path><path d="M25.32 1047.17C25.32 1047.17 25.02 1047.48 24.44 1048.04C18.5 1053.86 -17.15 1087.44 -62.28 1101.01C-111.79 1115.91 -89.37 1115.11 -145.38 1095.89C-170.5 1087.27 -184.51 1075.57 -192.32 1065.28C-193.3 1064 -194.18 1062.73 -194.98 1061.49C-198.39 1056.19 -200.2 1051.45 -201.16 1048C-202.15 1044.35 -202.2 1042.13 -202.2 1042.13C-202.59 1041.25 -204.53 1036.9 -208.01 1029.06L-215.71 1011.69L-224.07 992.87L-231.77 975.51C-235.42 967.31 -237.44 962.76 -237.85 961.85C-237.85 961.85 -237.9 959.9 -238.07 956.53C-238.29 952.42 -238.66 946.16 -239.31 938.66C-239.82 932.82 -240.48 926.24 -241.36 919.33C-242.08 913.56 -242.96 907.55 -244.01 901.57C-245.16 895.05 -246.52 888.56 -248.12 882.42C-249.75 876.07 -251.67 870.1 -253.88 864.89C-258.35 854.39 -264.03 846.96 -271.25 845.6C-272.16 845.44 -244.08 785.13 -227.35 760.13C-214.28 740.57 -190.19 749.05 -167.92 754.65C-161.72 756.23 -155.65 757.56 -150.01 758.01C-148 757.5 -131.84 753.44 -129.82 752.94C-129.82 752.94 -122.02 744.97 -100.16 739.6C-91.35 737.44 -80.27 735.71 -66.51 735.07C-47.14 734.19 -28.44 784.93 -13.03 845.75C-11.57 851.54 -10.13 857.43 -8.72 863.38C-7.21 869.71 -5.75 876.11 -4.33 882.51C-3.03 888.4 -1.75 894.3 -0.51 900.19C0.85 906.61 2.15 913.02 3.42 919.36C4.6 925.34 5.76 931.25 6.87 937.07C8.12 943.6 9.31 950 10.45 956.25C11.28 960.81 12.08 965.27 12.85 969.63C13.1 971.09 13.37 972.56 13.62 973.99C14.79 980.72 15.89 987.15 16.9 993.21C17.96 999.56 18.94 1005.51 19.8 1010.96C20.99 1018.35 22 1024.82 22.81 1030.19C24.45 1040.93 25.32 1047.17 25.32 1047.17" id="d6zNKYhGn"></path><path d="M-123.06 799.97C-154.71 800.52 -166.83 780.38 -167.4 755.17C-161.21 756.73 -155.13 758.07 -149.49 758.52C-147.47 758.02 -131.33 753.96 -129.31 753.45C-129.31 753.45 -121.5 745.48 -99.64 740.11C-92.17 757.79 -93.13 799.48 -123.06 799.97" id="fYkQrE3t2"></path><path d="M-131.5 787.34C-150.51 786.06 -155.04 765.32 -155.04 765.32C-155.04 765.32 -155.43 752.04 -158.11 738.93C-159.18 733.73 -160.61 728.54 -162.53 724.21C-160 723.49 -147.33 719.88 -124.54 713.38C-121.26 712.44 -119.44 711.92 -119.07 711.82C-119.03 712.67 -118.89 713.76 -118.71 715.07C-117.98 719.92 -116.33 727.5 -114.65 734.77C-112.14 745.44 -109.54 755.5 -109.54 755.5C-109.54 755.5 -112.52 788.62 -131.5 787.34" id="a7yM5oh4L"></path><path d="M-114.65 734.77C-123.59 746.33 -136.34 747.27 -158.11 738.93C-159.18 733.73 -160.61 728.54 -162.53 724.21C-158.73 723.13 -128.34 714.46 -124.54 713.38C-122.44 713.87 -120.48 714.41 -118.71 715.07C-117.98 719.92 -116.33 727.5 -114.65 734.77" id="f1jeduIPRE"></path><path d="M-184.7 692.72C-185.39 699.44 -190.93 704.37 -197.05 703.73C-203.18 703.1 -207.59 697.14 -206.89 690.42C-206.19 683.7 -200.66 678.77 -194.53 679.41C-188.41 680.04 -184 686 -184.7 692.72" id="b3euzKCfR4"></path><path d="M-90.29 674.68C-90.98 681.4 -96.52 686.33 -102.64 685.69C-108.77 685.06 -113.18 679.1 -112.48 672.38C-111.78 665.67 -106.25 660.74 -100.12 661.37C-93.99 662.01 -89.59 667.97 -90.29 674.68" id="b2ee0DmTwJ"></path><path d="M-109.71 701.65C-115.9 715.18 -124.76 725.61 -133.75 730.98C-139.04 734.15 -144.35 735.59 -149.19 734.89C-174.42 731.25 -187.19 711.27 -193.59 693.82C-197.32 683.67 -198.89 674.37 -199.51 669.63C-199.78 667.54 -199.86 666.34 -199.86 666.34C-199.86 666.34 -183.78 659.4 -178.4 643.06C-170.18 649.74 -127.43 655.4 -103.26 644.38C-98.95 665.7 -102.48 685.81 -109.71 701.65" id="cWHc02vGV"></path><path d="M-109.71 701.65C-105.8 684.79 -103.46 664.62 -106.99 660.95C-112.54 655.19 -171.81 655.73 -171.81 655.73C-171.81 655.73 -185.28 664.88 -199.51 669.63C-199.78 667.54 -199.86 666.34 -199.86 666.34C-199.86 666.34 -183.78 659.4 -178.4 643.06C-170.18 649.74 -127.43 655.4 -103.26 644.38C-98.95 665.7 -102.48 685.81 -109.71 701.65" id="bCN6WcnCb"></path><path d="M-165.76 680.59C-165.37 683.77 -166.82 686.56 -169 686.83C-171.17 687.09 -173.24 684.72 -173.63 681.54C-174.01 678.35 -172.56 675.56 -170.39 675.3C-168.22 675.03 -166.15 677.4 -165.76 680.59" id="b2SEoxPJ99"></path><path d="M-123.04 673.1C-122.65 676.29 -124.1 679.08 -126.28 679.35C-128.45 679.61 -130.52 677.24 -130.91 674.06C-131.3 670.87 -129.85 668.08 -127.67 667.82C-125.5 667.55 -123.43 669.92 -123.04 673.1" id="a1qMG5xWD"></path><path d="M-148.94 674.39C-148.95 674.62 -148.95 674.85 -148.95 675.08C-148.96 677.1 -148.51 678.77 -147.82 680.16C-146.79 682.24 -145.25 683.67 -143.95 684.92C-143.31 685.54 -142.72 686.12 -142.26 686.69C-141.81 687.26 -141.5 687.81 -141.34 688.39C-141.22 688.87 -141.17 689.32 -141.17 689.75C-141.16 691.1 -141.71 692.28 -142.45 693.12C-143.18 693.96 -144.12 694.4 -144.68 694.38C-144.69 694.38 -144.79 694.38 -144.81 694.38C-145.3 694.32 -145.74 694.68 -145.79 695.18C-145.84 695.67 -145.49 696.11 -144.99 696.16C-144.96 696.16 -144.71 696.18 -144.68 696.18C-143.37 696.16 -142.11 695.43 -141.1 694.3C-140.1 693.18 -139.37 691.59 -139.37 689.75C-139.37 689.17 -139.44 688.56 -139.61 687.94C-139.93 686.73 -140.64 685.76 -141.44 684.9C-142.65 683.59 -144.1 682.43 -145.22 680.96C-146.33 679.47 -147.15 677.72 -147.16 675.08C-147.16 674.88 -147.15 674.68 -147.14 674.47C-147.12 673.98 -147.5 673.56 -148 673.53C-148.49 673.51 -148.91 673.89 -148.94 674.39" id="cgllwM9Qx"></path><path d="M-178.61 670.9C-178.61 670.9 -178.61 670.9 -178.61 670.89C-178.55 670.78 -177.74 669.45 -176.3 668.19C-174.86 666.92 -172.83 665.73 -170.26 665.73C-169.85 665.73 -169.41 665.76 -168.97 665.83C-168.48 665.9 -168.02 665.56 -167.95 665.07C-167.88 664.58 -168.21 664.13 -168.7 664.05C-169.24 663.97 -169.76 663.94 -170.26 663.94C-173.51 663.94 -176 665.48 -177.65 666.98C-179.29 668.48 -180.14 669.96 -180.17 670.01C-180.42 670.44 -180.27 670.99 -179.84 671.23C-179.41 671.48 -178.86 671.33 -178.61 670.9" id="a259m5XJsW"></path><path d="M-133.94 660.15L-134.17 659.96L-133.95 660.15L-133.94 660.15L-134.17 659.96C-134.04 660.08 -133.96 660.14 -133.95 660.15C-133.93 660.14 -133.48 659.62 -132.63 659.11C-131.78 658.61 -130.55 658.12 -128.93 658.12C-127.28 658.12 -125.2 658.62 -122.66 660.24C-122.24 660.51 -121.69 660.38 -121.42 659.96C-121.15 659.55 -121.28 658.99 -121.69 658.72C-124.47 656.96 -126.91 656.32 -128.93 656.32C-130.99 656.32 -132.58 656.98 -133.65 657.63C-134.72 658.29 -135.27 658.94 -135.32 659C-135.64 659.38 -135.59 659.94 -135.21 660.26C-134.83 660.58 -134.26 660.53 -133.94 660.15" id="a1FC2Ll2sX"></path><path d="M-147.55 715.35C-146.72 715.42 -145.92 715.46 -145.15 715.46C-141.02 715.46 -137.7 714.49 -135.28 713.1C-134.08 712.4 -133.1 711.6 -132.35 710.72C-131.62 709.85 -131.09 708.9 -130.92 707.84C-130.76 706.86 -131.43 705.94 -132.41 705.79C-133.39 705.63 -134.31 706.3 -134.46 707.27C-134.49 707.46 -134.66 707.9 -135.09 708.4C-135.73 709.16 -136.91 710.05 -138.6 710.72C-140.28 711.39 -142.47 711.87 -145.15 711.87C-145.82 711.87 -146.52 711.84 -147.24 711.77C-148.23 711.69 -149.1 712.42 -149.19 713.41C-149.27 714.4 -148.54 715.27 -147.55 715.35" id="bAKV26PWp"></path><path d="M-133.75 730.98C-139.04 734.15 -144.35 735.59 -149.19 734.89C-174.42 731.25 -187.19 711.27 -193.59 693.82C-188.68 696.26 -179.39 714.84 -166.52 722.64C-157.69 728 -145.35 731.78 -133.75 730.98" id="dMp4OEvzr"></path><path d="M-233.27 642.41C-232.99 646.61 -232.83 648.94 -232.8 649.41C-233.17 647.06 -233.33 644.73 -233.27 642.41" id="e23LRqJb9l"></path><path d="M-34.12 694.24C-36.99 689.2 -41.72 682.79 -48.97 677.97C-62.89 668.73 -63.99 651.68 -65.85 638.58C-67.72 625.48 -84.98 629.69 -83.94 617.36C-82.89 605.01 -92.71 577.49 -116.31 570.68C-139.92 563.84 -161.65 582.33 -166.53 594.5C-189.64 584.09 -222.37 603.79 -231.07 630.05C-231.48 594.01 -194.1 577.02 -170.44 583.97C-169.13 568.43 -146.02 556.06 -112.15 562.8C-78.28 569.54 -83.6 611.85 -69.25 620.25C-54.91 628.65 -60.26 653.46 -48.08 668.55C-42.75 675.15 -37.78 684.12 -34.12 694.24" id="a11DaZDVQG"></path><path d="M-247.6 882.93C-247.6 882.93 -247.6 882.93 -247.6 882.93C-249.24 876.58 -251.15 870.61 -253.37 865.4C-229.28 863.49 -36.6 848.17 -12.51 846.26C-11.05 852.05 -9.61 857.94 -8.2 863.9C-24.16 865.16 -103.96 871.51 -247.6 882.93" id="a17Z51DbET"></path><path d="M-240.84 919.84C-240.84 919.84 -240.84 919.84 -240.84 919.84C-241.56 914.07 -242.44 908.06 -243.5 902.08C-219.53 900.18 -27.78 884.93 -3.82 883.02C-2.51 888.91 -1.23 894.81 0.01 900.7C-16.05 901.97 -96.33 908.35 -240.84 919.84" id="aN1Mi4a3T"></path><path d="M-237.55 957.04C-237.55 957.04 -237.55 957.04 -237.55 957.04C-237.77 952.93 -238.14 946.67 -238.79 939.17C-214.52 937.24 -20.34 921.8 3.94 919.87C5.12 925.85 6.28 931.76 7.39 937.58C-8.94 938.88 -90.59 945.37 -237.55 957.04" id="a1pGbBp5Bq"></path><path d="M-223.56 993.38L-223.56 993.38L-231.25 976.02C-85.92 964.47 -5.18 958.05 10.97 956.76C11.8 961.32 12.59 965.78 13.37 970.14C13.62 971.6 13.89 973.07 14.14 974.5C-1.71 975.76 -80.94 982.05 -223.56 993.38" id="auUybn8u"></path><path d="M-207.49 1029.57L-207.49 1029.57L-215.19 1012.2C-75.63 1001.12 1.91 994.96 17.42 993.73C18.48 1000.07 19.45 1006.02 20.32 1011.47C5.13 1012.67 -70.8 1018.71 -207.49 1029.57" id="a1D8FIFhIR"></path><path d="M-191.8 1065.79C-191.8 1065.79 -191.8 1065.79 -191.8 1065.79C-192.79 1064.51 -193.67 1063.24 -194.46 1062C-197.87 1056.7 -199.69 1051.96 -200.64 1048.51C-178.25 1046.73 0.93 1032.48 23.33 1030.7C24.97 1041.44 25.84 1047.68 25.84 1047.68C25.84 1047.68 25.54 1047.99 24.96 1048.55C24.96 1048.55 24.96 1048.55 24.96 1048.55L-191.8 1065.79" id="b1oMCNtEeN"></path><path d="M510.68 649.41C293.16 649.41 172.31 649.41 148.14 649.41C148.14 649.41 147.1 643.37 146.13 632.31C145.94 629.86 145.72 627.14 145.53 624.19C145.12 617.97 144.77 610.68 144.63 602.45C144.58 599.83 144.54 597.13 144.54 594.32C144.52 587.59 144.63 580.33 144.93 572.58C145.04 569.93 145.16 567.23 145.32 564.48C145.67 557.57 146.18 550.31 146.85 542.73C147.1 540.07 147.37 537.35 147.65 534.61C147.81 533.11 147.97 531.61 148.14 530.11C152.63 490.24 159.54 454.9 176.83 428.75C182.76 419.76 189.91 411.86 198.62 405.24C210.44 396.23 225.09 389.59 243.43 385.76C252.96 386.45 329.2 391.93 338.73 392.61C366.93 383.04 393.76 389.63 415.15 407.93C430.02 420.62 442.24 439.01 450.45 461.56C451.39 464.12 452.36 466.88 453.38 469.76C459.62 487.44 467.27 510.71 474.93 534.61C475.8 537.31 476.66 540.01 477.53 542.73C479.86 550.01 482.17 557.32 484.41 564.48C485.28 567.21 486.13 569.91 486.98 572.58C489.32 580.11 491.6 587.4 493.76 594.32C494.62 597.1 495.45 599.82 496.28 602.45C498.76 610.47 501.02 617.81 502.98 624.19C503.88 627.1 504.71 629.82 505.47 632.31C508.72 642.96 510.68 649.41 510.68 649.41" id="a70jizTWn3"></path><path d="M196.32 649.41C167.42 649.41 151.36 649.41 148.14 649.41C148.14 649.41 147.1 643.37 146.13 632.31C145.94 629.86 145.72 627.14 145.53 624.19C145.12 617.97 144.77 610.68 144.63 602.45C144.58 599.83 144.54 597.13 144.54 594.32C144.52 587.59 144.63 580.33 144.93 572.58C145.04 569.93 145.16 567.23 145.32 564.48C145.67 557.57 146.18 550.31 146.85 542.73C147.1 540.07 147.37 537.35 147.65 534.61C147.81 533.11 147.97 531.61 148.14 530.11C152.63 490.24 159.54 454.9 176.83 428.75C182.76 419.76 189.91 411.86 198.62 405.24C178.42 461.12 176.63 579.2 196.32 649.41" id="d33zVRFzQ6"></path><path d="M510.68 649.41C502.68 649.41 498.23 649.41 497.34 649.41C479.96 623.6 468.22 555.8 458.44 525.14C448.4 493.69 444.91 465.93 453.38 469.76C474.15 528.69 510.68 649.41 510.68 649.41" id="a11H5wKE8d"></path><path d="M394.96 75.47C340.74 53.75 321.37 103.66 316.56 104.43C310.95 105.33 290.41 84.58 264.02 95.64C237.65 106.68 215.04 139.03 219.39 171.39C196.16 124.27 255.01 56.18 316.56 83.01C322.18 63 367.02 56.78 394.96 75.47" id="b5VBnsJzbT"></path><path d="M182.63 542.73C161.16 542.73 149.24 542.73 146.85 542.73C147.1 540.07 147.37 537.35 147.65 534.61C151.13 534.61 179.01 534.61 182.5 534.61C182.52 537.32 182.57 540.02 182.63 542.73" id="hZKPkggC8"></path><path d="M477.53 542.73C469.04 542.73 464.33 542.73 463.39 542.73C462.65 539.9 461.93 537.18 461.22 534.61C462.59 534.61 473.56 534.61 474.93 534.61C475.8 537.31 476.66 540.01 477.53 542.73" id="b23hWOzchS"></path><path d="M486.7 571.71L486.84 572.15L486.98 572.58L486.84 572.15L486.7 571.71L486.56 571.28L486.42 570.84L486.56 571.28L486.7 571.71Z" id="fFyf3Vxt3"></path><path d="M184.04 572.58C160.57 572.58 147.54 572.58 144.93 572.58C145.04 569.93 145.16 567.23 145.32 564.48C149.13 564.48 179.68 564.48 183.5 564.48C183.66 567.19 183.84 569.89 184.04 572.58" id="brHxsiw9S"></path><path d="M486.98 572.58C477.28 572.58 471.9 572.58 470.82 572.58C470.14 569.85 469.48 567.15 468.82 564.48C470.38 564.48 482.85 564.48 484.41 564.48C485.09 566.62 485.76 568.74 486.42 570.84C486.6 571.42 486.79 572 486.97 572.58" id="b2Iu1vzUaz"></path><path d="M289.22 603.35L289.3 603.6L289.85 605.36L290.47 607.36L289.85 605.37L289.3 603.6L289.22 603.34L288.58 601.3L287.94 599.23L287.94 599.23L288.59 601.3L289.22 603.35Z" id="c2iOadrhmN"></path><path d="M187.07 602.45L144.63 602.45C144.63 602.45 144.63 602.45 144.63 602.45C144.58 599.83 144.54 597.13 144.54 594.32C148.69 594.32 181.91 594.32 186.06 594.32C186.38 597.06 186.71 599.76 187.07 602.45" id="a2xh6sW09r"></path><path d="M231.56 649.41C232.6 591.37 246.84 511.19 240.99 498.83C261.18 518.08 246.61 527.7 247.58 586.02C248.05 614 249.91 634.77 252.5 649.41C251.11 649.41 244.13 649.41 231.56 649.41" id="dIhmGqjxw"></path><path d="M496.28 602.45C485.73 602.45 479.87 602.45 478.7 602.45C477.93 599.77 477.18 597.05 476.44 594.32C478.17 594.32 492.03 594.32 493.76 594.32C494.62 597.09 495.46 599.81 496.27 602.45" id="a1MfSql89l"></path><path d="M485.73 624.61L485.81 624.82L485.88 625.03L485.96 625.24L486.04 625.45L486.11 625.66L486.19 625.87L486.26 626.08L486.34 626.28L486.42 626.49L486.49 626.7L486.57 626.9L486.65 627.11L486.72 627.32L486.8 627.52L486.88 627.73L486.95 627.93L487.03 628.13L487.11 628.34L487.19 628.54L487.26 628.74L487.34 628.95L487.42 629.15L487.5 629.35L487.57 629.55L487.65 629.75L487.73 629.95L487.81 630.15L487.89 630.35L487.96 630.55L488.04 630.74L488.12 630.94L488.2 631.14L488.28 631.34L488.35 631.53L488.43 631.73L488.51 631.92L488.59 632.12L488.67 632.31L192.14 632.31L192.1 632.11L192.06 631.91L192.01 631.71L191.97 631.51L191.93 631.31L191.89 631.11L191.84 630.91L191.8 630.71L191.76 630.51L191.72 630.31L191.68 630.11L191.64 629.9L191.59 629.7L191.55 629.5L191.51 629.3L191.47 629.1L191.43 628.89L191.39 628.69L191.35 628.49L191.31 628.28L191.27 628.08L191.23 627.88L191.19 627.67L191.15 627.47L191.11 627.27L191.07 627.06L191.03 626.86L190.99 626.65L190.95 626.45L190.91 626.24L190.87 626.04L190.83 625.83L190.79 625.63L190.75 625.42L190.71 625.22L190.67 625.01L190.63 624.81L190.59 624.6L190.55 624.39L190.52 624.19L485.58 624.19L485.66 624.4L485.73 624.61Z" id="a1RimXt9f9"></path><path d="M463.39 542.73C294.93 542.73 201.34 542.73 182.63 542.73C182.57 540.02 182.52 537.32 182.5 534.61C210.37 534.61 433.35 534.61 461.22 534.61C461.93 537.18 462.65 539.9 463.39 542.73" id="e18mnApRRn"></path><path d="M415.15 407.93C388.73 407.06 362.18 428.94 329.42 438.71C281.01 453.14 245.85 403.85 236.22 398.42C228.77 394.24 208.25 402.26 176.83 428.75C190.81 407.55 211.6 392.4 243.43 385.76C252.96 386.45 329.2 391.93 338.73 392.61C366.93 383.04 393.76 389.63 415.15 407.93" id="a1L7qTk7jX"></path><path d="M309.9 426.84C283.09 425.29 258.83 410.42 247.77 397.4C245.95 395.26 244.49 393.18 243.43 391.22C235.92 377.23 246.45 376.79 264.5 358.3C270.27 358.3 316.43 358.3 322.2 358.3C322.2 358.3 334.45 373.22 344.08 385.23C348.14 390.3 351.74 394.86 353.76 397.52C360.52 406.55 341.13 428.64 309.9 426.84" id="afHVjPPxd"></path><path d="M344.08 385.23C337.61 423.52 299.75 407.27 286.11 400.01C274.49 393.81 263.19 391.06 247.77 397.4C245.95 395.26 244.49 393.18 243.43 391.22C235.92 377.23 246.45 376.79 264.5 358.3C270.27 358.3 316.43 358.3 322.2 358.3C322.2 358.3 334.45 373.22 344.08 385.23" id="bjW9nSBkR"></path><path d="M447.1 204.31C435.6 233.61 399.76 230.24 399.76 230.24C392.33 231.77 355.15 239.43 288.23 253.23L278.01 276.68L267.18 279.99L252.15 272.76C241.42 259.23 235.45 251.71 234.26 250.21C218.4 252.74 189.22 209.47 204.85 183.84C207.89 178.88 212.59 174.57 219.39 171.39C196.16 124.27 255.01 56.18 316.56 83.01C322.18 63 367.02 56.78 394.96 75.47C410.8 86.07 421.21 104.66 416 133.29C423.47 131.81 430.62 135.8 436.46 142.86C448.4 157.29 454.81 184.62 447.1 204.31" id="b3ir0P85U6"></path><path d="M447.1 204.31C435.6 233.61 399.76 230.24 399.76 230.24C392.33 231.77 355.15 239.43 288.23 253.23L278.01 276.68L267.18 279.99L252.15 272.76C241.42 259.23 235.45 251.71 234.26 250.21C218.4 252.74 189.22 209.47 204.85 183.84C221.69 217.34 254.55 199.33 254.55 199.33C254.55 199.33 278.01 210.6 298.44 201.69C318.89 192.81 322.2 154.19 322.2 154.19C322.2 154.19 408.45 189.07 436.46 142.86C448.4 157.29 454.81 184.62 447.1 204.31" id="bhLay8WHF"></path><path d="M337.58 379.12C338.07 383.31 338.73 385.8 338.73 385.8C338.73 385.8 333.92 403.25 316.56 402.34C299.22 401.44 263.88 381.29 262.68 373.19C262.47 371.77 262.69 369.21 263.21 365.82C264.43 357.56 267.32 344.4 269.67 331.31C271.9 318.79 273.63 306.34 272.9 298.32C280.63 301.33 342.43 325.37 350.15 328.38C343.87 337.09 340.44 346.15 338.69 354.41C336.55 364.48 336.91 373.4 337.58 379.12" id="c1mAjJZLa"></path><path d="M350.15 328.38C343.87 337.09 340.44 346.15 338.69 354.41C320.89 356.67 298.55 347.86 269.67 331.31C271.9 318.79 273.63 306.34 272.9 298.32C278.05 300.32 303.8 310.34 350.15 328.38" id="a1DP7jP2aB"></path><path d="M347.45 342.97C332.51 343 319.49 339.19 308.42 333.48C276.97 317.32 261.18 286.15 261.18 286.15C261.18 286.15 236.06 296.08 232.02 269.02C227.96 241.96 251.09 234 256.81 242.7C256.81 242.7 263.28 276.68 268.38 276.68C273.5 276.68 267.64 249.63 272.6 233.1C294.84 249.17 322.8 223.17 320.24 205.58C333.32 217.61 355.42 211.14 361.42 192.95C365.64 216.41 401.57 224.97 401.57 224.97C401.57 224.97 401.58 225.5 401.58 226.49C401.74 240.27 401.02 342.83 347.45 342.97" id="bTwPwn0MQ"></path><path d="M401.58 226.49C377.35 224.51 363.68 207.88 363.68 207.88C363.68 207.88 357.38 221.67 326.45 218.07C318.52 255.49 288.37 250.97 288.37 250.97C288.37 250.97 272.59 288.08 308.42 333.48C276.97 317.32 261.18 286.15 261.18 286.15C261.18 286.15 236.06 296.08 232.02 269.02C227.96 241.96 251.09 234 256.81 242.7C256.81 242.7 263.28 276.68 268.38 276.68C273.5 276.68 267.64 249.63 272.6 233.1C294.84 249.17 322.8 223.17 320.24 205.58C333.32 217.61 355.42 211.14 361.42 192.95C365.64 216.41 401.57 224.97 401.57 224.97C401.57 224.97 401.58 225.5 401.58 226.49" id="d6rfaIPmn"></path><path d="M333.02 260.82C333.02 265.55 330.6 269.39 327.61 269.39C324.62 269.39 322.2 265.55 322.2 260.82C322.2 256.09 324.62 252.26 327.61 252.26C330.6 252.26 333.02 256.09 333.02 260.82" id="eXhQTK0yx"></path><path d="M387.13 260.82C387.13 265.55 384.71 269.39 381.72 269.39C378.73 269.39 376.31 265.55 376.31 260.82C376.31 256.09 378.73 252.26 381.72 252.26C384.71 252.26 387.13 256.09 387.13 260.82" id="d2vzov2uAw"></path><path d="M317.8 244.58L317.69 244.46L317.8 244.58L317.8 244.58L317.69 244.46C317.76 244.53 317.79 244.57 317.8 244.58C317.86 244.52 318.97 243.47 320.81 242.47C322.66 241.46 325.2 240.51 328.17 240.51C330.36 240.51 332.81 241.01 335.48 242.46C336.34 242.92 337.41 242.61 337.88 241.75C338.34 240.89 338.02 239.82 337.16 239.35C333.99 237.63 330.92 236.97 328.17 236.97C324.32 236.98 321.13 238.24 318.91 239.49C316.69 240.73 315.41 241.97 315.33 242.05C314.64 242.73 314.62 243.84 315.3 244.54C315.98 245.24 317.1 245.26 317.8 244.58" id="a1VZKNZK2X"></path><path d="M392.83 242.05C392.75 241.97 391.48 240.73 389.25 239.49C387.03 238.24 383.85 236.98 379.99 236.97C377.24 236.97 374.17 237.63 371 239.35C370.14 239.82 369.82 240.89 370.29 241.75C370.75 242.61 371.82 242.92 372.68 242.46C375.36 241.01 377.8 240.51 379.99 240.51C383.05 240.51 385.67 241.52 387.53 242.57C388.45 243.09 389.18 243.6 389.67 243.99C389.91 244.18 390.1 244.34 390.22 244.44C390.23 244.45 390.27 244.48 390.34 244.55L390.37 244.58L390.47 244.46L390.37 244.58L390.37 244.58L390.47 244.46C390.41 244.53 390.37 244.57 390.37 244.58C391.06 245.26 392.18 245.24 392.86 244.54C393.54 243.84 393.53 242.73 392.83 242.05" id="b2S461yM8R"></path><path d="M356.5 249.55C356.49 249.96 356.48 250.37 356.48 250.77C356.47 257.17 358.58 261.91 360.55 265.77C361.54 267.71 362.48 269.44 363.16 271.08C363.83 272.71 364.24 274.21 364.24 275.77C364.23 276.88 364.04 278.04 363.54 279.36C362.28 282.63 360.93 284.37 359.83 285.26C358.73 286.14 357.89 286.27 357.3 286.28C357.03 286.28 356.81 286.24 356.68 286.21C356.67 286.21 356.63 286.2 356.55 286.17L356.55 286.17L356.16 287.15L356.58 286.19L356.55 286.17L356.16 287.15C356.41 286.57 356.56 286.25 356.58 286.19C355.69 285.79 354.65 286.19 354.25 287.09C353.86 287.98 354.26 289.02 355.15 289.42C355.31 289.48 356.09 289.81 357.3 289.81C358.59 289.82 360.36 289.4 362.07 287.99C363.78 286.59 365.43 284.29 366.83 280.62C367.48 278.94 367.77 277.32 367.77 275.77C367.77 273.59 367.2 271.6 366.42 269.72C365.25 266.9 363.62 264.27 362.32 261.28C361.02 258.3 360.02 254.99 360.01 250.77C360.01 250.42 360.02 250.06 360.04 249.7C360.07 248.72 359.32 247.9 358.34 247.86C357.37 247.82 356.55 248.58 356.51 249.55" id="b1LAP5ypJY"></path><path d="M329.62 307.66C333.1 314.91 339.34 318.53 345.3 318.52C350.13 318.53 354.78 316.12 357.39 311.61C357.88 310.77 357.6 309.69 356.75 309.2C355.91 308.71 354.83 308.99 354.34 309.84C352.36 313.22 348.99 314.97 345.3 314.99C340.77 314.98 335.8 312.3 332.81 306.13C332.38 305.25 331.33 304.88 330.45 305.3C329.57 305.72 329.2 306.78 329.62 307.66" id="g5uIIj8se"></path><path d="M245.14 261.26C245.56 259.64 246.09 258.55 246.53 257.99C246.75 257.71 246.93 257.56 247.05 257.49C247.06 257.49 247.2 257.43 247.22 257.43C247.25 257.43 247.38 257.43 247.69 257.7C248.13 258.09 248.75 259.07 249.2 260.56C249.65 262.05 249.95 264.03 249.95 266.4C249.95 266.65 249.94 266.91 249.93 267.16C249.89 269.33 249.55 270.62 249.27 271.13C249.13 271.39 249.04 271.45 249.04 271.46C249.04 271.46 249.05 271.48 249.07 271.5L249.06 271.45L249.04 271.46L249.07 271.5L249.06 271.45L249.06 271.48L249.06 271.45L249.06 271.45L249.06 271.48L249.06 271.45C249.05 271.45 249.04 271.45 249.04 271.45C248.98 271.46 248.69 271.4 248.33 271.18C247.78 270.88 247.12 270.31 246.64 269.82C246.4 269.58 246.2 269.35 246.06 269.2C246.05 269.19 246 269.13 245.91 269.02L245.87 268.98C245.87 268.97 245.87 268.97 245.87 268.97C245.26 268.21 244.15 268.08 243.39 268.68C242.62 269.29 242.5 270.4 243.1 271.16C243.14 271.21 243.81 272.06 244.82 272.96C245.32 273.41 245.91 273.87 246.59 274.26C247.28 274.64 248.07 274.97 249.04 274.98C249.68 274.99 250.4 274.8 251 274.4C251.91 273.78 252.48 272.83 252.85 271.68C253.22 270.52 253.42 269.1 253.47 267.26C253.47 266.97 253.48 266.68 253.48 266.4C253.47 262.84 252.9 259.94 251.92 257.78C251.43 256.7 250.83 255.79 250.07 255.09C249.32 254.4 248.33 253.9 247.22 253.9C246.53 253.89 245.84 254.1 245.26 254.45C244.37 254.97 243.69 255.76 243.12 256.75C242.56 257.73 242.09 258.93 241.72 260.38C241.48 261.33 242.05 262.29 243 262.53C243.94 262.77 244.9 262.21 245.14 261.26" id="c2DnIgcNsE"></path><path d="M338.73 385.8C338.73 385.8 333.92 403.25 316.56 402.34C299.22 401.44 263.88 381.29 262.68 373.19C262.47 371.77 262.69 369.21 263.21 365.82C286.87 386.45 315.57 402.26 337.58 379.12C338.07 383.31 338.73 385.8 338.73 385.8" id="a4a96iv4U"></path><path d="M192.14 632.31L146.13 632.31C146.13 632.31 146.13 632.31 146.13 632.31C145.94 629.86 145.72 627.14 145.53 624.19C150.03 624.19 186.02 624.19 190.52 624.19C191.03 626.94 191.57 629.65 192.14 632.31" id="b1ifXaF3Pm"></path><path d="M505.47 632.31C495.39 632.31 489.79 632.31 488.67 632.31C487.62 629.73 486.59 627.01 485.58 624.19C487.32 624.19 501.24 624.19 502.98 624.19C502.98 624.21 502.99 624.22 502.99 624.24C503.87 627.1 504.68 629.75 505.43 632.2C505.44 632.23 505.46 632.27 505.47 632.31" id="d3w4iQnC6C"></path><path d="M458.44 649.41C441.17 649.41 431.58 649.41 429.66 649.41C425.99 594.22 427.1 501.85 427.1 501.85C427.1 501.85 439.13 538.25 443.95 593.83C445.86 615.96 451.88 634.78 458.44 649.41" id="b1eY0CX8gq"></path><path d="M1235.53 97.59C997.06 97.59 864.57 97.59 838.07 97.59C838.07 97.59 859.61 -3.84 871.61 -55.72C873.38 -63.41 874.94 -70 876.2 -75.02C885.93 -113.95 935.42 -131.4 987.11 -165.47C996.42 -166.73 1070.9 -176.78 1080.21 -178.03C1080.21 -178.03 1156.04 -134.24 1186.86 -118C1204.56 -108.7 1217.96 -39.07 1226.19 18.57C1232.29 61.38 1235.53 97.59 1235.53 97.59" id="g1Py3q1drA"></path><path d="M1034.12 99.61C1029.47 99.61 1026.88 99.61 1026.37 99.61C1023.79 50.7 1017.03 -93.5 1024.22 -136.87C1024.74 -138.28 1028.91 -149.61 1029.43 -151.02C1022.71 -82.76 1031.26 57.34 1034.12 99.61" id="b2zibT8m"></path><path d="M1226.39 20.6C1203.15 8.61 1204.83 -51.98 1191.39 -82.32C1176.8 -115.31 1146.5 -133.15 1090.57 -139.16C1034.63 -145.18 1036.63 -155.15 999.69 -142.54C962.75 -129.94 879.6 -82.21 871.8 -53.69C873.58 -61.38 875.14 -67.97 876.4 -72.99C886.13 -111.93 935.61 -129.37 987.3 -163.44C996.61 -164.7 1071.1 -174.75 1080.41 -176.01C1080.41 -176.01 1156.24 -132.21 1187.06 -115.98C1204.75 -106.67 1218.16 -37.05 1226.39 20.6" id="b1u1tmwT09"></path><path d="M1092.69 -165.03C1089.1 -159.66 1083.2 -152.64 1078.98 -145.38C1071.07 -131.8 1071.27 -106.05 1057.88 -109.09C1044.51 -112.14 1031.53 -137.68 1024.22 -136.87C1016.93 -136.06 996.64 -106.65 989.35 -106.65C982.05 -106.65 971.71 -137.49 969.27 -149.04C968.48 -152.78 969.2 -155.69 970.64 -158.31C973.66 -163.79 979.92 -168.13 982.65 -176.61C986.72 -189.19 987.92 -187.97 1001.31 -190.21C1004.64 -190.33 1031.24 -191.3 1034.56 -191.42C1034.56 -191.42 1053.23 -193.04 1060.93 -195.23C1068.64 -197.42 1087.7 -177.03 1094.19 -174.39C1097.21 -173.17 1095.83 -169.73 1092.69 -165.03" id="b4N3dn6QEJ"></path><path d="M1092.69 -165.03C1081.74 -173.77 1064.17 -167.45 1053.62 -155.77C1040.85 -141.6 1032.4 -142.55 1032.4 -142.55C1032.4 -142.55 1046.73 -159.79 1041.46 -167.08C1037.02 -173.24 998.17 -162.82 970.64 -158.31C973.66 -163.79 979.92 -168.13 982.65 -176.61C986.72 -189.19 987.92 -187.97 1001.31 -190.21C1004.64 -190.33 1031.24 -191.3 1034.56 -191.42C1034.56 -191.42 1053.23 -193.04 1060.93 -195.23C1068.64 -197.42 1087.7 -177.03 1094.19 -174.39C1097.21 -173.17 1095.83 -169.73 1092.69 -165.03" id="b1iz9ENEIL"></path><path d="M1124.34 -352.86C1124.04 -352.03 1123.72 -351.22 1123.39 -350.41C1112.03 -322.83 1084.04 -294.84 1077.96 -274.56C1071.88 -254.29 1065.79 -231.97 1037.41 -250.64C1028.12 -256.44 953.81 -302.83 944.53 -308.63C924.32 -324.49 910.55 -358.48 906.32 -393.41C905.04 -404.02 904.62 -414.73 905.19 -425.04C915.01 -420.32 922.18 -411.81 922.62 -411.28C922.02 -412.57 904.48 -450.84 924.73 -488.71C924.84 -488.53 924.94 -488.36 925.05 -488.18C935.06 -471.45 947.26 -460.7 974.14 -459.1C1001.31 -457.48 1091.75 -470.06 1099.87 -412.87C1126.63 -410.9 1134.3 -379.89 1124.34 -352.86" id="bt0MqrvyN"></path><path d="M1124.34 -352.86C1124.04 -352.03 1123.72 -351.22 1123.39 -350.41C1112.03 -322.83 1084.04 -294.84 1077.96 -274.56C1071.88 -254.29 1065.79 -231.97 1037.41 -250.64C1028.12 -256.44 953.81 -302.83 944.53 -308.63C924.32 -324.49 910.55 -358.48 906.32 -393.41C928.74 -379.92 953.85 -392.17 987.3 -384.47C981.44 -392.58 981.84 -415.3 981.84 -415.3C981.84 -415.3 1002.03 -399.08 1033.31 -393.4C1063.06 -387.99 1105.6 -395.92 1124.34 -352.86" id="d55HrRdnnR"></path><path d="M961.03 -297.37C963.32 -286.41 959.74 -276.4 953.03 -274.99C946.32 -273.59 939.02 -281.33 936.73 -292.29C934.44 -303.24 938.02 -313.26 944.73 -314.66C951.45 -316.06 958.74 -308.32 961.03 -297.37" id="dY40lLRD5"></path><path d="M1067.56 -189.94C1067.29 -183.17 1037.82 -135.58 1025.38 -139.38C1012.94 -143.16 998.61 -176.42 998.61 -176.42C998.61 -176.42 998.61 -176.71 998.58 -177.28C998.52 -179.77 998.23 -187.62 997.17 -199.87C996.68 -205.7 995.99 -212.51 995.09 -220.22C1001.96 -225.65 1056.91 -269.13 1063.77 -274.56C1059.17 -260.74 1060.2 -241.22 1062.33 -224.33C1063.22 -217.29 1064.3 -210.72 1065.24 -205.19C1066.57 -197.52 1067.63 -191.89 1067.56 -189.94" id="a1XhTFZY50"></path><path d="M1062.33 -224.33C1041.66 -195.15 1016.34 -189.88 997.17 -199.87C996.68 -205.7 995.99 -212.51 995.09 -220.22C1001.96 -225.65 1056.91 -269.13 1063.77 -274.56C1059.17 -260.74 1060.2 -241.22 1062.33 -224.33" id="b1M2CFYgOh"></path><path d="M1101.96 -286.36C1095.74 -281.33 1087.25 -279.42 1077.44 -284.01C1059.96 -236.36 1025.02 -209.35 993.25 -210.94C980.33 -215.5 971.15 -224.95 964.64 -236.72C943.92 -274.15 950.36 -334.84 950.36 -334.84C950.42 -337.64 950.75 -340.13 951.32 -342.36C960.6 -378.83 1034.1 -341.91 1078.44 -351.08C1075.72 -348.46 1074.04 -342.4 1073.16 -335.24C1071.15 -318.89 1073.34 -296.75 1077.09 -296.19C1082.5 -295.38 1079.79 -310.52 1083.04 -317.83C1086.28 -325.12 1107.62 -334.84 1112.38 -317.37C1115.18 -307.11 1110.86 -293.54 1101.96 -286.36" id="a1ZEI1aa4m"></path><path d="M1101.84 -312.7C1101.74 -313.41 1101.54 -314.08 1101.05 -314.66C1100.8 -314.95 1100.48 -315.2 1100.13 -315.36C1099.77 -315.52 1099.39 -315.58 1099.05 -315.58C1098.31 -315.57 1097.71 -315.33 1097.15 -315.03C1096.18 -314.48 1095.27 -313.66 1094.36 -312.64C1093.01 -311.11 1091.7 -309.14 1090.7 -307.02C1089.7 -304.89 1088.99 -302.63 1088.98 -300.44C1088.98 -299.79 1089.04 -299.15 1089.2 -298.53C1089.46 -297.47 1089.81 -296.62 1090.39 -295.93C1090.69 -295.59 1091.05 -295.3 1091.46 -295.11C1091.87 -294.91 1092.32 -294.82 1092.74 -294.82C1093.3 -294.82 1093.8 -294.97 1094.24 -295.16C1095 -295.51 1095.63 -296.01 1096.2 -296.54C1097.89 -298.15 1099.15 -300.24 1099.19 -300.3C1099.65 -301.05 1099.42 -302.02 1098.67 -302.48C1097.92 -302.94 1096.94 -302.71 1096.48 -301.96C1096.48 -301.96 1096.46 -301.93 1096.46 -301.92C1096.32 -301.7 1095.6 -300.59 1094.73 -299.6C1094.3 -299.1 1093.82 -298.64 1093.42 -298.35C1093.22 -298.21 1093.04 -298.11 1092.92 -298.05C1092.91 -298.05 1092.86 -298.03 1092.78 -298.01L1092.74 -298L1092.74 -297.81L1092.82 -297.98L1092.74 -298L1092.74 -297.81L1092.82 -297.98L1092.77 -297.87L1092.84 -297.97L1092.82 -297.98L1092.77 -297.87L1092.84 -297.97C1092.81 -298 1092.8 -298.01 1092.79 -298.02C1092.69 -298.12 1092.46 -298.52 1092.29 -299.27C1092.2 -299.62 1092.16 -300.01 1092.16 -300.44C1092.15 -301.56 1092.46 -302.94 1093 -304.34C1093.81 -306.45 1095.12 -308.61 1096.42 -310.16C1097.07 -310.93 1097.71 -311.56 1098.23 -311.94C1098.49 -312.14 1098.72 -312.27 1098.87 -312.34C1098.88 -312.34 1098.94 -312.36 1099.04 -312.4L1099.06 -312.4L1099.05 -312.53L1099.05 -312.4L1099.06 -312.4L1099.05 -312.53L1099.05 -312.4L1099.05 -312.92L1098.84 -312.45L1099.05 -312.4L1099.05 -312.92L1098.84 -312.45L1099.03 -312.88L1098.61 -312.64L1098.84 -312.45L1099.03 -312.88C1098.78 -312.73 1098.64 -312.65 1098.61 -312.64C1098.61 -312.64 1098.66 -312.52 1098.7 -312.27C1098.82 -311.4 1099.62 -310.79 1100.49 -310.91C1101.36 -311.03 1101.97 -311.83 1101.84 -312.7" id="ahve1Fir5"></path><path d="M993.68 -311.76C994.16 -311.35 994.56 -310.71 994.85 -309.79C995.13 -308.87 995.28 -307.7 995.28 -306.35C995.28 -303.26 994.49 -299.3 993.22 -295.4C992.29 -292.51 990.49 -289.42 988.87 -286.55C988.07 -285.11 987.31 -283.72 986.73 -282.39C986.15 -281.05 985.73 -279.78 985.72 -278.44C985.71 -277.38 986.06 -276.23 986.88 -275.37C988.73 -273.41 991.19 -272.44 993.17 -271.88C995.15 -271.34 996.69 -271.23 996.76 -271.22C997.63 -271.16 998.39 -271.82 998.45 -272.7C998.52 -273.57 997.86 -274.33 996.98 -274.39C996.98 -274.39 996.95 -274.4 996.94 -274.4C996.69 -274.42 995.3 -274.56 993.7 -275.04C992.1 -275.51 990.31 -276.34 989.2 -277.54C988.99 -277.78 988.91 -277.96 988.9 -278.44C988.89 -279.03 989.14 -279.99 989.64 -281.12C990.38 -282.84 991.62 -284.94 992.88 -287.2C994.14 -289.46 995.42 -291.9 996.24 -294.42C997.58 -298.55 998.45 -302.74 998.46 -306.35C998.46 -307.93 998.29 -309.4 997.88 -310.72C997.48 -312.05 996.81 -313.25 995.78 -314.15C995.11 -314.73 994.11 -314.67 993.53 -314C992.96 -313.35 993.02 -312.34 993.68 -311.76" id="b1eE01FrG"></path><path d="M1033.31 -303.06C1033.31 -298.51 1030.88 -294.83 1027.88 -294.83C1024.88 -294.83 1022.45 -298.51 1022.45 -303.06C1022.45 -307.62 1024.88 -311.3 1027.88 -311.3C1030.88 -311.3 1033.31 -307.62 1033.31 -303.06" id="e1vZM5gg2H"></path><path d="M974.5 -301.12C974.5 -296.57 972.07 -292.88 969.07 -292.88C966.07 -292.88 963.64 -296.57 963.64 -301.12C963.64 -305.67 966.07 -309.36 969.07 -309.36C972.07 -309.36 974.5 -305.67 974.5 -301.12" id="bF3YXjIjn"></path><path d="M1018.82 -322.41C1018.83 -322.41 1018.83 -322.41 1018.83 -322.41C1018.92 -322.51 1019.64 -323.2 1020.94 -323.86C1022.25 -324.52 1024.12 -325.16 1026.58 -325.16C1029.21 -325.16 1032.54 -324.44 1036.62 -322.12C1037.38 -321.69 1038.36 -321.96 1038.79 -322.72C1039.22 -323.48 1038.96 -324.45 1038.19 -324.88C1033.71 -327.43 1029.8 -328.34 1026.58 -328.34C1023.36 -328.34 1020.86 -327.44 1019.18 -326.52C1017.49 -325.61 1016.6 -324.69 1016.52 -324.59C1015.91 -323.96 1015.94 -322.95 1016.58 -322.35C1017.22 -321.75 1018.22 -321.78 1018.82 -322.41" id="b17GXZKg9q"></path><path d="M959.93 -318.14C959.93 -318.15 959.93 -318.15 959.93 -318.15C960.02 -318.23 961.21 -319.41 963.09 -320.54C964.98 -321.67 967.54 -322.73 970.37 -322.72C972.8 -322.71 975.47 -321.99 978.37 -319.73C979.06 -319.19 980.05 -319.31 980.6 -320C981.14 -320.69 981.02 -321.69 980.32 -322.23C976.93 -324.89 973.47 -325.91 970.37 -325.9C966.63 -325.89 963.47 -324.49 961.25 -323.13C959.03 -321.77 957.72 -320.42 957.65 -320.36C957.04 -319.73 957.06 -318.72 957.69 -318.11C958.32 -317.5 959.32 -317.51 959.93 -318.14" id="c14jWaNWHG"></path><path d="M998.96 -246.59C1002.75 -244.63 1006.8 -243.67 1010.7 -243.67C1015.17 -243.67 1019.45 -244.94 1022.84 -247.44C1026.23 -249.94 1028.69 -253.72 1029.45 -258.49C1029.59 -259.36 1029 -260.18 1028.13 -260.32C1027.27 -260.46 1026.45 -259.87 1026.31 -259C1025.66 -255.01 1023.71 -252.05 1020.95 -249.99C1018.18 -247.95 1014.57 -246.85 1010.7 -246.85C1007.32 -246.85 1003.76 -247.68 1000.42 -249.41C999.64 -249.81 998.68 -249.51 998.28 -248.73C997.87 -247.95 998.18 -246.99 998.96 -246.59" id="c7NJYSqCA"></path><path d="M1078.44 -351.08C1075.72 -348.46 1074.04 -342.4 1073.16 -335.24C1055.42 -327.52 1029.88 -340.13 1009.15 -345.68C987.78 -351.38 967.29 -351.55 951.32 -342.36C960.6 -378.83 1034.1 -341.91 1078.44 -351.08" id="hIc8bL1XV"></path><path d="M1077.44 -284.01C1059.96 -236.36 1025.02 -209.35 993.25 -210.94C980.33 -215.5 971.15 -224.95 964.64 -236.72C999.33 -214.58 1028.19 -215.12 1077.44 -284.01" id="a1UC5e6Ac8"></path><path d="M1067.56 -189.94C1067.29 -183.17 1037.82 -135.58 1025.38 -139.38C1012.94 -143.16 998.61 -176.42 998.61 -176.42C998.61 -176.42 998.61 -176.71 998.58 -177.28C1005.29 -163.79 1013.1 -153.71 1027.87 -152.9C1044.24 -151.99 1061.25 -181.76 1065.24 -205.19C1066.57 -197.52 1067.63 -191.89 1067.56 -189.94" id="axlf2ORH0"></path><path d="M921.59 99.61L912.84 99.61C917.41 34.91 919.95 -1.04 920.46 -8.23C920.46 -8.23 901 -73.68 920.46 -46.63C938.7 -21.3 927.53 46.67 921.59 99.61" id="dcn1oJuuh"></path><path d="M1137.13 99.61C1153.21 99.61 1162.14 99.61 1163.93 99.61C1166.87 53.86 1176.08 -22.8 1175.3 -33.65C1174.49 -45 1163.55 -66.91 1157.47 -63.67C1151.38 -60.41 1166.03 -45 1166.41 -31.22C1166.69 -21.15 1147.49 57.83 1137.13 99.61" id="d3MXf2xw4i"></path><path d="M1099.87 -412.87C1099.29 -411.84 1098.77 -410.82 1098.31 -409.84C1098.18 -411.06 1098.02 -412.35 1097.83 -413.68C1092.16 -455.04 1022 -445.31 976.98 -446.93C935.28 -448.44 924.21 -465.94 925.05 -488.18C935.06 -471.45 947.26 -460.7 974.14 -459.1C1001.31 -457.48 1091.75 -470.06 1099.87 -412.87" id="asaguDzRf"></path></defs><g><g><g><use xlink:href="#k8lxEXfYw" opacity="1" fill="#ffffff" fill-opacity="1"></use><g><use xlink:href="#k8lxEXfYw" opacity="1" fill-opacity="0" stroke="#000000" stroke-width="1" stroke-opacity="0"></use></g></g><g><use xlink:href="#fo6sNQT0c" opacity="1" fill="#935755" fill-opacity="1"></use><g><use xlink:href="#fo6sNQT0c" opacity="1" fill-opacity="0" stroke="#000000" stroke-width="1" stroke-opacity="0"></use></g></g><g><use xlink:href="#clJlHYd3m" opacity="1" fill="#7f4646" fill-opacity="1"></use><g><use xlink:href="#clJlHYd3m" opacity="1" fill-opacity="0" stroke="#000000" stroke-width="1" stroke-opacity="0"></use></g></g><g><use xlink:href="#d6zNKYhGn" opacity="1" fill="#ce6f2e" fill-opacity="1"></use><g><use xlink:href="#d6zNKYhGn" opacity="1" fill-opacity="0" stroke="#000000" stroke-width="1" stroke-opacity="0"></use></g></g><g><use xlink:href="#fYkQrE3t2" opacity="1" fill="#87491f" fill-opacity="1"></use><g><use xlink:href="#fYkQrE3t2" opacity="1" fill-opacity="0" stroke="#000000" stroke-width="1" stroke-opacity="0"></use></g></g><g><use xlink:href="#a7yM5oh4L" opacity="1" fill="#fca897" fill-opacity="1"></use><g><use xlink:href="#a7yM5oh4L" opacity="1" fill-opacity="0" stroke="#000000" stroke-width="1" stroke-opacity="0"></use></g></g><g><use xlink:href="#f1jeduIPRE" opacity="1" fill="#ef9181" fill-opacity="1"></use><g><use xlink:href="#f1jeduIPRE" opacity="1" fill-opacity="0" stroke="#000000" stroke-width="1" stroke-opacity="0"></use></g></g><g><use xlink:href="#b3euzKCfR4" opacity="1" fill="#fca897" fill-opacity="1"></use><g><use xlink:href="#b3euzKCfR4" opacity="1" fill-opacity="0" stroke="#000000" stroke-width="1" stroke-opacity="0"></use></g></g><g><use xlink:href="#b2ee0DmTwJ" opacity="1" fill="#fca897" fill-opacity="1"></use><g><use xlink:href="#b2ee0DmTwJ" opacity="1" fill-opacity="0" stroke="#000000" stroke-width="1" stroke-opacity="0"></use></g></g><g><use xlink:href="#cWHc02vGV" opacity="1" fill="#fcc3b4" fill-opacity="1"></use><g><use xlink:href="#cWHc02vGV" opacity="1" fill-opacity="0" stroke="#000000" stroke-width="1" stroke-opacity="0"></use></g></g><g><use xlink:href="#bCN6WcnCb" opacity="1" fill="#fca897" fill-opacity="1"></use><g><use xlink:href="#bCN6WcnCb" opacity="1" fill-opacity="0" stroke="#000000" stroke-width="1" stroke-opacity="0"></use></g></g><g><use xlink:href="#b2SEoxPJ99" opacity="1" fill="#3f3b51" fill-opacity="1"></use><g><use xlink:href="#b2SEoxPJ99" opacity="1" fill-opacity="0" stroke="#000000" stroke-width="1" stroke-opacity="0"></use></g></g><g><use xlink:href="#a1qMG5xWD" opacity="1" fill="#3f3b51" fill-opacity="1"></use><g><use xlink:href="#a1qMG5xWD" opacity="1" fill-opacity="0" stroke="#000000" stroke-width="1" stroke-opacity="0"></use></g></g><g><use xlink:href="#cgllwM9Qx" opacity="1" fill="#e56e61" fill-opacity="1"></use><g><use xlink:href="#cgllwM9Qx" opacity="1" fill-opacity="0" stroke="#000000" stroke-width="1" stroke-opacity="0"></use></g></g><g><use xlink:href="#a259m5XJsW" opacity="1" fill="#3f3b51" fill-opacity="1"></use><g><use xlink:href="#a259m5XJsW" opacity="1" fill-opacity="0" stroke="#000000" stroke-width="1" stroke-opacity="0"></use></g></g><g><use xlink:href="#a1FC2Ll2sX" opacity="1" fill="#3f3b51" fill-opacity="1"></use><g><use xlink:href="#a1FC2Ll2sX" opacity="1" fill-opacity="0" stroke="#000000" stroke-width="1" stroke-opacity="0"></use></g></g><g><use xlink:href="#bAKV26PWp" opacity="1" fill="#f4586f" fill-opacity="1"></use><g><use xlink:href="#bAKV26PWp" opacity="1" fill-opacity="0" stroke="#000000" stroke-width="1" stroke-opacity="0"></use></g></g><g><use xlink:href="#dMp4OEvzr" opacity="1" fill="#ffd0c7" fill-opacity="1"></use><g><use xlink:href="#dMp4OEvzr" opacity="1" fill-opacity="0" stroke="#000000" stroke-width="1" stroke-opacity="0"></use></g></g><g><use xlink:href="#e23LRqJb9l" opacity="1" fill="#7f4646" fill-opacity="1"></use><g><use xlink:href="#e23LRqJb9l" opacity="1" fill-opacity="0" stroke="#000000" stroke-width="1" stroke-opacity="0"></use></g></g><g><use xlink:href="#a11DaZDVQG" opacity="1" fill="#af6868" fill-opacity="1"></use><g><use xlink:href="#a11DaZDVQG" opacity="1" fill-opacity="0" stroke="#000000" stroke-width="1" stroke-opacity="0"></use></g></g><g><use xlink:href="#a17Z51DbET" opacity="1" fill="#af5e27" fill-opacity="1"></use><g><use xlink:href="#a17Z51DbET" opacity="1" fill-opacity="0" stroke="#000000" stroke-width="1" stroke-opacity="0"></use></g></g><g><use xlink:href="#aN1Mi4a3T" opacity="1" fill="#af5e27" fill-opacity="1"></use><g><use xlink:href="#aN1Mi4a3T" opacity="1" fill-opacity="0" stroke="#000000" stroke-width="1" stroke-opacity="0"></use></g></g><g><use xlink:href="#a1pGbBp5Bq" opacity="1" fill="#af5e27" fill-opacity="1"></use><g><use xlink:href="#a1pGbBp5Bq" opacity="1" fill-opacity="0" stroke="#000000" stroke-width="1" stroke-opacity="0"></use></g></g><g><use xlink:href="#auUybn8u" opacity="1" fill="#af5e27" fill-opacity="1"></use><g><use xlink:href="#auUybn8u" opacity="1" fill-opacity="0" stroke="#000000" stroke-width="1" stroke-opacity="0"></use></g></g><g><use xlink:href="#a1D8FIFhIR" opacity="1" fill="#af5e27" fill-opacity="1"></use><g><use xlink:href="#a1D8FIFhIR" opacity="1" fill-opacity="0" stroke="#000000" stroke-width="1" stroke-opacity="0"></use></g></g><g><use xlink:href="#b1oMCNtEeN" opacity="1" fill="#af5e27" fill-opacity="1"></use><g><use xlink:href="#b1oMCNtEeN" opacity="1" fill-opacity="0" stroke="#000000" stroke-width="1" stroke-opacity="0"></use></g></g><g><use xlink:href="#a70jizTWn3" opacity="1" fill="#935755" fill-opacity="1"></use><g><use xlink:href="#a70jizTWn3" opacity="1" fill-opacity="0" stroke="#000000" stroke-width="1" stroke-opacity="0"></use></g></g><g><use xlink:href="#d33zVRFzQ6" opacity="1" fill="#874c4c" fill-opacity="1"></use><g><use xlink:href="#d33zVRFzQ6" opacity="1" fill-opacity="0" stroke="#000000" stroke-width="1" stroke-opacity="0"></use></g></g><g><use xlink:href="#a11H5wKE8d" opacity="1" fill="#a56a6a" fill-opacity="1"></use><g><use xlink:href="#a11H5wKE8d" opacity="1" fill-opacity="0" stroke="#000000" stroke-width="1" stroke-opacity="0"></use></g></g><g><use xlink:href="#b5VBnsJzbT" opacity="1" fill="#e28242" fill-opacity="1"></use><g><use xlink:href="#b5VBnsJzbT" opacity="1" fill-opacity="0" stroke="#000000" stroke-width="1" stroke-opacity="0"></use></g></g><g><use xlink:href="#hZKPkggC8" opacity="1" fill="#7b4444" fill-opacity="1"></use><g><use xlink:href="#hZKPkggC8" opacity="1" fill-opacity="0" stroke="#000000" stroke-width="1" stroke-opacity="0"></use></g></g><g><use xlink:href="#b23hWOzchS" opacity="1" fill="#9c5f5f" fill-opacity="1"></use><g><use xlink:href="#b23hWOzchS" opacity="1" fill-opacity="0" stroke="#000000" stroke-width="1" stroke-opacity="0"></use></g></g><g><use xlink:href="#fFyf3Vxt3" opacity="1" fill="#884e4c" fill-opacity="1"></use><g><use xlink:href="#fFyf3Vxt3" opacity="1" fill-opacity="0" stroke="#000000" stroke-width="1" stroke-opacity="0"></use></g></g><g><use xlink:href="#brHxsiw9S" opacity="1" fill="#7b4444" fill-opacity="1"></use><g><use xlink:href="#brHxsiw9S" opacity="1" fill-opacity="0" stroke="#000000" stroke-width="1" stroke-opacity="0"></use></g></g><g><use xlink:href="#b2Iu1vzUaz" opacity="1" fill="#9c5f5f" fill-opacity="1"></use><g><use xlink:href="#b2Iu1vzUaz" opacity="1" fill-opacity="0" stroke="#000000" stroke-width="1" stroke-opacity="0"></use></g></g><g><use xlink:href="#c2iOadrhmN" opacity="1" fill="#884e4c" fill-opacity="1"></use><g><use xlink:href="#c2iOadrhmN" opacity="1" fill-opacity="0" stroke="#000000" stroke-width="1" stroke-opacity="0"></use></g></g><g><use xlink:href="#a2xh6sW09r" opacity="1" fill="#7b4444" fill-opacity="1"></use><g><use xlink:href="#a2xh6sW09r" opacity="1" fill-opacity="0" stroke="#000000" stroke-width="1" stroke-opacity="0"></use></g></g><g><use xlink:href="#dIhmGqjxw" opacity="1" fill="#874c4c" fill-opacity="1"></use><g><use xlink:href="#dIhmGqjxw" opacity="1" fill-opacity="0" stroke="#000000" stroke-width="1" stroke-opacity="0"></use></g></g><g><use xlink:href="#a1MfSql89l" opacity="1" fill="#9c5f5f" fill-opacity="1"></use><g><use xlink:href="#a1MfSql89l" opacity="1" fill-opacity="0" stroke="#000000" stroke-width="1" stroke-opacity="0"></use></g></g><g><use xlink:href="#a1RimXt9f9" opacity="1" fill="#884e4c" fill-opacity="1"></use><g><use xlink:href="#a1RimXt9f9" opacity="1" fill-opacity="0" stroke="#000000" stroke-width="1" stroke-opacity="0"></use></g></g><g><use xlink:href="#e18mnApRRn" opacity="1" fill="#884e4c" fill-opacity="1"></use><g><use xlink:href="#e18mnApRRn" opacity="1" fill-opacity="0" stroke="#000000" stroke-width="1" stroke-opacity="0"></use></g></g><g><use xlink:href="#a1L7qTk7jX" opacity="1" fill="#874c4c" fill-opacity="1"></use><g><use xlink:href="#a1L7qTk7jX" opacity="1" fill-opacity="0" stroke="#000000" stroke-width="1" stroke-opacity="0"></use></g></g><g><use xlink:href="#afHVjPPxd" opacity="1" fill="#6d5250" fill-opacity="1"></use><g><use xlink:href="#afHVjPPxd" opacity="1" fill-opacity="0" stroke="#000000" stroke-width="1" stroke-opacity="0"></use></g></g><g><use xlink:href="#bjW9nSBkR" opacity="1" fill="#604242" fill-opacity="1"></use><g><use xlink:href="#bjW9nSBkR" opacity="1" fill-opacity="0" stroke="#000000" stroke-width="1" stroke-opacity="0"></use></g></g><g><use xlink:href="#b3ir0P85U6" opacity="1" fill="#ce6f2e" fill-opacity="1"></use><g><use xlink:href="#b3ir0P85U6" opacity="1" fill-opacity="0" stroke="#000000" stroke-width="1" stroke-opacity="0"></use></g></g><g><use xlink:href="#bhLay8WHF" opacity="1" fill="#b25b20" fill-opacity="1"></use><g><use xlink:href="#bhLay8WHF" opacity="1" fill-opacity="0" stroke="#000000" stroke-width="1" stroke-opacity="0"></use></g></g><g><use xlink:href="#c1mAjJZLa" opacity="1" fill="#fca897" fill-opacity="1"></use><g><use xlink:href="#c1mAjJZLa" opacity="1" fill-opacity="0" stroke="#000000" stroke-width="1" stroke-opacity="0"></use></g></g><g><use xlink:href="#a1DP7jP2aB" opacity="1" fill="#ef9181" fill-opacity="1"></use><g><use xlink:href="#a1DP7jP2aB" opacity="1" fill-opacity="0" stroke="#000000" stroke-width="1" stroke-opacity="0"></use></g></g><g><use xlink:href="#bTwPwn0MQ" opacity="1" fill="#fcc3b4" fill-opacity="1"></use><g><use xlink:href="#bTwPwn0MQ" opacity="1" fill-opacity="0" stroke="#000000" stroke-width="1" stroke-opacity="0"></use></g></g><g><use xlink:href="#d6rfaIPmn" opacity="1" fill="#fca897" fill-opacity="1"></use><g><use xlink:href="#d6rfaIPmn" opacity="1" fill-opacity="0" stroke="#000000" stroke-width="1" stroke-opacity="0"></use></g></g><g><use xlink:href="#eXhQTK0yx" opacity="1" fill="#3f3b51" fill-opacity="1"></use><g><use xlink:href="#eXhQTK0yx" opacity="1" fill-opacity="0" stroke="#000000" stroke-width="1" stroke-opacity="0"></use></g></g><g><use xlink:href="#d2vzov2uAw" opacity="1" fill="#3f3b51" fill-opacity="1"></use><g><use xlink:href="#d2vzov2uAw" opacity="1" fill-opacity="0" stroke="#000000" stroke-width="1" stroke-opacity="0"></use></g></g><g><use xlink:href="#a1VZKNZK2X" opacity="1" fill="#ce6f2e" fill-opacity="1"></use><g><use xlink:href="#a1VZKNZK2X" opacity="1" fill-opacity="0" stroke="#000000" stroke-width="1" stroke-opacity="0"></use></g></g><g><use xlink:href="#b2S461yM8R" opacity="1" fill="#ce6f2e" fill-opacity="1"></use><g><use xlink:href="#b2S461yM8R" opacity="1" fill-opacity="0" stroke="#000000" stroke-width="1" stroke-opacity="0"></use></g></g><g><use xlink:href="#b1LAP5ypJY" opacity="1" fill="#e56e61" fill-opacity="1"></use><g><use xlink:href="#b1LAP5ypJY" opacity="1" fill-opacity="0" stroke="#000000" stroke-width="1" stroke-opacity="0"></use></g></g><g><use xlink:href="#g5uIIj8se" opacity="1" fill="#f4586f" fill-opacity="1"></use><g><use xlink:href="#g5uIIj8se" opacity="1" fill-opacity="0" stroke="#000000" stroke-width="1" stroke-opacity="0"></use></g></g><g><use xlink:href="#c2DnIgcNsE" opacity="1" fill="#e56e61" fill-opacity="1"></use><g><use xlink:href="#c2DnIgcNsE" opacity="1" fill-opacity="0" stroke="#000000" stroke-width="1" stroke-opacity="0"></use></g></g><g><use xlink:href="#a4a96iv4U" opacity="1" fill="#ef9181" fill-opacity="1"></use><g><use xlink:href="#a4a96iv4U" opacity="1" fill-opacity="0" stroke="#000000" stroke-width="1" stroke-opacity="0"></use></g></g><g><use xlink:href="#b1ifXaF3Pm" opacity="1" fill="#7b4444" fill-opacity="1"></use><g><use xlink:href="#b1ifXaF3Pm" opacity="1" fill-opacity="0" stroke="#000000" stroke-width="1" stroke-opacity="0"></use></g></g><g><use xlink:href="#d3w4iQnC6C" opacity="1" fill="#9c5f5f" fill-opacity="1"></use><g><use xlink:href="#d3w4iQnC6C" opacity="1" fill-opacity="0" stroke="#000000" stroke-width="1" stroke-opacity="0"></use></g></g><g><use xlink:href="#b1eY0CX8gq" opacity="1" fill="#874c4c" fill-opacity="1"></use><g><use xlink:href="#b1eY0CX8gq" opacity="1" fill-opacity="0" stroke="#000000" stroke-width="1" stroke-opacity="0"></use></g></g><g><use xlink:href="#g1Py3q1drA" opacity="1" fill="#515770" fill-opacity="1"></use><g><use xlink:href="#g1Py3q1drA" opacity="1" fill-opacity="0" stroke="#000000" stroke-width="1" stroke-opacity="0"></use></g></g><g><use xlink:href="#b2zibT8m" opacity="1" fill="#3e455b" fill-opacity="1"></use><g><use xlink:href="#b2zibT8m" opacity="1" fill-opacity="0" stroke="#000000" stroke-width="1" stroke-opacity="0"></use></g></g><g><use xlink:href="#b1u1tmwT09" opacity="1" fill="#3e455b" fill-opacity="1"></use><g><use xlink:href="#b1u1tmwT09" opacity="1" fill-opacity="0" stroke="#000000" stroke-width="1" stroke-opacity="0"></use></g></g><g><use xlink:href="#b4N3dn6QEJ" opacity="1" fill="#6879af" fill-opacity="1"></use><g><use xlink:href="#b4N3dn6QEJ" opacity="1" fill-opacity="0" stroke="#000000" stroke-width="1" stroke-opacity="0"></use></g></g><g><use xlink:href="#b1iz9ENEIL" opacity="1" fill="#596c9b" fill-opacity="1"></use><g><use xlink:href="#b1iz9ENEIL" opacity="1" fill-opacity="0" stroke="#000000" stroke-width="1" stroke-opacity="0"></use></g></g><g><use xlink:href="#bt0MqrvyN" opacity="1" fill="#3f3b51" fill-opacity="1"></use><g><use xlink:href="#bt0MqrvyN" opacity="1" fill-opacity="0" stroke="#000000" stroke-width="1" stroke-opacity="0"></use></g></g><g><use xlink:href="#d55HrRdnnR" opacity="1" fill="#312f3d" fill-opacity="1"></use><g><use xlink:href="#d55HrRdnnR" opacity="1" fill-opacity="0" stroke="#000000" stroke-width="1" stroke-opacity="0"></use></g></g><g><use xlink:href="#dY40lLRD5" opacity="1" fill="#fca897" fill-opacity="1"></use><g><use xlink:href="#dY40lLRD5" opacity="1" fill-opacity="0" stroke="#000000" stroke-width="1" stroke-opacity="0"></use></g></g><g><use xlink:href="#a1XhTFZY50" opacity="1" fill="#fca897" fill-opacity="1"></use><g><use xlink:href="#a1XhTFZY50" opacity="1" fill-opacity="0" stroke="#000000" stroke-width="1" stroke-opacity="0"></use></g></g><g><use xlink:href="#b1M2CFYgOh" opacity="1" fill="#ef9181" fill-opacity="1"></use><g><use xlink:href="#b1M2CFYgOh" opacity="1" fill-opacity="0" stroke="#000000" stroke-width="1" stroke-opacity="0"></use></g></g><g><use xlink:href="#a1ZEI1aa4m" opacity="1" fill="#fcc3b4" fill-opacity="1"></use><g><use xlink:href="#a1ZEI1aa4m" opacity="1" fill-opacity="0" stroke="#000000" stroke-width="1" stroke-opacity="0"></use></g></g><g><use xlink:href="#ahve1Fir5" opacity="1" fill="#e56e61" fill-opacity="1"></use><g><use xlink:href="#ahve1Fir5" opacity="1" fill-opacity="0" stroke="#000000" stroke-width="1" stroke-opacity="0"></use></g></g><g><use xlink:href="#b1eE01FrG" opacity="1" fill="#e56e61" fill-opacity="1"></use><g><use xlink:href="#b1eE01FrG" opacity="1" fill-opacity="0" stroke="#000000" stroke-width="1" stroke-opacity="0"></use></g></g><g><use xlink:href="#e1vZM5gg2H" opacity="1" fill="#3f3b51" fill-opacity="1"></use><g><use xlink:href="#e1vZM5gg2H" opacity="1" fill-opacity="0" stroke="#000000" stroke-width="1" stroke-opacity="0"></use></g></g><g><use xlink:href="#bF3YXjIjn" opacity="1" fill="#3f3b51" fill-opacity="1"></use><g><use xlink:href="#bF3YXjIjn" opacity="1" fill-opacity="0" stroke="#000000" stroke-width="1" stroke-opacity="0"></use></g></g><g><use xlink:href="#b17GXZKg9q" opacity="1" fill="#3f3b51" fill-opacity="1"></use><g><use xlink:href="#b17GXZKg9q" opacity="1" fill-opacity="0" stroke="#000000" stroke-width="1" stroke-opacity="0"></use></g></g><g><use xlink:href="#c14jWaNWHG" opacity="1" fill="#3f3b51" fill-opacity="1"></use><g><use xlink:href="#c14jWaNWHG" opacity="1" fill-opacity="0" stroke="#000000" stroke-width="1" stroke-opacity="0"></use></g></g><g><use xlink:href="#c7NJYSqCA" opacity="1" fill="#f4586f" fill-opacity="1"></use><g><use xlink:href="#c7NJYSqCA" opacity="1" fill-opacity="0" stroke="#000000" stroke-width="1" stroke-opacity="0"></use></g></g><g><use xlink:href="#hIc8bL1XV" opacity="1" fill="#fca897" fill-opacity="1"></use><g><use xlink:href="#hIc8bL1XV" opacity="1" fill-opacity="0" stroke="#000000" stroke-width="1" stroke-opacity="0"></use></g></g><g><use xlink:href="#a1UC5e6Ac8" opacity="1" fill="#ffd0c7" fill-opacity="1"></use><g><use xlink:href="#a1UC5e6Ac8" opacity="1" fill-opacity="0" stroke="#000000" stroke-width="1" stroke-opacity="0"></use></g></g><g><use xlink:href="#axlf2ORH0" opacity="1" fill="#ef9181" fill-opacity="1"></use><g><use xlink:href="#axlf2ORH0" opacity="1" fill-opacity="0" stroke="#000000" stroke-width="1" stroke-opacity="0"></use></g></g><g><use xlink:href="#dcn1oJuuh" opacity="1" fill="#3e455b" fill-opacity="1"></use><g><use xlink:href="#dcn1oJuuh" opacity="1" fill-opacity="0" stroke="#000000" stroke-width="1" stroke-opacity="0"></use></g></g><g><use xlink:href="#d3MXf2xw4i" opacity="1" fill="#3e455b" fill-opacity="1"></use><g><use xlink:href="#d3MXf2xw4i" opacity="1" fill-opacity="0" stroke="#000000" stroke-width="1" stroke-opacity="0"></use></g></g><g><use xlink:href="#asaguDzRf" opacity="1" fill="#565272" fill-opacity="1"></use><g><use xlink:href="#asaguDzRf" opacity="1" fill-opacity="0" stroke="#000000" stroke-width="1" stroke-opacity="0"></use></g></g></g></g></svg>