<?xml version="1.0" encoding="UTF-8" standalone="no"?>
<!DOCTYPE svg PUBLIC "-//W3C//DTD SVG 1.1//EN" "http://www.w3.org/Graphics/SVG/1.1/DTD/svg11.dtd">
<svg version="1.1" xmlns="http://www.w3.org/2000/svg" xmlns:xlink="http://www.w3.org/1999/xlink" preserveAspectRatio="xMidYMid meet" viewBox="0 0 640 640" width="640" height="640"><defs><path d="M-165.76 -115.9L853.12 -115.9L853.12 674.71L-165.76 674.71L-165.76 -115.9Z" id="enf99YjKU"></path><path d="M191.62 279.4C457.03 279.4 604.48 279.4 633.97 279.4C643 279.4 650.4 286.79 650.4 295.84C650.4 321.58 650.4 527.51 650.4 553.25C650.4 562.29 643 569.69 633.97 569.69C589.73 569.69 235.85 569.69 191.62 569.69C182.57 569.69 175.17 562.29 175.17 553.25C175.17 527.51 175.17 321.58 175.17 295.84C175.17 286.79 182.57 279.4 191.62 279.4" id="cnBnAuMxd"></path><path d="M207.97 316.38L617.61 316.38L617.61 536.29L207.97 536.29L207.97 316.38" id="cs6VpDNpA"></path><path d="M412.79 302.26C416.09 302.26 418.76 299.59 418.76 296.29C418.76 292.98 416.09 290.3 412.79 290.3C409.48 290.3 406.81 292.98 406.81 296.29C406.81 299.59 409.48 302.26 412.79 302.26" id="b34SlZtuhu"></path><path d="M175.17 569.69L650.4 569.69L732.94 604.8L92.63 604.8L175.17 569.69" id="cgNXoKafS"></path><path d="M92.63 604.8L732.94 604.8C732.94 618.8 732.94 626.58 732.94 628.13C732.94 634.66 727.59 640 721.07 640C659.41 640 166.17 640 104.52 640C97.99 640 92.63 634.66 92.63 628.13C92.63 626.58 92.63 618.8 92.63 604.8" id="b33H8W0LYq"></path><path d="M497.6 626.21C497.6 629.09 495.27 631.43 492.38 631.43C476.46 631.43 349.12 631.43 333.2 631.43C330.32 631.43 327.98 629.09 327.98 626.21C327.98 623.32 330.32 620.98 333.2 620.98C349.12 620.98 476.46 620.98 492.38 620.98C495.27 620.98 497.6 623.32 497.6 626.21" id="f6RJ5nCH69"></path><path d="M59.28 214.66L211.97 98.01L364.68 214.66L306.35 403.41L117.6 403.41L59.28 214.66Z" id="bxM02eIDd"></path><path d="M80.28 175.66L232.97 59.01L385.68 175.66L327.35 364.41L138.6 364.41L80.28 175.66Z" id="a1vtPaPXw"></path><path d="M328.14 180.63C336.72 180.63 343.68 187.58 343.68 196.17C343.68 199.28 343.68 193.06 343.68 196.17C343.68 204.75 336.72 211.71 328.14 211.71C289.38 211.71 188.63 211.71 149.87 211.71C141.29 211.71 134.33 204.75 134.33 196.17C134.33 193.06 134.33 199.28 134.33 196.17C134.33 187.58 141.29 180.63 149.87 180.63C188.63 180.63 289.38 180.63 328.14 180.63Z" id="a7Gq2pwkg"></path><path d="M289.65 262.93C295.36 262.93 299.98 267.55 299.98 273.25C299.98 276.86 299.98 277.37 299.98 280.98C299.98 286.68 295.36 291.3 289.65 291.3C263.9 291.3 196.97 291.3 171.22 291.3C165.52 291.3 160.9 286.68 160.9 280.98C160.9 277.37 160.9 276.86 160.9 273.25C160.9 267.55 165.52 262.93 171.22 262.93C196.97 262.93 263.9 262.93 289.65 262.93Z" id="d6rNkfjD"></path></defs><g><g><path></path><path></path><path></path><path></path><path></path><path></path><path></path><path></path><path></path><path></path><path></path><path></path><path></path><path></path><path></path><path></path><path></path><g><use xlink:href="#enf99YjKU" opacity="1" fill="#82b7f0" fill-opacity="1"></use></g><path></path><path></path><path></path><g><use xlink:href="#cnBnAuMxd" opacity="1" fill="#f6f6f6" fill-opacity="1"></use><g><use xlink:href="#cnBnAuMxd" opacity="1" fill-opacity="0" stroke="#000000" stroke-width="1" stroke-opacity="0"></use></g></g><g><use xlink:href="#cs6VpDNpA" opacity="1" fill="#2f8587" fill-opacity="1"></use><g><use xlink:href="#cs6VpDNpA" opacity="1" fill-opacity="0" stroke="#000000" stroke-width="1" stroke-opacity="0"></use></g></g><g><use xlink:href="#b34SlZtuhu" opacity="1" fill="#192c3c" fill-opacity="1"></use><g><use xlink:href="#b34SlZtuhu" opacity="1" fill-opacity="0" stroke="#000000" stroke-width="1" stroke-opacity="0"></use></g></g><g><use xlink:href="#cgNXoKafS" opacity="1" fill="#8b9298" fill-opacity="1"></use><g><use xlink:href="#cgNXoKafS" opacity="1" fill-opacity="0" stroke="#000000" stroke-width="1" stroke-opacity="0"></use></g></g><g><use xlink:href="#b33H8W0LYq" opacity="1" fill="#ffffff" fill-opacity="1"></use><g><use xlink:href="#b33H8W0LYq" opacity="1" fill-opacity="0" stroke="#000000" stroke-width="1" stroke-opacity="0"></use></g></g><g><use xlink:href="#f6RJ5nCH69" opacity="1" fill="#f0453a" fill-opacity="1"></use><g><use xlink:href="#f6RJ5nCH69" opacity="1" fill-opacity="0" stroke="#000000" stroke-width="1" stroke-opacity="0"></use></g></g><g><use xlink:href="#bxM02eIDd" opacity="1" fill="#305acc" fill-opacity="0.31"></use></g><path></path><path></path><g><use xlink:href="#a1vtPaPXw" opacity="1" fill="#305acc" fill-opacity="1"></use></g><g><use xlink:href="#a7Gq2pwkg" opacity="1" fill="#f5f5f5" fill-opacity="1"></use></g><g><use xlink:href="#d6rNkfjD" opacity="1" fill="#f5f5f5" fill-opacity="1"></use></g></g></g></svg>